SplineFontDB: 3.1
FontName: Combermere
FullName: Combermere
FamilyName: Combermere
Weight: Regular
Copyright: Copyright (c) 2018, jhudson\nThis file may be used, copied, modified, and distributed under the terms of the SIL Open Font License, version 1.1.
UComments: "2018-5-30: Created with FontForge (http://fontforge.org)"
Version: 001.000
ItalicAngle: 0
UnderlinePosition: -9
UnderlineWidth: 4
Ascent: 80
Descent: 30
InvalidEm: 0
LayerCount: 2
Layer: 0 0 "Back" 1
Layer: 1 0 "Fore" 0
XUID: [1021 221 1603365728 11179765]
OS2Version: 0
OS2_WeightWidthSlopeOnly: 0
OS2_UseTypoMetrics: 1
CreationTime: 1527732842
ModificationTime: 1528745904
OS2TypoAscent: 0
OS2TypoAOffset: 1
OS2TypoDescent: 0
OS2TypoDOffset: 1
OS2TypoLinegap: 0
OS2WinAscent: 0
OS2WinAOffset: 1
OS2WinDescent: 0
OS2WinDOffset: 1
HheadAscent: 0
HheadAOffset: 1
HheadDescent: 0
HheadDOffset: 1
OS2Vendor: 'PfEd'
MarkAttachClasses: 1
DEI: 91125
Encoding: AdobeStandard
UnicodeInterp: none
NameList: AGL For New Fonts
DisplaySize: -48
AntiAlias: 1
FitToEm: 1
WidthSeparation: 1
WinInfo: 0 16 9
BeginPrivate: 0
EndPrivate
BeginChars: 342 225

StartChar: a
Encoding: 97 97 0
Width: 37
VWidth: 0
Flags: HW
LayerCount: 2
UndoRedoHistory
Layer: 1
Undoes
UndoOperation
Index: 0
Type: 1
WasModified: 1
WasOrder2: 0
Layer: 2
Width: 40
VWidth: 0
LBearingChange: 0
UnicodeEnc: 0
InstructionsLength: 0
SplineSet
19.5 55 m 1
 20.5 54 l 1
 20.75 53.75 l 1
 20.74609375 53.74609375 l 1
 35.5 38.5 l 1
 34 37 l 1
 34 22.5 l 1
 34 20 l 1
 34 10 l 1
 34 10 36.525390625 8.4970703125 39 10 c 1
 37.2763671875 7.0390625 31.5126953125 0.1767578125 24 0 c 1
 24 9.5 l 1
 14.5 0 l 1
 -0.5 13.75 l 1
 0.5 14.7265625 l 1
 0.5 33.5 l 1
 -0.5 32.5 l 1
 -1.744140625 33.748046875 l 1
 19.5 55 l 1
11 43.966796875 m 1
 11 22.54296875 l 1
 22.86328125 11.08984375 l 1
 24 12.25390625 l 1
 24 30.099609375 l 1
 11 43.966796875 l 1
EndSplineSet
EndUndoOperation
EndUndoes
Redoes
EndRedoes
EndUndoRedoHistory
Fore
SplineSet
19.5 55 m 1
 20.5 54 l 1
 20.75 53.75 l 1
 20.74609375 53.74609375 l 1
 35.5 38.5 l 1
 34 37 l 1
 34 22.5 l 1
 34 20 l 1
 34 10 l 1
 34 10 36.525390625 8.4970703125 39 10 c 1
 37.2763671875 7.0390625 31.5126953125 0.1767578125 24 0 c 1
 24 9.5 l 1
 14.5 0 l 1
 -0.5 13.75 l 1
 0.5 14.7265625 l 1
 0.5 33.5 l 1
 -0.5 32.5 l 1
 -1.744140625 33.748046875 l 1
 19.5 55 l 1
11 43.966796875 m 1
 11 22.54296875 l 1
 22.86328125 11.08984375 l 1
 24 12.25390625 l 1
 24 30.099609375 l 1
 11 43.966796875 l 1
EndSplineSet
Validated: 33
EndChar

StartChar: b
Encoding: 98 98 1
Width: 37
VWidth: 0
Flags: HW
LayerCount: 2
UndoRedoHistory
Layer: 1
Undoes
UndoOperation
Index: 0
Type: 1
WasModified: 1
WasOrder2: 0
Layer: 2
Width: 39
VWidth: 0
LBearingChange: 0
UnicodeEnc: 0
InstructionsLength: 0
SplineSet
1 80 m 1
 5.87109375 75.12890625 l 1
 11 80 l 1
 11 46 l 1
 11 45.99609375 l 1
 11.001953125 45.998046875 l 1
 11 46 l 1
 21 56 l 1
 21.005859375 55.994140625 l 1
 21.013671875 56.001953125 l 1
 22.263671875 54.751953125 l 1
 22.255859375 54.744140625 l 1
 37 40 l 1
 36 39 l 1
 36 20.41015625 l 1
 36.33984375 20.75 l 1
 37.58984375 19.5 l 1
 16.33984375 -1.75 l 1
 15.09375 -0.50390625 l 1
 15.798828125 0.201171875 l 1
 0 16 l 1
 1 17 l 1
 1 36 l 1
 1 70 l 1
 1 70.5 l 1
 1 80 l 1
12.255859375 44.744140625 m 1
 11 43.48828125 l 1
 11 25 l 1
 25.796875 10.203125 l 1
 26 10.40625 l 1
 26 31 l 1
 12.255859375 44.744140625 l 1
EndSplineSet
EndUndoOperation
EndUndoes
Redoes
EndRedoes
EndUndoRedoHistory
Fore
SplineSet
1 80 m 1
 5.87109375 75.12890625 l 1
 11 80 l 1
 11 46 l 1
 11 45.99609375 l 1
 11.001953125 45.998046875 l 1
 11 46 l 1
 21 56 l 1
 21.005859375 55.994140625 l 1
 21.013671875 56.001953125 l 1
 22.263671875 54.751953125 l 1
 22.255859375 54.744140625 l 1
 37 40 l 1
 36 39 l 1
 36 20.41015625 l 1
 36.33984375 20.75 l 1
 37.58984375 19.5 l 1
 16.33984375 -1.75 l 1
 15.09375 -0.50390625 l 1
 15.798828125 0.201171875 l 1
 0 16 l 1
 1 17 l 1
 1 36 l 1
 1 70 l 1
 1 70.5 l 1
 1 80 l 1
12.255859375 44.744140625 m 1
 11 43.48828125 l 1
 11 25 l 1
 25.796875 10.203125 l 1
 26 10.40625 l 1
 26 31 l 1
 12.255859375 44.744140625 l 1
EndSplineSet
Validated: 5
EndChar

StartChar: c
Encoding: 99 99 2
Width: 39
VWidth: 0
Flags: HW
LayerCount: 2
UndoRedoHistory
Layer: 1
Undoes
UndoOperation
Index: 0
Type: 7
WasModified: 1
WasOrder2: 0
Layer: 2
Width: 103
EndUndoOperation
EndUndoes
Redoes
EndRedoes
EndUndoRedoHistory
Fore
SplineSet
23 55.9375 m 5
 39.5 40.72265625 l 5
 29.5 30.72265625 l 5
 14.171875 46.255859375 l 5
 13.5 45.6328125 l 5
 13.5 25.72265625 l 5
 28.078125 11.14453125 l 5
 35.810546875 18.447265625 l 5
 37.18359375 17 l 5
 19.185546875 0 l 5
 18.501953125 0.724609375 l 5
 18.5 0.72265625 l 5
 2.5 16.72265625 l 5
 3.5 17.72265625 l 5
 3.5 36.365234375 l 5
 2.5 35.4375 l 5
 1 36.9375 l 5
 23 55.9375 l 5
EndSplineSet
Validated: 1
EndChar

StartChar: d
Encoding: 100 100 3
Width: 43
VWidth: 0
Flags: HW
LayerCount: 2
UndoRedoHistory
Layer: 1
Undoes
UndoOperation
Index: 0
Type: 1
WasModified: 1
WasOrder2: 0
Layer: 2
Width: 43
VWidth: 0
LBearingChange: 0
UnicodeEnc: 0
InstructionsLength: 0
SplineSet
11.5 80 m 5
 16 75 l 5
 46 42.5 l 5
 45 41.55078125 l 5
 45 24.4140625 l 5
 46.29296875 25.70703125 l 5
 47.7109375 24.296875 l 5
 25.705078125 2.291015625 l 5
 25 3 l 5
 9 19 l 5
 10 20 l 5
 10 37.5859375 l 5
 8.705078125 36.291015625 l 5
 7.294921875 37.708984375 l 5
 19.83203125 50.24609375 l 5
 6 65 l 5
 0 71 l 5
 11.048828125 70.080078125 l 5
 11.5 80 l 5
21.201171875 48.78515625 m 5
 20 47.583984375 l 5
 20 28 l 5
 34.29296875 13.70703125 l 5
 35 14.4140625 l 5
 35 34 l 5
 35.03515625 34.029296875 l 5
 21.201171875 48.78515625 l 5
EndSplineSet
EndUndoOperation
EndUndoes
Redoes
EndRedoes
EndUndoRedoHistory
Fore
SplineSet
5.794921875 77.708984375 m 5
 10.294921875 72.708984375 l 5
 40.294921875 40.208984375 l 5
 39.294921875 39.259765625 l 5
 39.294921875 22.123046875 l 5
 40.587890625 23.416015625 l 5
 42.005859375 22.005859375 l 5
 20 0 l 5
 19.294921875 0.708984375 l 5
 3.294921875 16.708984375 l 5
 4.294921875 17.708984375 l 5
 4.294921875 35.294921875 l 5
 3 34 l 5
 1.58984375 35.41796875 l 5
 14.126953125 47.955078125 l 5
 0.294921875 62.708984375 l 5
 -5.705078125 68.708984375 l 5
 5.34375 67.7890625 l 5
 5.794921875 77.708984375 l 5
15.49609375 46.494140625 m 5
 14.294921875 45.29296875 l 5
 14.294921875 25.708984375 l 5
 28.587890625 11.416015625 l 5
 29.294921875 12.123046875 l 5
 29.294921875 31.708984375 l 5
 29.330078125 31.73828125 l 5
 15.49609375 46.494140625 l 5
EndSplineSet
Validated: 1
EndChar

StartChar: e
Encoding: 101 101 4
Width: 36
VWidth: 0
Flags: HW
LayerCount: 2
UndoRedoHistory
Layer: 1
Undoes
UndoOperation
Index: 0
Type: 1
WasModified: 0
WasOrder2: 0
Layer: 2
Width: -216
VWidth: 0
LBearingChange: 0
UnicodeEnc: 0
InstructionsLength: 0
SplineSet
23.005859375 57.4296875 m 1
 23.708984375 56.72265625 l 1
 35.9765625 45.400390625 l 1
 36.00390625 45.427734375 l 1
 37.4140625 44.017578125 l 1
 16.4140625 23.017578125 l 1
 28.287109375 11.14453125 l 1
 36.01953125 18.447265625 l 1
 37.392578125 17 l 1
 19.39453125 0 l 1
 18.7109375 0.724609375 l 1
 18.708984375 0.72265625 l 1
 2.708984375 16.72265625 l 1
 3.708984375 17.72265625 l 1
 3.708984375 35.306640625 l 1
 2.41796875 34.015625 l 1
 1 35.431640625 l 1
 23.005859375 57.4296875 l 1
14.4453125 46.04296875 m 1
 13.708984375 45.306640625 l 1
 13.708984375 25.72265625 l 1
 15.001953125 24.4296875 l 1
 25.974609375 35.400390625 l 1
 14.4453125 46.04296875 l 1
EndSplineSet
EndUndoOperation
EndUndoes
Redoes
EndRedoes
EndUndoRedoHistory
Fore
SplineSet
23.005859375 57.4296875 m 1
 23.708984375 56.72265625 l 1
 35.9765625 45.400390625 l 1
 36.00390625 45.427734375 l 1
 37.4140625 44.017578125 l 1
 16.4140625 23.017578125 l 1
 28.287109375 11.14453125 l 1
 36.01953125 18.447265625 l 1
 37.392578125 17 l 1
 19.39453125 0 l 1
 18.7109375 0.724609375 l 1
 18.708984375 0.72265625 l 1
 2.708984375 16.72265625 l 1
 3.708984375 17.72265625 l 1
 3.708984375 35.306640625 l 1
 2.41796875 34.015625 l 1
 1 35.431640625 l 1
 23.005859375 57.4296875 l 1
14.4453125 46.04296875 m 1
 13.708984375 45.306640625 l 1
 13.708984375 25.72265625 l 1
 15.001953125 24.4296875 l 1
 25.974609375 35.400390625 l 1
 14.4453125 46.04296875 l 1
EndSplineSet
EndChar

StartChar: f
Encoding: 102 102 5
Width: 33
VWidth: 0
Flags: HW
LayerCount: 2
UndoRedoHistory
Layer: 1
Undoes
UndoOperation
Index: 0
Type: 7
WasModified: 1
WasOrder2: 0
Layer: 2
Width: 103
EndUndoOperation
EndUndoes
Redoes
EndRedoes
EndUndoRedoHistory
Fore
SplineSet
22.67578125 80.35546875 m 5
 32.92578125 70.35546875 l 5
 22.92578125 60.35546875 l 5
 14.05078125 69.23046875 l 5
 13.92578125 69.10546875 l 5
 13.92578125 36.58984375 l 5
 22.92578125 45.85546875 l 5
 23.92578125 44.85546875 l 5
 27.92578125 40.85546875 l 5
 18.92578125 31.35546875 l 5
 14.92578125 35.35546875 l 5
 13.92578125 34.30078125 l 5
 13.92578125 11.07421875 l 5
 17 8 l 5
 9 0 l 5
 1 8 l 5
 3.92578125 10.92578125 l 5
 3.92578125 59.10546875 l 5
 3.92578125 61.60546875 l 5
 22.67578125 80.35546875 l 5
EndSplineSet
Validated: 1
EndChar

StartChar: g
Encoding: 103 103 6
Width: 44
VWidth: 0
Flags: HW
LayerCount: 2
UndoRedoHistory
Layer: 1
Undoes
UndoOperation
Index: 0
Type: 7
WasModified: 1
WasOrder2: 0
Layer: 2
Width: 101
EndUndoOperation
EndUndoes
Redoes
EndRedoes
EndUndoRedoHistory
Fore
SplineSet
25.291015625 57.416015625 m 5
 26.708984375 55.998046875 l 5
 42 40.708984375 l 5
 41 39.708984375 l 5
 41 22.125 l 5
 42.291015625 23.416015625 l 5
 43.708984375 22.005859375 l 5
 41 19.296875 l 5
 41 -7.291015625 l 5
 31 -17.291015625 l 5
 31 9.296875 l 5
 21.703125 0 l 5
 20.64453125 1.064453125 l 5
 5 16.708984375 l 5
 6 17.708984375 l 5
 6 35.2890625 l 5
 4.7109375 34 l 5
 3.29296875 35.41796875 l 5
 25.291015625 57.416015625 l 5
31 -17.291015625 m 5
 21 -27.291015625 l 5
 6 -12.291015625 l 6
 5.1162109375 -11.4951171875 1 -14.791015625 1 -14.791015625 c 5
 1 -14.791015625 12.7900390625 1.2724609375 15 -1.291015625 c 6
 31 -17.291015625 l 5
16.7109375 45.998046875 m 5
 16 45.287109375 l 5
 16 25.708984375 l 5
 30.29296875 11.416015625 l 5
 31 12.123046875 l 5
 31 31.708984375 l 5
 16.7109375 45.998046875 l 5
EndSplineSet
Validated: 37
EndChar

StartChar: h
Encoding: 104 104 7
Width: 37
VWidth: 0
Flags: HW
LayerCount: 2
UndoRedoHistory
Layer: 1
Undoes
UndoOperation
Index: 0
Type: 7
WasModified: 1
WasOrder2: 0
Layer: 2
Width: 111
EndUndoOperation
EndUndoes
Redoes
EndRedoes
EndUndoRedoHistory
Fore
SplineSet
3.40625 80 m 1
 8.16796875 74.76171875 l 1
 13.40625 80 l 1
 13.40625 44 l 1
 13.40625 11.23828125 l 1
 17 7.64453125 l 1
 9 -0.35546875 l 1
 1 7.64453125 l 1
 3.40625 10.05078125 l 1
 3.40625 69.5 l 1
 3.40625 70 l 1
 3.40625 80 l 1
13.40625 44 m 1
 23.40625 54 l 1
 37.40625 40 l 1
 36.40625 39 l 1
 36.40625 12 l 2
 36.40625 7 23.90625 -4.5 22.40625 -4.5 c 1
 23.40625 -4 26.40625 1 26.40625 2 c 2
 26.40625 31 l 1
 13.40625 44 l 1
EndSplineSet
Validated: 5
EndChar

StartChar: i
Encoding: 105 105 8
Width: 17
VWidth: 0
Flags: HW
LayerCount: 2
UndoRedoHistory
Layer: 1
Undoes
UndoOperation
Index: 0
Type: 1
WasModified: 1
WasOrder2: 0
Layer: 2
Width: 17
VWidth: 0
LBearingChange: 0
UnicodeEnc: 0
InstructionsLength: 0
SplineSet
7 74.11328125 m 5
 15 66.11328125 l 5
 7 58.11328125 l 5
 -1 66.11328125 l 5
 7 74.11328125 l 5
7.03125 53.880859375 m 5
 15.03125 45.880859375 l 5
 12 42.849609375 l 5
 12 11.11328125 l 5
 11.943359375 11.087890625 l 5
 15.03125 8 l 5
 7.03125 0 l 5
 -0.96875 8 l 5
 2 10.96875 l 5
 2 42.912109375 l 5
 -0.96875 45.880859375 l 5
 7.03125 53.880859375 l 5
EndSplineSet
EndUndoOperation
EndUndoes
Redoes
EndRedoes
EndUndoRedoHistory
Fore
SplineSet
8 74.11328125 m 1
 16 66.11328125 l 1
 8 58.11328125 l 1
 0 66.11328125 l 1
 8 74.11328125 l 1
8.03125 53.880859375 m 1
 16.03125 45.880859375 l 1
 13 42.849609375 l 1
 13 11.11328125 l 1
 12.943359375 11.087890625 l 1
 16.03125 8 l 1
 8.03125 0 l 1
 0.03125 8 l 1
 3 10.96875 l 1
 3 42.912109375 l 1
 0.03125 45.880859375 l 1
 8.03125 53.880859375 l 1
EndSplineSet
Validated: 1
EndChar

StartChar: j
Encoding: 106 106 9
Width: 17
VWidth: 0
Flags: HW
LayerCount: 2
UndoRedoHistory
Layer: 1
Undoes
UndoOperation
Index: 0
Type: 1
WasModified: 1
WasOrder2: 0
Layer: 2
Width: 17
VWidth: 0
LBearingChange: 0
UnicodeEnc: 0
InstructionsLength: 0
SplineSet
11 72 m 5
 19 64 l 5
 11 56 l 5
 3 64 l 5
 11 72 l 5
10.95703125 51.767578125 m 5
 18.95703125 43.767578125 l 5
 16 40.810546875 l 5
 16 -11 l 5
 8 -19 l 5
 6 -21 l 5
 -2 -29 l 5
 -8 -23 l 6
 -8.8837890625 -22.2041015625 -13 -25.5 -13 -25.5 c 5
 -13 -25.5 -1.2099609375 -9.4365234375 1 -12 c 6
 6 -17 l 5
 6 40.724609375 l 5
 2.95703125 43.767578125 l 5
 10.95703125 51.767578125 l 5
EndSplineSet
EndUndoOperation
UndoOperation
Index: 1
Type: 1
WasModified: 1
WasOrder2: 0
Layer: 2
Width: 17
VWidth: 0
LBearingChange: 0
UnicodeEnc: 0
InstructionsLength: 0
SplineSet
12 72 m 5
 20 64 l 5
 12 56 l 5
 4 64 l 5
 12 72 l 5
11.95703125 51.767578125 m 5
 19.95703125 43.767578125 l 5
 17 40.810546875 l 5
 17 -11 l 5
 9 -19 l 5
 7 -21 l 5
 -1 -29 l 5
 -7 -23 l 6
 -7.8837890625 -22.2041015625 -12 -25.5 -12 -25.5 c 5
 -12 -25.5 -0.2099609375 -9.4365234375 2 -12 c 6
 7 -17 l 5
 7 40.724609375 l 5
 3.95703125 43.767578125 l 5
 11.95703125 51.767578125 l 5
EndSplineSet
EndUndoOperation
UndoOperation
Index: 2
Type: 1
WasModified: 1
WasOrder2: 0
Layer: 2
Width: 17
VWidth: 0
LBearingChange: 0
UnicodeEnc: 0
InstructionsLength: 0
SplineSet
13 72 m 5
 21 64 l 5
 13 56 l 5
 5 64 l 5
 13 72 l 5
12.95703125 51.767578125 m 5
 20.95703125 43.767578125 l 5
 18 40.810546875 l 5
 18 -11 l 5
 10 -19 l 5
 8 -21 l 5
 0 -29 l 5
 -6 -23 l 6
 -6.8837890625 -22.2041015625 -11 -25.5 -11 -25.5 c 5
 -11 -25.5 0.7900390625 -9.4365234375 3 -12 c 6
 8 -17 l 5
 8 40.724609375 l 5
 4.95703125 43.767578125 l 5
 12.95703125 51.767578125 l 5
EndSplineSet
EndUndoOperation
UndoOperation
Index: 3
Type: 1
WasModified: 1
WasOrder2: 0
Layer: 2
Width: 17
VWidth: 0
LBearingChange: 0
UnicodeEnc: 0
InstructionsLength: 0
SplineSet
24 80 m 5
 32 72 l 5
 24 64 l 5
 16 72 l 5
 24 80 l 5
23.95703125 59.767578125 m 5
 31.95703125 51.767578125 l 5
 29 48.810546875 l 5
 29 -3 l 5
 21 -11 l 5
 19 -13 l 5
 11 -21 l 5
 5 -15 l 6
 4.1162109375 -14.2041015625 0 -17.5 0 -17.5 c 5
 0 -17.5 11.7900390625 -1.4365234375 14 -4 c 6
 19 -9 l 5
 19 48.724609375 l 5
 15.95703125 51.767578125 l 5
 23.95703125 59.767578125 l 5
EndSplineSet
EndUndoOperation
UndoOperation
Index: 4
Type: 1
WasModified: 1
WasOrder2: 0
Layer: 2
Width: 17
VWidth: 0
LBearingChange: 0
UnicodeEnc: 0
InstructionsLength: 0
EndUndoOperation
UndoOperation
Index: 5
Type: 3
WasModified: 1
WasOrder2: 0
Layer: 2
EndUndoOperation
UndoOperation
Index: 6
Type: 1
WasModified: 0
WasOrder2: 0
Layer: 2
Width: 17
VWidth: 0
LBearingChange: 0
UnicodeEnc: 0
InstructionsLength: 0
SplineSet
8 74 m 5
 16 66 l 5
 8 58 l 5
 0 66 l 5
 8 74 l 5
7.95703125 53.767578125 m 5
 15.95703125 45.767578125 l 5
 13 42.810546875 l 5
 13 -9 l 5
 5 -17 l 5
 3 -19 l 5
 -5 -27 l 5
 -12 -20 l 5
 -2 -10 l 5
 3 -15 l 5
 3 42.724609375 l 5
 -0.04296875 45.767578125 l 5
 7.95703125 53.767578125 l 5
EndSplineSet
EndUndoOperation
UndoOperation
Index: 7
Type: 1
WasModified: 1
WasOrder2: 0
Layer: 2
Width: 29
VWidth: 0
LBearingChange: 0
UnicodeEnc: 0
InstructionsLength: 0
SplineSet
8 74 m 1
 16 66 l 1
 8 58 l 1
 0 66 l 1
 8 74 l 1
7.95703125 53.767578125 m 1
 15.95703125 45.767578125 l 1
 13 42.810546875 l 1
 13 -9 l 1
 5 -17 l 1
 3 -19 l 1
 -5 -27 l 1
 -12 -20 l 1
 -2 -10 l 1
 3 -15 l 1
 3 42.724609375 l 1
 -0.04296875 45.767578125 l 1
 7.95703125 53.767578125 l 1
EndSplineSet
EndUndoOperation
EndUndoes
Redoes
EndRedoes
EndUndoRedoHistory
Fore
SplineSet
12 72 m 5
 20 64 l 5
 12 56 l 5
 4 64 l 5
 12 72 l 5
11.95703125 51.767578125 m 5
 19.95703125 43.767578125 l 5
 17 40.810546875 l 5
 17 -11 l 5
 9 -19 l 5
 7 -21 l 5
 -1 -29 l 5
 -7 -23 l 6
 -7.8837890625 -22.2041015625 -12 -25.5 -12 -25.5 c 5
 -12 -25.5 -0.2099609375 -9.4365234375 2 -12 c 6
 7 -17 l 5
 7 40.724609375 l 5
 3.95703125 43.767578125 l 5
 11.95703125 51.767578125 l 5
EndSplineSet
EndChar

StartChar: k
Encoding: 107 107 10
Width: 39
VWidth: 0
Flags: HW
LayerCount: 2
UndoRedoHistory
Layer: 1
Undoes
UndoOperation
Index: 0
Type: 1
WasModified: 0
WasOrder2: 0
Layer: 2
Width: 36
VWidth: 0
LBearingChange: 0
UnicodeEnc: 0
InstructionsLength: 0
SplineSet
3.982421875 80 m 1
 8.982421875 75 l 1
 13.982421875 80 l 1
 13.982421875 42 l 1
 17.482421875 45.5 l 1
 27.482421875 55.5 l 1
 36.482421875 47.5 l 1
 28.982421875 40 l 1
 36.38671875 30.619140625 l 1
 36.482421875 30.71484375 l 1
 36.482421875 10 l 2
 36.482421875 5 23.982421875 -6.5 22.482421875 -6.5 c 1
 23.482421875 -6 26.482421875 -1 26.482421875 0 c 2
 26.482421875 20.5 l 1
 19.072265625 29.88671875 l 1
 13.982421875 24.693359375 l 1
 13.982421875 10.3671875 l 1
 17 7.349609375 l 1
 9 -0.650390625 l 1
 1 7.349609375 l 1
 3.982421875 10.33203125 l 1
 3.982421875 69 l 1
 3.982421875 70 l 1
 3.982421875 80 l 1
18.27734375 44.794921875 m 1
 13.982421875 40.5 l 1
 13.982421875 26.703125 l 1
 25.451171875 38.416015625 l 1
 18.27734375 44.794921875 l 1
EndSplineSet
EndUndoOperation
EndUndoes
Redoes
EndRedoes
EndUndoRedoHistory
Fore
SplineSet
3.982421875 80 m 1
 8.982421875 75 l 1
 13.982421875 80 l 1
 13.982421875 42 l 1
 17.482421875 45.5 l 1
 27.482421875 55.5 l 1
 36.482421875 47.5 l 1
 28.982421875 40 l 1
 36.38671875 30.619140625 l 1
 36.482421875 30.71484375 l 1
 36.482421875 10 l 2
 36.482421875 5 23.982421875 -6.5 22.482421875 -6.5 c 1
 23.482421875 -6 26.482421875 -1 26.482421875 0 c 2
 26.482421875 20.5 l 1
 19.072265625 29.88671875 l 1
 13.982421875 24.693359375 l 1
 13.982421875 10.3671875 l 1
 17 7.349609375 l 1
 9 -0.650390625 l 1
 1 7.349609375 l 1
 3.982421875 10.33203125 l 1
 3.982421875 69 l 1
 3.982421875 70 l 1
 3.982421875 80 l 1
18.27734375 44.794921875 m 1
 13.982421875 40.5 l 1
 13.982421875 26.703125 l 1
 25.451171875 38.416015625 l 1
 18.27734375 44.794921875 l 1
EndSplineSet
EndChar

StartChar: l
Encoding: 108 108 11
Width: 17
VWidth: 0
Flags: HW
LayerCount: 2
UndoRedoHistory
Layer: 1
Undoes
UndoOperation
Index: 0
Type: 7
WasModified: 1
WasOrder2: 0
Layer: 2
Width: 111
EndUndoOperation
EndUndoes
Redoes
EndRedoes
EndUndoRedoHistory
Fore
SplineSet
3.490234375 80 m 1
 8.490234375 75 l 1
 13.490234375 80 l 1
 13.490234375 10.14453125 l 1
 17 6.634765625 l 1
 9 -1.365234375 l 1
 1 6.634765625 l 1
 3.490234375 9.125 l 1
 3.490234375 69.5 l 1
 3.490234375 70 l 1
 3.490234375 80 l 1
EndSplineSet
Validated: 1
EndChar

StartChar: m
Encoding: 109 109 12
Width: 49
VWidth: 0
Flags: HW
LayerCount: 2
UndoRedoHistory
Layer: 1
Undoes
UndoOperation
Index: 0
Type: 1
WasModified: 1
WasOrder2: 0
Layer: 2
Width: 48
VWidth: 0
LBearingChange: 0
UnicodeEnc: 0
InstructionsLength: 0
SplineSet
19.16015625 56.845703125 m 5
 20.41015625 55.595703125 l 5
 20.40625 55.59375 l 5
 28 48 l 5
 27.5 47.572265625 l 5
 27.5 47.5 l 5
 28 48 l 5
 36.5 56.5 l 5
 47 46 l 5
 44.5 43.857421875 l 5
 44.5 10.5390625 l 5
 47.51171875 7.52734375 l 5
 39.51171875 -0.47265625 l 5
 31.51171875 7.52734375 l 5
 34.5 10.515625 l 5
 34.5 39 l 5
 27.5 45.5625 l 5
 27.5 10.576171875 l 5
 30.548828125 7.52734375 l 5
 22.548828125 -0.47265625 l 5
 14.548828125 7.52734375 l 5
 17.5 10.478515625 l 5
 17.5 39 l 5
 10.5 45.560546875 l 5
 10.5 10.486328125 l 5
 13.458984375 7.52734375 l 5
 5.458984375 -0.47265625 l 5
 -2.541015625 7.52734375 l 5
 0.5 10.568359375 l 5
 0.5 45.4921875 l 6
 -1.0244140625 44.9697265625 -3.48828125 43 -3.48828125 43 c 5
 -3.48828125 43 8.3017578125 59.0634765625 10.51171875 56.5 c 6
 10.5 56.486328125 l 5
 10.5 48.443359375 l 5
 19.16015625 56.845703125 l 5
EndSplineSet
EndUndoOperation
EndUndoes
Redoes
EndRedoes
EndUndoRedoHistory
Fore
SplineSet
20.6484375 56.318359375 m 5
 21.8984375 55.068359375 l 5
 21.89453125 55.06640625 l 5
 29.48828125 47.47265625 l 5
 28.98828125 47.044921875 l 5
 28.98828125 46.97265625 l 5
 29.48828125 47.47265625 l 5
 37.98828125 55.97265625 l 5
 48.48828125 45.47265625 l 5
 45.98828125 43.330078125 l 5
 45.98828125 10.01171875 l 5
 49 7 l 5
 41 -1 l 5
 33 7 l 5
 35.98828125 9.98828125 l 5
 35.98828125 38.47265625 l 5
 28.98828125 45.03515625 l 5
 28.98828125 10.048828125 l 5
 32.037109375 7 l 5
 24.037109375 -1 l 5
 16.037109375 7 l 5
 18.98828125 9.951171875 l 5
 18.98828125 38.47265625 l 5
 11.98828125 45.033203125 l 5
 11.98828125 9.958984375 l 5
 14.947265625 7 l 5
 6.947265625 -1 l 5
 -1.052734375 7 l 5
 1.98828125 10.041015625 l 5
 1.98828125 44.96484375 l 6
 0.4638671875 44.4423828125 -2 42.47265625 -2 42.47265625 c 5
 -2 42.47265625 9.7900390625 58.5361328125 12 55.97265625 c 6
 11.98828125 55.958984375 l 5
 11.98828125 47.916015625 l 5
 20.6484375 56.318359375 l 5
EndSplineSet
Validated: 37
EndChar

StartChar: n
Encoding: 110 110 13
Width: 38
VWidth: 0
Flags: HW
LayerCount: 2
UndoRedoHistory
Layer: 1
Undoes
UndoOperation
Index: 0
Type: 7
WasModified: 1
WasOrder2: 0
Layer: 2
Width: 112
EndUndoOperation
EndUndoes
Redoes
EndRedoes
EndUndoRedoHistory
Fore
SplineSet
14.478515625 56.63671875 m 6
 14.6865234375 56.61328125 14.861328125 56.525390625 15 56.365234375 c 6
 14.9609375 56.31640625 l 5
 14.9609375 48.115234375 l 5
 23.205078125 56.365234375 l 5
 23.958984375 55.611328125 l 5
 23.9609375 55.61328125 l 5
 34.99609375 47.36328125 l 5
 35 47.365234375 l 5
 35 47.361328125 l 5
 37 45.865234375 l 5
 34.99609375 43.861328125 l 5
 34.962890625 11.037109375 l 5
 38 8 l 5
 30 0 l 5
 22 8 l 5
 24.966796875 10.966796875 l 5
 25 38.865234375 l 5
 15.671875 46.328125 l 5
 14.9609375 45.6171875 l 5
 14.9609375 11.341796875 l 5
 18.302734375 8 l 5
 10.302734375 0 l 5
 2.302734375 8 l 5
 4.9609375 10.658203125 l 5
 4.9609375 45.34765625 l 6
 3.4345703125 44.810546875 1 42.865234375 1 42.865234375 c 5
 1 42.865234375 11.3623046875 56.9833984375 14.478515625 56.63671875 c 6
EndSplineSet
Validated: 33
EndChar

StartChar: o
Encoding: 111 111 14
Width: 38
VWidth: 0
Flags: HW
LayerCount: 2
UndoRedoHistory
Layer: 1
Undoes
UndoOperation
Index: 0
Type: 1
WasModified: 1
WasOrder2: 0
Layer: 2
Width: 39
VWidth: 0
LBearingChange: 0
UnicodeEnc: 0
InstructionsLength: 0
SplineSet
19.587890625 57.416015625 m 1
 20.291015625 56.708984375 l 1
 36.291015625 40.708984375 l 1
 35.291015625 39.708984375 l 1
 35.291015625 22.126953125 l 1
 36.580078125 23.416015625 l 1
 37.998046875 22.005859375 l 1
 16 0 l 1
 14.58203125 1.41796875 l 1
 -0.708984375 16.708984375 l 1
 0.291015625 17.708984375 l 1
 0.291015625 35.291015625 l 1
 -1 34 l 1
 -2.41796875 35.41796875 l 1
 19.587890625 57.416015625 l 1
11 46 m 1
 10.291015625 45.291015625 l 1
 10.291015625 25.708984375 l 1
 24.58203125 11.41796875 l 1
 25.291015625 12.126953125 l 1
 25.291015625 31.708984375 l 1
 11 46 l 1
EndSplineSet
EndUndoOperation
EndUndoes
Redoes
EndRedoes
EndUndoRedoHistory
Fore
SplineSet
19.587890625 57.416015625 m 1
 20.291015625 56.708984375 l 1
 36.291015625 40.708984375 l 1
 35.291015625 39.708984375 l 1
 35.291015625 22.126953125 l 1
 36.580078125 23.416015625 l 1
 37.998046875 22.005859375 l 1
 16 0 l 1
 14.58203125 1.41796875 l 1
 -0.708984375 16.708984375 l 1
 0.291015625 17.708984375 l 1
 0.291015625 35.291015625 l 1
 -1 34 l 1
 -2.41796875 35.41796875 l 1
 19.587890625 57.416015625 l 1
11 46 m 1
 10.291015625 45.291015625 l 1
 10.291015625 25.708984375 l 1
 24.58203125 11.41796875 l 1
 25.291015625 12.126953125 l 1
 25.291015625 31.708984375 l 1
 11 46 l 1
EndSplineSet
Validated: 1
EndChar

StartChar: p
Encoding: 112 112 15
Width: 43
VWidth: 0
Flags: HW
LayerCount: 2
UndoRedoHistory
Layer: 1
Undoes
UndoOperation
Index: 0
Type: 7
WasModified: 1
WasOrder2: 0
Layer: 2
Width: 111
EndUndoOperation
EndUndoes
Redoes
EndRedoes
EndUndoRedoHistory
Fore
SplineSet
14.478515625 57.98046875 m 4
 14.6865234375 57.95703125 14.8623046875 57.869140625 15 57.708984375 c 6
 15 48.205078125 l 5
 24.25 57.458984375 l 5
 25.5 56.208984375 l 5
 41 40.708984375 l 5
 40 39.708984375 l 5
 40 22.125 l 5
 41.291015625 23.416015625 l 5
 42.708984375 22.005859375 l 5
 20.7109375 0 l 5
 19.29296875 1.41796875 l 5
 15 5.7109375 l 5
 15 -16.908203125 l 5
 18.04296875 -19.951171875 l 5
 10.04296875 -27.951171875 l 5
 2.04296875 -19.951171875 l 5
 5 -16.994140625 l 5
 5 15.708984375 l 5
 3 17.708984375 l 5
 5 19.708984375 l 5
 5 46.705078125 l 6
 3.4765625 46.1884765625 1 44.208984375 1 44.208984375 c 5
 1 44.208984375 11.3623046875 58.3271484375 14.478515625 57.98046875 c 4
15.5 46.208984375 m 5
 15 45.708984375 l 5
 15 25.708984375 l 5
 29.29296875 11.416015625 l 5
 30 12.123046875 l 5
 30 31.708984375 l 5
 15.5 46.208984375 l 5
EndSplineSet
Validated: 33
EndChar

StartChar: q
Encoding: 113 113 16
Width: 42
VWidth: 0
Flags: HW
LayerCount: 2
UndoRedoHistory
Layer: 1
Undoes
UndoOperation
Index: 0
Type: 7
WasModified: 1
WasOrder2: 0
Layer: 2
Width: 112
EndUndoOperation
EndUndoes
Redoes
EndRedoes
EndUndoRedoHistory
Fore
SplineSet
22.998046875 57.416015625 m 5
 24.416015625 55.998046875 l 5
 39.70703125 40.708984375 l 5
 38.70703125 39.708984375 l 5
 38.70703125 22.123046875 l 5
 39.998046875 23.4140625 l 5
 41.416015625 22.005859375 l 5
 38.70703125 19.296875 l 5
 38.70703125 -16.939453125 l 5
 41.71875 -19.951171875 l 5
 33.71875 -27.951171875 l 5
 25.71875 -19.951171875 l 5
 28.70703125 -16.962890625 l 5
 28.70703125 9.29296875 l 5
 19.41796875 0 l 5
 18 1.416015625 l 5
 3.70703125 15.708984375 l 5
 1.70703125 17.708984375 l 5
 3.70703125 19.708984375 l 5
 3.70703125 35.2890625 l 5
 2.41796875 34 l 5
 1 35.41796875 l 5
 22.998046875 57.416015625 l 5
14.41796875 45.998046875 m 5
 13.70703125 45.287109375 l 5
 13.70703125 25.708984375 l 5
 28 11.416015625 l 5
 28.70703125 12.123046875 l 5
 28.70703125 31.708984375 l 5
 14.41796875 45.998046875 l 5
EndSplineSet
Validated: 1
EndChar

StartChar: r
Encoding: 114 114 17
Width: 36
VWidth: 0
Flags: HW
LayerCount: 2
UndoRedoHistory
Layer: 1
Undoes
UndoOperation
Index: 0
Type: 7
WasModified: 1
WasOrder2: 0
Layer: 2
Width: 113
EndUndoOperation
EndUndoes
Redoes
EndRedoes
EndUndoRedoHistory
Fore
SplineSet
14.478515625 55.87890625 m 4
 14.6865234375 55.85546875 14.8623046875 55.767578125 15 55.607421875 c 6
 15 45.103515625 l 5
 24.75 54.857421875 l 5
 26 53.607421875 l 5
 36 43.607421875 l 6
 36 38.607421875 23.5 27.107421875 22 27.107421875 c 5
 23 27.607421875 26 32.607421875 26 33.607421875 c 6
 16 43.607421875 l 5
 15 42.607421875 l 5
 15 11.103515625 l 5
 18.103515625 8 l 5
 10.103515625 0 l 5
 2.103515625 8 l 5
 5 10.896484375 l 5
 5 44.603515625 l 6
 3.4765625 44.0869140625 1 42.107421875 1 42.107421875 c 5
 1 42.107421875 11.3623046875 56.2255859375 14.478515625 55.87890625 c 4
EndSplineSet
Validated: 33
EndChar

StartChar: s
Encoding: 115 115 18
Width: 41
VWidth: 0
Flags: HW
LayerCount: 2
UndoRedoHistory
Layer: 1
Undoes
UndoOperation
Index: 0
Type: 1
WasModified: 1
WasOrder2: 0
Layer: 2
Width: 49
VWidth: 0
LBearingChange: 0
UnicodeEnc: 0
InstructionsLength: 0
SplineSet
24.5 55 m 1
 34.5 55 l 1
 38.5 51.5 l 2
 39.3837890625 50.7041015625 43.5 54 43.5 54 c 1
 43.5 54 31.7099609375 37.9365234375 29.5 40.5 c 2
 24.5 45 l 1
 17.00390625 45 l 1
 14.505859375 42.501953125 l 1
 14.51171875 39.99609375 l 1
 23.25390625 31.25390625 l 1
 30 38 l 1
 40 28 l 1
 40 20.5 l 1
 40 18 l 1
 22 0 l 1
 12 0 l 1
 0.599609375 9.12109375 l 1
 0.5 9 l 2
 -0.3837890625 9.7958984375 -4.5 6.5 -4.5 6.5 c 1
 -4.5 6.5 7.2900390625 22.5634765625 9.5 20 c 2
 22 10 l 1
 29.5 10 l 1
 30 10.5 l 1
 30 18 l 1
 21.2578125 26.7421875 l 1
 14.509765625 19.99609375 l 1
 14.50390625 20.00390625 l 1
 14.5 20 l 1
 14.5 20.005859375 l 1
 3.2578125 31.25 l 1
 3.255859375 31.248046875 l 1
 2.009765625 32.49609375 l 1
 4.5 34.986328125 l 1
 4.5 34.99609375 l 1
 14.5 44.994140625 l 1
 14.505859375 45 l 1
 14.5 45 l 1
 24.5 55 l 1
EndSplineSet
EndUndoOperation
EndUndoes
Redoes
EndRedoes
EndUndoRedoHistory
Fore
SplineSet
24.5 55 m 1
 34.5 55 l 1
 38.5 51.5 l 2
 39.3837890625 50.7041015625 43.5 54 43.5 54 c 1
 43.5 54 31.7099609375 37.9365234375 29.5 40.5 c 2
 24.5 45 l 1
 17.00390625 45 l 1
 14.505859375 42.501953125 l 1
 14.51171875 39.99609375 l 1
 23.25390625 31.25390625 l 1
 30 38 l 1
 40 28 l 1
 40 20.5 l 1
 40 18 l 1
 22 0 l 1
 12 0 l 1
 0.599609375 9.12109375 l 1
 0.5 9 l 2
 -0.3837890625 9.7958984375 -4.5 6.5 -4.5 6.5 c 1
 -4.5 6.5 7.2900390625 22.5634765625 9.5 20 c 2
 22 10 l 1
 29.5 10 l 1
 30 10.5 l 1
 30 18 l 1
 21.2578125 26.7421875 l 1
 14.509765625 19.99609375 l 1
 14.50390625 20.00390625 l 1
 14.5 20 l 1
 14.5 20.005859375 l 1
 3.2578125 31.25 l 1
 3.255859375 31.248046875 l 1
 2.009765625 32.49609375 l 1
 4.5 34.986328125 l 1
 4.5 34.99609375 l 1
 14.5 44.994140625 l 1
 14.505859375 45 l 1
 14.5 45 l 1
 24.5 55 l 1
EndSplineSet
Validated: 33
EndChar

StartChar: t
Encoding: 116 116 19
Width: 22
VWidth: 0
Flags: HW
LayerCount: 2
UndoRedoHistory
Layer: 1
Undoes
UndoOperation
Index: 0
Type: 1
WasModified: 1
WasOrder2: 0
Layer: 2
Width: 22
VWidth: 0
LBearingChange: 0
UnicodeEnc: 0
InstructionsLength: 0
SplineSet
16.978515625 79.994140625 m 4
 17.1865234375 79.970703125 17.3623046875 79.8828125 17.5 79.72265625 c 6
 17.5 65.72265625 l 5
 26 65.72265625 l 5
 17.5 57.22265625 l 5
 17.5 25.72265625 l 5
 21 23.22265625 l 5
 21 23.22265625 23.525390625 21.7197265625 26 23.22265625 c 5
 24.2763671875 20.2607421875 18.5126953125 13.3994140625 11 13.22265625 c 5
 7.5 15.72265625 l 5
 7.5 55.72265625 l 5
 0 55.72265625 l 5
 7.5 63.22265625 l 5
 7.5 68.71875 l 6
 5.9765625 68.2021484375 3.5 66.22265625 3.5 66.22265625 c 5
 3.5 66.22265625 13.8623046875 80.3408203125 16.978515625 79.994140625 c 4
EndSplineSet
EndUndoOperation
EndUndoes
Redoes
EndRedoes
EndUndoRedoHistory
Fore
SplineSet
12.978515625 66.771484375 m 0
 13.1865234375 66.748046875 13.3623046875 66.66015625 13.5 66.5 c 2
 13.5 52.5 l 1
 22 52.5 l 1
 13.5 44 l 1
 13.5 12.5 l 1
 17 10 l 1
 17 10 19.525390625 8.4970703125 22 10 c 1
 20.2763671875 7.0380859375 14.5126953125 0.1767578125 7 0 c 1
 3.5 2.5 l 1
 3.5 42.5 l 1
 -4 42.5 l 1
 3.5 50 l 1
 3.5 55.49609375 l 2
 1.9765625 54.9794921875 -0.5 53 -0.5 53 c 1
 -0.5 53 9.8623046875 67.1181640625 12.978515625 66.771484375 c 0
EndSplineSet
EndChar

StartChar: u
Encoding: 117 117 20
Width: 42
VWidth: 0
Flags: HW
LayerCount: 2
UndoRedoHistory
Layer: 1
Undoes
UndoOperation
Index: 0
Type: 7
WasModified: 1
WasOrder2: 0
Layer: 2
Width: 112
EndUndoOperation
EndUndoes
Redoes
EndRedoes
EndUndoRedoHistory
Fore
SplineSet
9 55 m 5
 17 47 l 5
 13.947265625 43.947265625 l 5
 13.947265625 21.4921875 l 5
 26.5390625 11.337890625 l 5
 26.947265625 11.74609375 l 5
 26.947265625 44.03515625 l 5
 23.982421875 47 l 5
 31.982421875 55 l 5
 39.982421875 47 l 5
 36.947265625 43.96484375 l 5
 36.947265625 10 l 5
 36.947265625 10 39.47265625 8.4970703125 41.947265625 10 c 5
 40.2236328125 7.0390625 34.4599609375 0.1767578125 26.947265625 0 c 5
 26.947265625 8.75 l 5
 18.197265625 0 l 5
 17.919921875 0.22265625 l 5
 17.697265625 0 l 5
 16.453125 1.248046875 l 5
 16.541015625 1.3359375 l 5
 2.697265625 12.5 l 5
 3.947265625 13.75 l 5
 3.947265625 44.052734375 l 5
 1 47 l 5
 9 55 l 5
EndSplineSet
Validated: 33
EndChar

StartChar: v
Encoding: 118 118 21
Width: 42
VWidth: 0
Flags: HW
LayerCount: 2
UndoRedoHistory
Layer: 1
Undoes
UndoOperation
Index: 0
Type: 7
WasModified: 1
WasOrder2: 0
Layer: 2
Width: 112
EndUndoOperation
EndUndoes
Redoes
EndRedoes
EndUndoRedoHistory
Fore
SplineSet
9 55 m 5
 17 47 l 5
 13.822265625 43.822265625 l 5
 13.822265625 25 l 5
 27.57421875 11.248046875 l 5
 28.822265625 12.49609375 l 5
 28.822265625 44.431640625 l 5
 26.25390625 47 l 5
 34.25390625 55 l 5
 42.25390625 47 l 5
 38.822265625 43.568359375 l 5
 38.822265625 22.5 l 5
 38.822265625 20 l 5
 18.822265625 0 l 5
 2.822265625 16 l 5
 3.822265625 17 l 5
 3.822265625 44.177734375 l 5
 1 47 l 5
 9 55 l 5
EndSplineSet
Validated: 1
EndChar

StartChar: w
Encoding: 119 119 22
Width: 48
VWidth: 0
Flags: HW
LayerCount: 2
UndoRedoHistory
Layer: 1
Undoes
UndoOperation
Index: 0
Type: 1
WasModified: 1
WasOrder2: 0
Layer: 2
Width: 46
VWidth: 0
LBearingChange: 0
UnicodeEnc: 0
InstructionsLength: 0
SplineSet
6.98828125 55.5625 m 1
 14.98828125 47.5625 l 1
 12 44.57421875 l 1
 12 17.5625 l 1
 19 11 l 1
 19 44.513671875 l 1
 15.951171875 47.5625 l 1
 23.951171875 55.5625 l 1
 31.951171875 47.5625 l 1
 29 44.611328125 l 1
 29 17.5625 l 1
 36 11 l 1
 36 44.6015625 l 1
 33.0390625 47.5625 l 1
 41.0390625 55.5625 l 1
 49.0390625 47.5625 l 1
 46 44.5234375 l 1
 46 19.908203125 l 1
 46 19.03515625 l 1
 46 17.908203125 l 1
 27.33984375 -0.283203125 l 1
 26.08984375 0.966796875 l 1
 26.12890625 1.00390625 l 1
 19.01953125 8.68359375 l 1
 19 8.669921875 l 1
 19 8.705078125 l 1
 18.828125 8.890625 l 1
 10 0.0625 l 1
 -0.5 10.5625 l 1
 2 12.705078125 l 1
 2 44.55078125 l 1
 -1.01171875 47.5625 l 1
 6.98828125 55.5625 l 1
EndSplineSet
EndUndoOperation
EndUndoes
Redoes
EndRedoes
EndUndoRedoHistory
Fore
SplineSet
6.98828125 55.5625 m 1
 14.98828125 47.5625 l 1
 12 44.57421875 l 1
 12 17.5625 l 1
 19 11 l 1
 19 44.513671875 l 1
 15.951171875 47.5625 l 1
 23.951171875 55.5625 l 1
 31.951171875 47.5625 l 1
 29 44.611328125 l 1
 29 17.5625 l 1
 36 11 l 1
 36 44.6015625 l 1
 33.0390625 47.5625 l 1
 41.0390625 55.5625 l 1
 49.0390625 47.5625 l 1
 46 44.5234375 l 1
 46 19.908203125 l 1
 46 19.03515625 l 1
 46 17.908203125 l 1
 27.33984375 -0.283203125 l 1
 26.08984375 0.966796875 l 1
 26.12890625 1.00390625 l 1
 19.01953125 8.68359375 l 1
 19 8.669921875 l 1
 19 8.705078125 l 1
 18.828125 8.890625 l 1
 10 0.0625 l 1
 -0.5 10.5625 l 1
 2 12.705078125 l 1
 2 44.55078125 l 1
 -1.01171875 47.5625 l 1
 6.98828125 55.5625 l 1
EndSplineSet
Validated: 1
EndChar

StartChar: x
Encoding: 120 120 23
Width: 42
VWidth: 0
Flags: HW
LayerCount: 2
UndoRedoHistory
Layer: 1
Undoes
UndoOperation
Index: 0
Type: 7
WasModified: 1
WasOrder2: 0
Layer: 2
Width: 112
EndUndoOperation
EndUndoes
Redoes
EndRedoes
EndUndoRedoHistory
Fore
SplineSet
9.01953125 56.61328125 m 5
 17.01953125 48.61328125 l 5
 13.9765625 45.5703125 l 5
 13.9765625 42.36328125 l 5
 25.03515625 34.068359375 l 5
 28.9765625 37.8984375 l 5
 28.9765625 45.25390625 l 5
 25.6171875 48.61328125 l 5
 33.6171875 56.61328125 l 5
 41.6171875 48.61328125 l 5
 33.6171875 40.61328125 l 5
 33.546875 40.68359375 l 5
 28.9765625 36.11328125 l 5
 26.119140625 33.255859375 l 5
 38.9765625 23.61328125 l 5
 38.9765625 11.025390625 l 5
 42.001953125 8 l 5
 34.001953125 0 l 5
 26.001953125 8 l 5
 28.9765625 10.974609375 l 5
 28.9765625 13.61328125 l 5
 16.119140625 23.255859375 l 5
 13.9765625 21.11328125 l 5
 13.9765625 11.0234375 l 5
 17 8 l 5
 9 0 l 5
 1 8 l 5
 3.9765625 10.9765625 l 5
 3.9765625 13.61328125 l 5
 4.056640625 13.685546875 l 5
 14.87109375 24.193359375 l 5
 3.9765625 32.36328125 l 5
 3.9765625 45.65625 l 5
 1.01953125 48.61328125 l 5
 9.01953125 56.61328125 l 5
EndSplineSet
Validated: 1
EndChar

StartChar: y
Encoding: 121 121 24
Width: 38
VWidth: 0
Flags: HW
LayerCount: 2
UndoRedoHistory
Layer: 1
Undoes
UndoOperation
Index: 0
Type: 1
WasModified: 1
WasOrder2: 0
Layer: 2
Width: 38
VWidth: 0
LBearingChange: 0
UnicodeEnc: 0
InstructionsLength: 0
SplineSet
6.9765625 54.5 m 1
 14.9765625 46.5 l 1
 12 43.5234375 l 1
 12 26 l 1
 25 13.43359375 l 1
 25 43.32421875 l 1
 21.82421875 46.5 l 1
 29.82421875 54.5 l 1
 37.82421875 46.5 l 1
 35 43.67578125 l 1
 35 21.470703125 l 1
 36.296875 22.7109375 l 1
 37.70703125 21.29296875 l 1
 35 18.705078125 l 1
 35 -15 l 1
 30 -20 l 1
 20 -30 l 1
 5 -15 l 2
 4.1162109375 -14.2041015625 0 -17.5 0 -17.5 c 1
 0 -17.5 11.7900390625 -1.4365234375 14 -4 c 2
 25 -15 l 1
 25 9.146484375 l 1
 17 1.5 l 1
 2 16 l 1
 2 43.4765625 l 1
 -1.0234375 46.5 l 1
 6.9765625 54.5 l 1
53.5 47.5 m 5
 53.5 45.5 l 5
 48.5 41 l 5
 48.5 42.5 l 5
 53.5 47.5 l 5
EndSplineSet
EndUndoOperation
EndUndoes
Redoes
EndRedoes
EndUndoRedoHistory
Fore
SplineSet
6.9765625 54.5 m 1
 14.9765625 46.5 l 1
 12 43.5234375 l 1
 12 26 l 1
 25 13.43359375 l 1
 25 43.32421875 l 1
 21.82421875 46.5 l 1
 29.82421875 54.5 l 1
 37.82421875 46.5 l 1
 35 43.67578125 l 1
 35 21.470703125 l 1
 36.296875 22.7109375 l 1
 37.70703125 21.29296875 l 1
 35 18.705078125 l 1
 35 -15 l 1
 30 -20 l 1
 20 -30 l 1
 5 -15 l 2
 4.1162109375 -14.2041015625 0 -17.5 0 -17.5 c 1
 0 -17.5 11.7900390625 -1.4365234375 14 -4 c 2
 25 -15 l 1
 25 9.146484375 l 1
 17 1.5 l 1
 2 16 l 1
 2 43.4765625 l 1
 -1.0234375 46.5 l 1
 6.9765625 54.5 l 1
EndSplineSet
EndChar

StartChar: z
Encoding: 122 122 25
Width: 44
VWidth: 0
Flags: HW
LayerCount: 2
UndoRedoHistory
Layer: 1
Undoes
UndoOperation
Index: 0
Type: 1
WasModified: 1
WasOrder2: 0
Layer: 2
Width: 44
VWidth: 0
LBearingChange: -2
UnicodeEnc: 0
InstructionsLength: 0
SplineSet
11.5 55 m 5
 46.5 55 l 5
 49 55 l 5
 47.75 53.75 l 5
 31.267578125 35 l 5
 39.03515625 35 l 5
 29.03515625 25 l 5
 22.4765625 25 l 5
 9.291015625 10 l 5
 44.5 10 l 5
 46.5 12 l 5
 46.5 10.5 l 5
 46 10 l 5
 36 0 l 5
 0.5 0 l 5
 -2 0 l 5
 20.044921875 25 l 5
 9.03515625 25 l 5
 19.03515625 35 l 5
 28.86328125 35 l 5
 37.681640625 45 l 5
 1.5 45 l 5
 11.5 55 l 5
EndSplineSet
EndUndoOperation
EndUndoes
Redoes
EndRedoes
EndUndoRedoHistory
Fore
SplineSet
10 55 m 5
 45 55 l 5
 47.5 55 l 5
 46.25 53.75 l 5
 29.767578125 35 l 5
 37.53515625 35 l 5
 27.53515625 25 l 5
 20.9765625 25 l 5
 7.791015625 10 l 5
 43 10 l 5
 45 12 l 5
 45 10.5 l 5
 44.5 10 l 5
 34.5 0 l 5
 -1 0 l 5
 -3.5 0 l 5
 18.544921875 25 l 5
 7.53515625 25 l 5
 17.53515625 35 l 5
 27.36328125 35 l 5
 36.181640625 45 l 5
 0 45 l 5
 10 55 l 5
EndSplineSet
Validated: 1
EndChar

StartChar: A
Encoding: 65 65 26
Width: 68
VWidth: 0
Flags: HW
LayerCount: 2
UndoRedoHistory
Layer: 1
Undoes
UndoOperation
Index: 0
Type: 1
WasModified: 1
WasOrder2: 0
Layer: 2
Width: 68
VWidth: 0
LBearingChange: 0
UnicodeEnc: 0
InstructionsLength: 0
SplineSet
40.462890625 79.93359375 m 5
 40.462890625 79.93359375 l 6
 42.0927734375 79.9462890625 43.50390625 79.716796875 44.626953125 79.216796875 c 4
 45.7939453125 79.125 46.9599609375 78.994140625 48.11328125 78.7578125 c 4
 51.7626953125 77.3349609375 55.2353515625 74.80859375 57.9140625 71.275390625 c 4
 61.546875 66.1796875 65.0224609375 59.939453125 65.96484375 53.05078125 c 6
 65.912109375 9.087890625 l 5
 69 6 l 5
 61 -2 l 5
 55.935546875 3.064453125 l 5
 55.91015625 3.05078125 l 5
 55.91015625 3.08984375 l 5
 53 6 l 5
 55.91015625 8.91015625 l 5
 55.91015625 28.05078125 l 5
 43.52734375 28.05078125 l 5
 43.52734375 6.87109375 l 5
 42.52734375 6.87109375 l 5
 42.52734375 28.05078125 l 5
 29.96484375 28.05078125 l 5
 22.96484375 28.05078125 l 5
 22.96484375 9.30859375 l 5
 26.2734375 6 l 5
 18.2734375 -2 l 5
 13.13671875 3.13671875 l 5
 12.96484375 3.05078125 l 5
 12.96484375 3.30859375 l 5
 10.2734375 6 l 5
 12.96484375 8.6904296875 l 5
 12.96484375 44.55078125 l 5
 12.96484375 47.55078125 l 6
 15.5830078125 57.109375 20.796875 65.37890625 27.078125 71.3896484375 c 5
 21.9658203125 71.5341796875 15.3876953125 69.078125 12.01171875 67.74609375 c 4
 10.8974609375 67.3388671875 9.0849609375 66.1103515625 8.59375 65.8232421875 c 5
 13.4345703125 71.4892578125 30.685546875 79.859375 40.462890625 79.93359375 c 5
34.662109375 69.3779296875 m 4
 31.53515625 69.3740234375 28.2529296875 68.4912109375 25.666015625 66.1279296875 c 4
 24.5859375 65.154296875 23.703125 63.9892578125 22.96484375 62.701171875 c 6
 22.96484375 51.87109375 l 5
 42.52734375 51.87109375 l 5
 42.52734375 67.16796875 l 6
 40.0634765625 68.556640625 37.4111328125 69.3662109375 34.662109375 69.3779296875 c 4
43.52734375 66.572265625 m 5
 43.52734375 38.05078125 l 5
 55.91015625 38.05078125 l 5
 55.91015625 49.048828125 l 6
 55.2822265625 50.712890625 54.5966796875 52.341796875 53.845703125 53.89453125 c 4
 51.4599609375 59.23828125 47.8232421875 63.80859375 43.52734375 66.572265625 c 5
13.96484375 57.05078125 m 5
 12.96484375 56.55078125 9.96484375 51.55078125 9.96484375 50.55078125 c 6
 9.96484375 15.05078125 l 6
 9.96484375 10.05078125 -2.53515625 -1.44921875 -4.03515625 -1.44921875 c 5
 -3.03515625 -0.94921875 -0.03515625 4.05078125 -0.03515625 5.05078125 c 6
 -0.03515625 15.51953125 l 6
 -2.6171875 15.365234375 -7.595703125 13.4892578125 -8.53515625 12.55078125 c 5
 -8.53515625 14.8984375 -2.8037109375 19.890625 -0.03515625 20.490234375 c 6
 -0.03515625 30.51953125 l 6
 -2.6171875 30.365234375 -7.595703125 28.4892578125 -8.53515625 27.55078125 c 5
 -8.53515625 29.8984375 -2.8037109375 34.890625 -0.03515625 35.490234375 c 6
 -0.03515625 40.55078125 l 6
 -0.03515625 45.55078125 12.46484375 57.05078125 13.96484375 57.05078125 c 5
22.96484375 50.87109375 m 5
 42.52734375 50.87109375 l 5
 42.52734375 48.37109375 l 5
 22.96484375 48.37109375 l 5
 22.96484375 50.87109375 l 5
22.96484375 47.37109375 m 5
 22.96484375 38.05078125 l 5
 42.52734375 38.05078125 l 5
 42.52734375 47.37109375 l 5
 22.96484375 47.37109375 l 5
EndSplineSet
EndUndoOperation
EndUndoes
Redoes
EndRedoes
EndUndoRedoHistory
Fore
SplineSet
40.462890625 80.93359375 m 5
 40.462890625 80.93359375 l 6
 42.0927734375 80.9462890625 43.50390625 80.716796875 44.626953125 80.216796875 c 4
 45.7939453125 80.125 46.9599609375 79.994140625 48.11328125 79.7578125 c 4
 51.7626953125 78.3349609375 55.2353515625 75.80859375 57.9140625 72.275390625 c 4
 61.546875 67.1796875 65.0224609375 60.939453125 65.96484375 54.05078125 c 6
 65.912109375 10.087890625 l 5
 69 7 l 5
 61 -1 l 5
 55.935546875 4.064453125 l 5
 55.91015625 4.05078125 l 5
 55.91015625 4.08984375 l 5
 53 7 l 5
 55.91015625 9.91015625 l 5
 55.91015625 29.05078125 l 5
 43.52734375 29.05078125 l 5
 43.52734375 7.87109375 l 5
 42.52734375 7.87109375 l 5
 42.52734375 29.05078125 l 5
 29.96484375 29.05078125 l 5
 22.96484375 29.05078125 l 5
 22.96484375 10.30859375 l 5
 26.2734375 7 l 5
 18.2734375 -1 l 5
 13.13671875 4.13671875 l 5
 12.96484375 4.05078125 l 5
 12.96484375 4.30859375 l 5
 10.2734375 7 l 5
 12.96484375 9.6904296875 l 5
 12.96484375 45.55078125 l 5
 12.96484375 48.55078125 l 6
 15.5830078125 58.109375 20.796875 66.37890625 27.078125 72.3896484375 c 5
 21.9658203125 72.5341796875 15.3876953125 70.078125 12.01171875 68.74609375 c 4
 10.8974609375 68.3388671875 9.0849609375 67.1103515625 8.59375 66.8232421875 c 5
 13.4345703125 72.4892578125 30.685546875 80.859375 40.462890625 80.93359375 c 5
34.662109375 70.3779296875 m 4
 31.53515625 70.3740234375 28.2529296875 69.4912109375 25.666015625 67.1279296875 c 4
 24.5859375 66.154296875 23.703125 64.9892578125 22.96484375 63.701171875 c 6
 22.96484375 52.87109375 l 5
 42.52734375 52.87109375 l 5
 42.52734375 68.16796875 l 6
 40.0634765625 69.556640625 37.4111328125 70.3662109375 34.662109375 70.3779296875 c 4
43.52734375 67.572265625 m 5
 43.52734375 39.05078125 l 5
 55.91015625 39.05078125 l 5
 55.91015625 50.048828125 l 6
 55.2822265625 51.712890625 54.5966796875 53.341796875 53.845703125 54.89453125 c 4
 51.4599609375 60.23828125 47.8232421875 64.80859375 43.52734375 67.572265625 c 5
13.96484375 58.05078125 m 5
 12.96484375 57.55078125 9.96484375 52.55078125 9.96484375 51.55078125 c 6
 9.96484375 16.05078125 l 6
 9.96484375 11.05078125 -2.53515625 -0.44921875 -4.03515625 -0.44921875 c 5
 -3.03515625 0.05078125 -0.03515625 5.05078125 -0.03515625 6.05078125 c 6
 -0.03515625 16.51953125 l 6
 -2.6171875 16.365234375 -7.595703125 14.4892578125 -8.53515625 13.55078125 c 5
 -8.53515625 15.8984375 -2.8037109375 20.890625 -0.03515625 21.490234375 c 6
 -0.03515625 31.51953125 l 6
 -2.6171875 31.365234375 -7.595703125 29.4892578125 -8.53515625 28.55078125 c 5
 -8.53515625 30.8984375 -2.8037109375 35.890625 -0.03515625 36.490234375 c 6
 -0.03515625 41.55078125 l 6
 -0.03515625 46.55078125 12.46484375 58.05078125 13.96484375 58.05078125 c 5
22.96484375 51.87109375 m 5
 42.52734375 51.87109375 l 5
 42.52734375 49.37109375 l 5
 22.96484375 49.37109375 l 5
 22.96484375 51.87109375 l 5
22.96484375 48.37109375 m 5
 22.96484375 39.05078125 l 5
 42.52734375 39.05078125 l 5
 42.52734375 48.37109375 l 5
 22.96484375 48.37109375 l 5
EndSplineSet
EndChar

StartChar: B
Encoding: 66 66 27
Width: 59
VWidth: 0
Flags: HW
LayerCount: 2
UndoRedoHistory
Layer: 1
Undoes
UndoOperation
Index: 0
Type: 1
WasModified: 1
WasOrder2: 0
Layer: 2
Width: 65
VWidth: 0
LBearingChange: 0
UnicodeEnc: 0
InstructionsLength: 0
SplineSet
33.671875 81.58203125 m 1
 34.37890625 80.875 l 2
 39.3837890625 80.8701171875 56.875 70.8740234375 56.875 65.875 c 2
 56.875 50.875 l 1
 56.875 49.875 l 1
 48.59765625 42.544921875 l 2
 51.7890625 40.1552734375 56.875 33.375 56.875 33.375 c 1
 56.875 20.931640625 l 1
 57.375 21.375 l 1
 57.375 19.875 l 1
 56.875 19.431640625 l 1
 56.875 19.375 l 1
 56.875 17.875 l 1
 39.375 2.375 l 2
 37.4814453125 0.0078125 19.4541015625 -0.1162109375 15 2 c 1
 13.875 0.875 l 1
 13.875 60.875 l 1
 14.125 61.125 l 1
 13.666015625 61.583984375 l 1
 22.9609375 70.875 l 1
 16.375 70.875 l 2
 12.375 70.875 8.6591796875 68.9033203125 5.314453125 66.7109375 c 1
 9.55859375 71.2353515625 16.875 80.875 26.375 80.875 c 2
 32.96484375 80.875 l 1
 33.671875 81.58203125 l 1
25.630859375 70.716796875 m 2
 23.875 68.9609375 l 1
 23.875 55.875 l 1
 37.875 55.875 l 1
 37.875 65.005859375 l 1
 33.4873046875 67.7939453125 28.556640625 70.123046875 25.630859375 70.716796875 c 2
15.375 67.375 m 1
 14.375 66.875 11.375 61.875 11.375 60.875 c 2
 11.375 17.375 l 2
 11.375 12.375 -1.125 1.080078125 -2.625 1.080078125 c 1
 -1.625 1.580078125 1.375 6.580078125 1.375 7.580078125 c 2
 1.375 25.84375 l 2
 -1.20703125 25.6904296875 -6.185546875 23.814453125 -7.125 22.875 c 1
 -7.125 25.22265625 -1.3935546875 30.2158203125 1.375 30.814453125 c 2
 1.375 40.84375 l 2
 -1.20703125 40.6904296875 -6.185546875 38.814453125 -7.125 37.875 c 1
 -7.125 40.22265625 -1.3935546875 45.2158203125 1.375 45.814453125 c 2
 1.375 50.875 l 2
 1.375 55.875 13.875 67.375 15.375 67.375 c 1
38.875 64.353515625 m 1
 38.875 43.375 l 1
 46.765625 43.375 l 1
 46.875 43.466796875 l 1
 46.875 55.875 l 2
 46.875 58.1416015625 43.271484375 61.4296875 38.875 64.353515625 c 1
23.875 54.875 m 1
 23.875 52.375 l 1
 37.875 52.375 l 1
 37.875 54.875 l 1
 23.875 54.875 l 1
23.875 51.375 m 1
 23.875 43.375 l 1
 37.875 43.375 l 1
 37.875 51.375 l 1
 23.875 51.375 l 1
23.875 33.375 m 1
 23.875 11.875 l 1
 24.375 12.375 l 2
 25.9306640625 11.078125 32.056640625 10.4599609375 37.875 10.5078125 c 1
 37.875 33.021484375 l 2
 37.4951171875 33.2373046875 37.150390625 33.375 36.875 33.375 c 2
 23.875 33.375 l 1
38.875 32.328125 m 2
 38.875 10.5234375 l 2
 41.44140625 10.5791015625 43.86328125 10.76953125 45.765625 11.091796875 c 2
 46.875 12.07421875 l 1
 46.875 23.375 l 1
 46.875 23.375 42.0751953125 29.7705078125 38.875 32.328125 c 2
EndSplineSet
EndUndoOperation
UndoOperation
Index: 1
Type: 1
WasModified: 1
WasOrder2: 0
Layer: 2
Width: 65
VWidth: 0
LBearingChange: -5
UnicodeEnc: 0
InstructionsLength: 0
SplineSet
38.671875 81.58203125 m 5
 39.37890625 80.875 l 6
 44.3837890625 80.8701171875 61.875 70.8740234375 61.875 65.875 c 6
 61.875 50.875 l 5
 61.875 49.875 l 5
 53.59765625 42.544921875 l 6
 56.7890625 40.1552734375 61.875 33.375 61.875 33.375 c 5
 61.875 20.931640625 l 5
 62.375 21.375 l 5
 62.375 19.875 l 5
 61.875 19.431640625 l 5
 61.875 19.375 l 5
 61.875 17.875 l 5
 44.375 2.375 l 6
 42.4814453125 0.0078125 24.4541015625 -0.1162109375 20 2 c 5
 18.875 0.875 l 5
 18.875 60.875 l 5
 19.125 61.125 l 5
 18.666015625 61.583984375 l 5
 27.9609375 70.875 l 5
 21.375 70.875 l 6
 17.375 70.875 13.6591796875 68.9033203125 10.314453125 66.7109375 c 5
 14.55859375 71.2353515625 21.875 80.875 31.375 80.875 c 6
 37.96484375 80.875 l 5
 38.671875 81.58203125 l 5
30.630859375 70.716796875 m 6
 28.875 68.9609375 l 5
 28.875 55.875 l 5
 42.875 55.875 l 5
 42.875 65.005859375 l 5
 38.4873046875 67.7939453125 33.556640625 70.123046875 30.630859375 70.716796875 c 6
20.375 67.375 m 5
 19.375 66.875 16.375 61.875 16.375 60.875 c 6
 16.375 17.375 l 6
 16.375 12.375 3.875 1.080078125 2.375 1.080078125 c 5
 3.375 1.580078125 6.375 6.580078125 6.375 7.580078125 c 6
 6.375 25.84375 l 6
 3.79296875 25.6904296875 -1.185546875 23.814453125 -2.125 22.875 c 5
 -2.125 25.22265625 3.6064453125 30.2158203125 6.375 30.814453125 c 6
 6.375 40.84375 l 6
 3.79296875 40.6904296875 -1.185546875 38.814453125 -2.125 37.875 c 5
 -2.125 40.22265625 3.6064453125 45.2158203125 6.375 45.814453125 c 6
 6.375 50.875 l 6
 6.375 55.875 18.875 67.375 20.375 67.375 c 5
43.875 64.353515625 m 5
 43.875 43.375 l 5
 51.765625 43.375 l 5
 51.875 43.466796875 l 5
 51.875 55.875 l 6
 51.875 58.1416015625 48.271484375 61.4296875 43.875 64.353515625 c 5
28.875 54.875 m 5
 28.875 52.375 l 5
 42.875 52.375 l 5
 42.875 54.875 l 5
 28.875 54.875 l 5
28.875 51.375 m 5
 28.875 43.375 l 5
 42.875 43.375 l 5
 42.875 51.375 l 5
 28.875 51.375 l 5
28.875 33.375 m 5
 28.875 11.875 l 5
 29.375 12.375 l 6
 30.9306640625 11.078125 37.056640625 10.4599609375 42.875 10.5078125 c 5
 42.875 33.021484375 l 6
 42.4951171875 33.2373046875 42.150390625 33.375 41.875 33.375 c 6
 28.875 33.375 l 5
43.875 32.328125 m 6
 43.875 10.5234375 l 6
 46.44140625 10.5791015625 48.86328125 10.76953125 50.765625 11.091796875 c 6
 51.875 12.07421875 l 5
 51.875 23.375 l 5
 51.875 23.375 47.0751953125 29.7705078125 43.875 32.328125 c 6
EndSplineSet
EndUndoOperation
UndoOperation
Index: 2
Type: 1
WasModified: 1
WasOrder2: 0
Layer: 2
Width: 65
VWidth: 0
LBearingChange: 5
UnicodeEnc: 0
InstructionsLength: 0
SplineSet
33.671875 81.58203125 m 5
 34.37890625 80.875 l 6
 39.3837890625 80.8701171875 56.875 70.8740234375 56.875 65.875 c 6
 56.875 50.875 l 5
 56.875 49.875 l 5
 48.59765625 42.544921875 l 6
 51.7890625 40.1552734375 56.875 33.375 56.875 33.375 c 5
 56.875 20.931640625 l 5
 57.375 21.375 l 5
 57.375 19.875 l 5
 56.875 19.431640625 l 5
 56.875 19.375 l 5
 56.875 17.875 l 5
 39.375 2.375 l 6
 37.4814453125 0.0078125 19.4541015625 -0.1162109375 15 2 c 5
 13.875 0.875 l 5
 13.875 60.875 l 5
 14.125 61.125 l 5
 13.666015625 61.583984375 l 5
 22.9609375 70.875 l 5
 16.375 70.875 l 6
 12.375 70.875 8.6591796875 68.9033203125 5.314453125 66.7109375 c 5
 9.55859375 71.2353515625 16.875 80.875 26.375 80.875 c 6
 32.96484375 80.875 l 5
 33.671875 81.58203125 l 5
25.630859375 70.716796875 m 6
 23.875 68.9609375 l 5
 23.875 55.875 l 5
 37.875 55.875 l 5
 37.875 65.005859375 l 5
 33.4873046875 67.7939453125 28.556640625 70.123046875 25.630859375 70.716796875 c 6
15.375 67.375 m 5
 14.375 66.875 11.375 61.875 11.375 60.875 c 6
 11.375 17.375 l 6
 11.375 12.375 -1.125 1.080078125 -2.625 1.080078125 c 5
 -1.625 1.580078125 1.375 6.580078125 1.375 7.580078125 c 6
 1.375 25.84375 l 6
 -1.20703125 25.6904296875 -6.185546875 23.814453125 -7.125 22.875 c 5
 -7.125 25.22265625 -1.3935546875 30.2158203125 1.375 30.814453125 c 6
 1.375 40.84375 l 6
 -1.20703125 40.6904296875 -6.185546875 38.814453125 -7.125 37.875 c 5
 -7.125 40.22265625 -1.3935546875 45.2158203125 1.375 45.814453125 c 6
 1.375 50.875 l 6
 1.375 55.875 13.875 67.375 15.375 67.375 c 5
38.875 64.353515625 m 5
 38.875 43.375 l 5
 46.765625 43.375 l 5
 46.875 43.466796875 l 5
 46.875 55.875 l 6
 46.875 58.1416015625 43.271484375 61.4296875 38.875 64.353515625 c 5
23.875 54.875 m 5
 23.875 52.375 l 5
 37.875 52.375 l 5
 37.875 54.875 l 5
 23.875 54.875 l 5
23.875 51.375 m 5
 23.875 43.375 l 5
 37.875 43.375 l 5
 37.875 51.375 l 5
 23.875 51.375 l 5
23.875 33.375 m 5
 23.875 11.875 l 5
 24.375 12.375 l 6
 25.9306640625 11.078125 32.056640625 10.4599609375 37.875 10.5078125 c 5
 37.875 33.021484375 l 6
 37.4951171875 33.2373046875 37.150390625 33.375 36.875 33.375 c 6
 23.875 33.375 l 5
38.875 32.328125 m 6
 38.875 10.5234375 l 6
 41.44140625 10.5791015625 43.86328125 10.76953125 45.765625 11.091796875 c 6
 46.875 12.07421875 l 5
 46.875 23.375 l 5
 46.875 23.375 42.0751953125 29.7705078125 38.875 32.328125 c 6
EndSplineSet
EndUndoOperation
UndoOperation
Index: 3
Type: 1
WasModified: 1
WasOrder2: 0
Layer: 2
Width: 65
VWidth: 0
LBearingChange: 0
UnicodeEnc: 0
InstructionsLength: 0
SplineSet
40.796875 80 m 5
 41.50390625 79.29296875 l 6
 46.5087890625 79.2880859375 64 69.2919921875 64 64.29296875 c 6
 64 49.29296875 l 5
 64 48.29296875 l 5
 55.72265625 40.962890625 l 6
 58.9140625 38.5732421875 64 31.79296875 64 31.79296875 c 5
 64 19.349609375 l 5
 64.5 19.79296875 l 5
 64.5 18.29296875 l 5
 64 17.849609375 l 5
 64 17.79296875 l 5
 64 16.29296875 l 5
 46.5 0.79296875 l 6
 44.6064453125 -1.57421875 26.5791015625 -1.6982421875 22.125 0.41796875 c 5
 21 -0.70703125 l 5
 21 59.29296875 l 5
 21.25 59.54296875 l 5
 20.791015625 60.001953125 l 5
 30.0859375 69.29296875 l 5
 23.5 69.29296875 l 6
 19.5 69.29296875 15.7841796875 67.3212890625 12.439453125 65.12890625 c 5
 16.68359375 69.6533203125 24 79.29296875 33.5 79.29296875 c 6
 40.08984375 79.29296875 l 5
 40.796875 80 l 5
32.755859375 69.134765625 m 6
 31 67.37890625 l 5
 31 54.29296875 l 5
 45 54.29296875 l 5
 45 63.423828125 l 5
 40.6123046875 66.2119140625 35.681640625 68.541015625 32.755859375 69.134765625 c 6
22.5 65.79296875 m 5
 21.5 65.29296875 18.5 60.29296875 18.5 59.29296875 c 6
 18.5 15.79296875 l 6
 18.5 10.79296875 6 -0.501953125 4.5 -0.501953125 c 5
 5.5 -0.001953125 8.5 4.998046875 8.5 5.998046875 c 6
 8.5 24.26171875 l 6
 5.91796875 24.1083984375 0.939453125 22.232421875 0 21.29296875 c 5
 0 23.640625 5.7314453125 28.6337890625 8.5 29.232421875 c 6
 8.5 39.26171875 l 6
 5.91796875 39.1083984375 0.939453125 37.232421875 0 36.29296875 c 5
 0 38.640625 5.7314453125 43.6337890625 8.5 44.232421875 c 6
 8.5 49.29296875 l 6
 8.5 54.29296875 21 65.79296875 22.5 65.79296875 c 5
46 62.771484375 m 5
 46 41.79296875 l 5
 53.890625 41.79296875 l 5
 54 41.884765625 l 5
 54 54.29296875 l 6
 54 56.5595703125 50.396484375 59.84765625 46 62.771484375 c 5
31 53.29296875 m 5
 31 50.79296875 l 5
 45 50.79296875 l 5
 45 53.29296875 l 5
 31 53.29296875 l 5
31 49.79296875 m 5
 31 41.79296875 l 5
 45 41.79296875 l 5
 45 49.79296875 l 5
 31 49.79296875 l 5
31 31.79296875 m 5
 31 10.29296875 l 5
 31.5 10.79296875 l 6
 33.0556640625 9.49609375 39.181640625 8.8779296875 45 8.92578125 c 5
 45 31.439453125 l 6
 44.6201171875 31.6552734375 44.275390625 31.79296875 44 31.79296875 c 6
 31 31.79296875 l 5
46 30.74609375 m 6
 46 8.94140625 l 6
 48.56640625 8.9970703125 50.98828125 9.1875 52.890625 9.509765625 c 6
 54 10.4921875 l 5
 54 21.79296875 l 5
 54 21.79296875 49.2001953125 28.1884765625 46 30.74609375 c 6
EndSplineSet
EndUndoOperation
UndoOperation
Index: 4
Type: 1
WasModified: 1
WasOrder2: 0
Layer: 2
Width: 65
VWidth: 0
LBearingChange: 0
UnicodeEnc: 0
InstructionsLength: 0
EndUndoOperation
UndoOperation
Index: 5
Type: 3
WasModified: 1
WasOrder2: 0
Layer: 2
EndUndoOperation
UndoOperation
Index: 6
Type: 1
WasModified: 0
WasOrder2: 0
Layer: 2
Width: 65
VWidth: 0
LBearingChange: 0
UnicodeEnc: 0
InstructionsLength: 0
SplineSet
41.796875 79.58203125 m 5
 42.50390625 78.875 l 6
 47.5087890625 78.8701171875 65 68.8740234375 65 63.875 c 6
 65 48.875 l 5
 65 47.875 l 5
 56.72265625 40.544921875 l 6
 59.9140625 38.1552734375 65 31.375 65 31.375 c 5
 65 18.931640625 l 5
 65.5 19.375 l 5
 65.5 17.875 l 5
 65 17.431640625 l 5
 65 17.375 l 5
 65 15.875 l 5
 47.5 0.375 l 6
 45.6064453125 -1.9921875 27.5791015625 -2.1162109375 23.125 0 c 5
 22 -1.125 l 5
 22 58.875 l 5
 22.25 59.125 l 5
 21.791015625 59.583984375 l 5
 41.796875 79.58203125 l 5
33.755859375 68.716796875 m 6
 32 66.9609375 l 5
 32 53.875 l 5
 46 53.875 l 5
 46 63.005859375 l 5
 41.6123046875 65.7939453125 36.681640625 68.123046875 33.755859375 68.716796875 c 6
23.5 65.375 m 5
 22.5 64.875 19.5 59.875 19.5 58.875 c 6
 19.5 15.375 l 6
 19.5 10.375 7 -0.919921875 5.5 -0.919921875 c 5
 6.5 -0.419921875 9.5 4.580078125 9.5 5.580078125 c 6
 9.5 23.84375 l 6
 6.91796875 23.6904296875 1.939453125 21.814453125 1 20.875 c 5
 1 23.22265625 6.7314453125 28.2158203125 9.5 28.814453125 c 6
 9.5 38.84375 l 6
 6.91796875 38.6904296875 1.939453125 36.814453125 1 35.875 c 5
 1 38.22265625 6.7314453125 43.2158203125 9.5 43.814453125 c 6
 9.5 48.875 l 6
 9.5 53.875 22 65.375 23.5 65.375 c 5
47 62.353515625 m 5
 47 41.375 l 5
 54.890625 41.375 l 5
 55 41.466796875 l 5
 55 53.875 l 6
 55 56.1416015625 51.396484375 59.4296875 47 62.353515625 c 5
32 52.875 m 5
 32 50.375 l 5
 46 50.375 l 5
 46 52.875 l 5
 32 52.875 l 5
32 49.375 m 5
 32 41.375 l 5
 46 41.375 l 5
 46 49.375 l 5
 32 49.375 l 5
32 31.375 m 5
 32 9.875 l 5
 32.5 10.375 l 6
 34.0556640625 9.078125 40.181640625 8.4599609375 46 8.5078125 c 5
 46 31.021484375 l 6
 45.6201171875 31.2373046875 45.275390625 31.375 45 31.375 c 6
 32 31.375 l 5
47 30.328125 m 6
 47 8.5234375 l 6
 49.56640625 8.5791015625 51.98828125 8.76953125 53.890625 9.091796875 c 6
 55 10.07421875 l 5
 55 21.375 l 5
 55 21.375 50.2001953125 27.7705078125 47 30.328125 c 6
EndSplineSet
EndUndoOperation
UndoOperation
Index: 7
Type: 7
WasModified: 1
WasOrder2: 0
Layer: 2
Width: 118
EndUndoOperation
EndUndoes
Redoes
EndRedoes
EndUndoRedoHistory
Fore
SplineSet
33.671875 81.58203125 m 1
 34.37890625 80.875 l 2
 39.3837890625 80.8701171875 56.875 70.8740234375 56.875 65.875 c 2
 56.875 50.875 l 1
 56.875 49.875 l 1
 48.59765625 42.544921875 l 2
 51.7890625 40.1552734375 56.875 33.375 56.875 33.375 c 1
 56.875 20.931640625 l 1
 57.375 21.375 l 1
 57.375 19.875 l 1
 56.875 19.431640625 l 1
 56.875 19.375 l 1
 56.875 17.875 l 1
 39.375 2.375 l 2
 37.4814453125 0.0078125 19.4541015625 -0.1162109375 15 2 c 1
 13.875 0.875 l 1
 13.875 60.875 l 1
 14.125 61.125 l 1
 13.666015625 61.583984375 l 1
 22.9609375 70.875 l 1
 16.375 70.875 l 2
 12.375 70.875 8.6591796875 68.9033203125 5.314453125 66.7109375 c 1
 9.55859375 71.2353515625 16.875 80.875 26.375 80.875 c 2
 32.96484375 80.875 l 1
 33.671875 81.58203125 l 1
25.630859375 70.716796875 m 2
 23.875 68.9609375 l 1
 23.875 55.875 l 1
 37.875 55.875 l 1
 37.875 65.005859375 l 1
 33.4873046875 67.7939453125 28.556640625 70.123046875 25.630859375 70.716796875 c 2
15.375 67.375 m 1
 14.375 66.875 11.375 61.875 11.375 60.875 c 2
 11.375 17.375 l 2
 11.375 12.375 -1.125 1.080078125 -2.625 1.080078125 c 1
 -1.625 1.580078125 1.375 6.580078125 1.375 7.580078125 c 2
 1.375 25.84375 l 2
 -1.20703125 25.6904296875 -6.185546875 23.814453125 -7.125 22.875 c 1
 -7.125 25.22265625 -1.3935546875 30.2158203125 1.375 30.814453125 c 2
 1.375 40.84375 l 2
 -1.20703125 40.6904296875 -6.185546875 38.814453125 -7.125 37.875 c 1
 -7.125 40.22265625 -1.3935546875 45.2158203125 1.375 45.814453125 c 2
 1.375 50.875 l 2
 1.375 55.875 13.875 67.375 15.375 67.375 c 1
38.875 64.353515625 m 1
 38.875 43.375 l 1
 46.765625 43.375 l 1
 46.875 43.466796875 l 1
 46.875 55.875 l 2
 46.875 58.1416015625 43.271484375 61.4296875 38.875 64.353515625 c 1
23.875 54.875 m 1
 23.875 52.375 l 1
 37.875 52.375 l 1
 37.875 54.875 l 1
 23.875 54.875 l 1
23.875 51.375 m 1
 23.875 43.375 l 1
 37.875 43.375 l 1
 37.875 51.375 l 1
 23.875 51.375 l 1
23.875 33.375 m 1
 23.875 11.875 l 1
 24.375 12.375 l 2
 25.9306640625 11.078125 32.056640625 10.4599609375 37.875 10.5078125 c 1
 37.875 33.021484375 l 2
 37.4951171875 33.2373046875 37.150390625 33.375 36.875 33.375 c 2
 23.875 33.375 l 1
38.875 32.328125 m 2
 38.875 10.5234375 l 2
 41.44140625 10.5791015625 43.86328125 10.76953125 45.765625 11.091796875 c 2
 46.875 12.07421875 l 1
 46.875 23.375 l 1
 46.875 23.375 42.0751953125 29.7705078125 38.875 32.328125 c 2
EndSplineSet
EndChar

StartChar: C
Encoding: 67 67 28
Width: 69
VWidth: 0
Flags: HW
LayerCount: 2
UndoRedoHistory
Layer: 1
Undoes
UndoOperation
Index: 0
Type: 1
WasModified: 1
WasOrder2: 0
Layer: 2
Width: 69
VWidth: 0
LBearingChange: 0
UnicodeEnc: 0
InstructionsLength: 0
EndUndoOperation
UndoOperation
Index: 1
Type: 3
WasModified: 1
WasOrder2: 0
Layer: 2
EndUndoOperation
UndoOperation
Index: 2
Type: 1
WasModified: 1
WasOrder2: 0
Layer: 2
Width: 69
VWidth: 0
LBearingChange: 0
UnicodeEnc: 0
InstructionsLength: 0
SplineSet
45.560546875 80 m 5
 58.060546875 67.5 l 6
 59.060546875 66.5 63.060546875 70 63.060546875 70 c 5
 63.060546875 70 54.4130859375 60.9619140625 51.060546875 60.310546875 c 6
 51.060546875 7.0625 l 6
 51.2314453125 7.052734375 51.5087890625 7.0380859375 51.6796875 7.03125 c 4
 56.4521484375 7.044921875 63.84765625 8.6669921875 68.1875 10.650390625 c 5
 61.7333984375 4.2265625 49.10546875 -0.9931640625 40 -1 c 4
 17.919921875 -1 0 16.919921875 0 39 c 4
 0.01953125 53.2138671875 10.5419921875 69.51171875 23.48828125 75.37890625 c 5
 16.9765625 68.91015625 11.6865234375 56.2099609375 11.6796875 47.03125 c 4
 11.705078125 25.8525390625 28.8994140625 7.96875 50.060546875 7.111328125 c 5
 50.060546875 43 l 5
 33.560546875 43 l 5
 33.560546875 39 l 6
 33.560546875 35.5 21.060546875 24 21.060546875 24 c 5
 21.060546875 24 23.560546875 27.5 23.560546875 29 c 6
 23.560546875 58 l 5
 31.060546875 65.5 l 5
 38.060546875 72.5 l 5
 45.560546875 80 l 5
38.810546875 71.75 m 5
 33.560546875 66.5 l 5
 33.560546875 47.5 l 5
 50.060546875 47.5 l 5
 50.060546875 60.5 l 5
 38.810546875 71.75 l 5
33.560546875 46.5 m 5
 33.560546875 44 l 5
 50.060546875 44 l 5
 50.060546875 46.5 l 5
 33.560546875 46.5 l 5
EndSplineSet
EndUndoOperation
UndoOperation
Index: 3
Type: 1
WasModified: 1
WasOrder2: 0
Layer: 2
Width: 69
VWidth: 0
LBearingChange: 0
UnicodeEnc: 0
InstructionsLength: 0
EndUndoOperation
UndoOperation
Index: 4
Type: 3
WasModified: 1
WasOrder2: 0
Layer: 2
EndUndoOperation
UndoOperation
Index: 5
Type: 1
WasModified: 0
WasOrder2: 0
Layer: 2
Width: 69
VWidth: 0
LBearingChange: 0
UnicodeEnc: 0
InstructionsLength: 0
SplineSet
46.560546875 80 m 5
 59.060546875 67.5 l 5
 52.060546875 60.5 l 5
 52.060546875 7.0625 l 6
 52.2314453125 7.052734375 52.5087890625 7.0380859375 52.6796875 7.03125 c 4
 57.4521484375 7.044921875 64.84765625 8.6669921875 69.1875 10.650390625 c 5
 62.7333984375 4.2265625 50.10546875 -0.9931640625 41 -1 c 4
 18.919921875 -1 1 16.919921875 1 39 c 4
 1.01953125 53.2138671875 11.5419921875 69.51171875 24.48828125 75.37890625 c 5
 17.9765625 68.91015625 12.6865234375 56.2099609375 12.6796875 47.03125 c 4
 12.705078125 25.8525390625 29.8994140625 7.96875 51.060546875 7.111328125 c 5
 51.060546875 43 l 5
 34.560546875 43 l 5
 34.560546875 39 l 5
 24.560546875 29 l 5
 24.560546875 58 l 5
 32.060546875 65.5 l 5
 39.060546875 72.5 l 5
 46.560546875 80 l 5
39.810546875 71.75 m 5
 34.560546875 66.5 l 5
 34.560546875 47.5 l 5
 51.060546875 47.5 l 5
 51.060546875 60.5 l 5
 39.810546875 71.75 l 5
34.560546875 46.5 m 5
 34.560546875 44 l 5
 51.060546875 44 l 5
 51.060546875 46.5 l 5
 34.560546875 46.5 l 5
EndSplineSet
EndUndoOperation
UndoOperation
Index: 6
Type: 7
WasModified: 1
WasOrder2: 0
Layer: 2
Width: 111
EndUndoOperation
EndUndoes
Redoes
EndRedoes
EndUndoRedoHistory
Fore
SplineSet
45.560546875 80 m 1
 58.060546875 67.5 l 2
 59.060546875 66.5 63.060546875 70 63.060546875 70 c 1
 63.060546875 70 54.4130859375 60.9619140625 51.060546875 60.310546875 c 2
 51.060546875 7.0625 l 2
 51.2314453125 7.052734375 51.5087890625 7.0380859375 51.6796875 7.03125 c 0
 56.4521484375 7.044921875 63.84765625 8.6669921875 68.1875 10.650390625 c 1
 61.7333984375 4.2265625 49.10546875 -0.9931640625 40 -1 c 0
 17.919921875 -1 0 16.919921875 0 39 c 0
 0.01953125 53.2138671875 10.5419921875 69.51171875 23.48828125 75.37890625 c 1
 16.9765625 68.91015625 11.6865234375 56.2099609375 11.6796875 47.03125 c 0
 11.705078125 25.8525390625 28.8994140625 7.96875 50.060546875 7.111328125 c 1
 50.060546875 43 l 1
 33.560546875 43 l 1
 33.560546875 39 l 2
 33.560546875 35.5 21.060546875 24 21.060546875 24 c 1
 21.060546875 24 23.560546875 27.5 23.560546875 29 c 2
 23.560546875 38.6484375 l 2
 20.9658203125 38.02734375 17.7900390625 36.728515625 17.060546875 36 c 1
 17.060546875 37.8671875 20.68359375 41.4033203125 23.560546875 43.076171875 c 2
 23.560546875 46.1484375 l 2
 20.9658203125 45.52734375 17.7900390625 44.228515625 17.060546875 43.5 c 1
 17.060546875 45.3671875 20.68359375 48.9033203125 23.560546875 50.576171875 c 2
 23.560546875 58 l 1
 31.060546875 65.5 l 1
 38.060546875 72.5 l 1
 45.560546875 80 l 1
38.810546875 71.75 m 1
 33.560546875 66.5 l 1
 33.560546875 47.5 l 1
 50.060546875 47.5 l 1
 50.060546875 60.5 l 1
 38.810546875 71.75 l 1
33.560546875 46.5 m 1
 33.560546875 44 l 1
 50.060546875 44 l 1
 50.060546875 46.5 l 1
 33.560546875 46.5 l 1
EndSplineSet
EndChar

StartChar: D
Encoding: 68 68 29
Width: 59
VWidth: 0
Flags: HW
LayerCount: 2
UndoRedoHistory
Layer: 1
Undoes
UndoOperation
Index: 0
Type: 1
WasModified: 1
WasOrder2: 0
Layer: 2
Width: 65
VWidth: 0
LBearingChange: 0
UnicodeEnc: 0
InstructionsLength: 0
SplineSet
34.296875 80.70703125 m 1
 35.00390625 80 l 1
 35.5 80 l 1
 35.453125 79.953125 l 1
 40.94140625 79.451171875 57.5 69.8681640625 57.5 65 c 2
 57.5 20 l 1
 57.5 18.5 l 1
 38 0 l 2
 36.5 -1 15.5 -1 14.5 0 c 2
 14.5 60 l 1
 14.75 60.25 l 1
 14.291015625 60.708984375 l 1
 23.5859375 70 l 1
 18 70 l 2
 14 70 10.2841796875 68.0283203125 6.939453125 65.8359375 c 1
 11.18359375 70.3603515625 18.5 80 28 80 c 2
 33.58984375 80 l 1
 34.296875 80.70703125 l 1
26.255859375 69.841796875 m 2
 24.5 68.0859375 l 1
 24.5 44.5 l 1
 38.5 44.5 l 1
 38.5 64.130859375 l 1
 34.1123046875 66.9189453125 29.181640625 69.248046875 26.255859375 69.841796875 c 2
16 66.5 m 1
 15 66 12 61 12 60 c 2
 12 16.5 l 2
 12 11.5 -0.5 0.205078125 -2 0.205078125 c 1
 -1 0.705078125 2 5.705078125 2 6.705078125 c 2
 2 24.96875 l 2
 -0.58203125 24.8154296875 -5.560546875 22.939453125 -6.5 22 c 1
 -6.5 24.34765625 -0.7685546875 29.3408203125 2 29.939453125 c 2
 2 39.96875 l 2
 -0.58203125 39.8154296875 -5.560546875 37.939453125 -6.5 37 c 1
 -6.5 39.34765625 -0.7685546875 44.3408203125 2 44.939453125 c 2
 2 50 l 2
 2 55 14.5 66.5 16 66.5 c 1
39.5 63.478515625 m 1
 39.5 8.865234375 l 2
 42.91015625 8.9345703125 45.8203125 9.2216796875 46.802734375 9.8515625 c 2
 47.5 10.513671875 l 1
 47.5 55 l 2
 47.5 57.2666015625 43.896484375 60.5546875 39.5 63.478515625 c 1
24.5 43.5 m 1
 24.5 41 l 1
 38.5 41 l 1
 38.5 43.5 l 1
 24.5 43.5 l 1
24.5 40 m 1
 24.5 10 l 2
 25.1005859375 9.3994140625 32.353515625 8.8125 38.5 8.861328125 c 1
 38.5 40 l 1
 24.5 40 l 1
EndSplineSet
EndUndoOperation
UndoOperation
Index: 1
Type: 1
WasModified: 1
WasOrder2: 0
Layer: 2
Width: 65
VWidth: 0
LBearingChange: 0
UnicodeEnc: 0
InstructionsLength: 0
SplineSet
40.796875 80 m 5
 41.50390625 79.29296875 l 5
 42 79.29296875 l 5
 41.953125 79.24609375 l 5
 47.44140625 78.744140625 64 69.1611328125 64 64.29296875 c 6
 64 19.29296875 l 5
 64 17.79296875 l 5
 44.5 -0.70703125 l 6
 43 -1.70703125 22 -1.70703125 21 -0.70703125 c 6
 21 59.29296875 l 5
 21.25 59.54296875 l 5
 20.791015625 60.001953125 l 5
 30.0859375 69.29296875 l 5
 24.5 69.29296875 l 6
 20.5 69.29296875 16.7841796875 67.3212890625 13.439453125 65.12890625 c 5
 17.68359375 69.6533203125 25 79.29296875 34.5 79.29296875 c 6
 40.08984375 79.29296875 l 5
 40.796875 80 l 5
32.755859375 69.134765625 m 6
 31 67.37890625 l 5
 31 43.79296875 l 5
 45 43.79296875 l 5
 45 63.423828125 l 5
 40.6123046875 66.2119140625 35.681640625 68.541015625 32.755859375 69.134765625 c 6
22.5 65.79296875 m 5
 21.5 65.29296875 18.5 60.29296875 18.5 59.29296875 c 6
 18.5 15.79296875 l 6
 18.5 10.79296875 6 -0.501953125 4.5 -0.501953125 c 5
 5.5 -0.001953125 8.5 4.998046875 8.5 5.998046875 c 6
 8.5 24.26171875 l 6
 5.91796875 24.1083984375 0.939453125 22.232421875 0 21.29296875 c 5
 0 23.640625 5.7314453125 28.6337890625 8.5 29.232421875 c 6
 8.5 39.26171875 l 6
 5.91796875 39.1083984375 0.939453125 37.232421875 0 36.29296875 c 5
 0 38.640625 5.7314453125 43.6337890625 8.5 44.232421875 c 6
 8.5 49.29296875 l 6
 8.5 54.29296875 21 65.79296875 22.5 65.79296875 c 5
46 62.771484375 m 5
 46 8.158203125 l 6
 49.41015625 8.2275390625 52.3203125 8.5146484375 53.302734375 9.14453125 c 6
 54 9.806640625 l 5
 54 54.29296875 l 6
 54 56.5595703125 50.396484375 59.84765625 46 62.771484375 c 5
31 42.79296875 m 5
 31 40.29296875 l 5
 45 40.29296875 l 5
 45 42.79296875 l 5
 31 42.79296875 l 5
31 39.29296875 m 5
 31 9.29296875 l 6
 31.6005859375 8.6923828125 38.853515625 8.10546875 45 8.154296875 c 5
 45 39.29296875 l 5
 31 39.29296875 l 5
EndSplineSet
EndUndoOperation
UndoOperation
Index: 2
Type: 1
WasModified: 1
WasOrder2: 0
Layer: 2
Width: 65
VWidth: 0
LBearingChange: 0
UnicodeEnc: 0
InstructionsLength: 0
EndUndoOperation
UndoOperation
Index: 3
Type: 3
WasModified: 1
WasOrder2: 0
Layer: 2
EndUndoOperation
UndoOperation
Index: 4
Type: 1
WasModified: 0
WasOrder2: 0
Layer: 2
Width: 65
VWidth: 0
LBearingChange: 0
UnicodeEnc: 0
InstructionsLength: 0
SplineSet
41.796875 80.70703125 m 5
 42.50390625 80 l 6
 47.5087890625 79.9951171875 65 69.9990234375 65 65 c 6
 65 20 l 5
 65 18.5 l 5
 45.5 0 l 6
 44 -1 23 -1 22 0 c 6
 22 60 l 5
 22.25 60.25 l 5
 21.791015625 60.708984375 l 5
 41.796875 80.70703125 l 5
33.755859375 69.841796875 m 6
 32 68.0859375 l 5
 32 44.5 l 5
 46 44.5 l 5
 46 64.130859375 l 5
 41.6123046875 66.9189453125 36.681640625 69.248046875 33.755859375 69.841796875 c 6
23.5 66.5 m 5
 22.5 66 19.5 61 19.5 60 c 6
 19.5 16.5 l 6
 19.5 11.5 7 0.205078125 5.5 0.205078125 c 5
 6.5 0.705078125 9.5 5.705078125 9.5 6.705078125 c 6
 9.5 24.96875 l 6
 6.91796875 24.8154296875 1.939453125 22.939453125 1 22 c 5
 1 24.34765625 6.7314453125 29.3408203125 9.5 29.939453125 c 6
 9.5 39.96875 l 6
 6.91796875 39.8154296875 1.939453125 37.939453125 1 37 c 5
 1 39.34765625 6.7314453125 44.3408203125 9.5 44.939453125 c 6
 9.5 50 l 6
 9.5 55 22 66.5 23.5 66.5 c 5
47 63.478515625 m 5
 47 8.865234375 l 6
 50.41015625 8.9345703125 53.3203125 9.2216796875 54.302734375 9.8515625 c 6
 55 10.513671875 l 5
 55 55 l 6
 55 57.2666015625 51.396484375 60.5546875 47 63.478515625 c 5
32 43.5 m 5
 32 41 l 5
 46 41 l 5
 46 43.5 l 5
 32 43.5 l 5
32 40 m 5
 32 10 l 6
 32.6005859375 9.3994140625 39.853515625 8.8125 46 8.861328125 c 5
 46 40 l 5
 32 40 l 5
EndSplineSet
EndUndoOperation
UndoOperation
Index: 5
Type: 7
WasModified: 1
WasOrder2: 0
Layer: 2
Width: 117
EndUndoOperation
EndUndoes
Redoes
EndRedoes
EndUndoRedoHistory
Fore
SplineSet
34.296875 80.70703125 m 1
 35.00390625 80 l 1
 35.5 80 l 1
 35.453125 79.953125 l 1
 40.94140625 79.451171875 57.5 69.8681640625 57.5 65 c 2
 57.5 20 l 1
 57.5 18.5 l 1
 38 0 l 2
 36.5 -1 15.5 -1 14.5 0 c 2
 14.5 60 l 1
 14.75 60.25 l 1
 14.291015625 60.708984375 l 1
 23.5859375 70 l 1
 18 70 l 2
 14 70 10.2841796875 68.0283203125 6.939453125 65.8359375 c 1
 11.18359375 70.3603515625 18.5 80 28 80 c 2
 33.58984375 80 l 1
 34.296875 80.70703125 l 1
26.255859375 69.841796875 m 2
 24.5 68.0859375 l 1
 24.5 44.5 l 1
 38.5 44.5 l 1
 38.5 64.130859375 l 1
 34.1123046875 66.9189453125 29.181640625 69.248046875 26.255859375 69.841796875 c 2
16 66.5 m 1
 15 66 12 61 12 60 c 2
 12 16.5 l 2
 12 11.5 -0.5 0.205078125 -2 0.205078125 c 1
 -1 0.705078125 2 5.705078125 2 6.705078125 c 2
 2 24.96875 l 2
 -0.58203125 24.8154296875 -5.560546875 22.939453125 -6.5 22 c 1
 -6.5 24.34765625 -0.7685546875 29.3408203125 2 29.939453125 c 2
 2 39.96875 l 2
 -0.58203125 39.8154296875 -5.560546875 37.939453125 -6.5 37 c 1
 -6.5 39.34765625 -0.7685546875 44.3408203125 2 44.939453125 c 2
 2 50 l 2
 2 55 14.5 66.5 16 66.5 c 1
39.5 63.478515625 m 1
 39.5 8.865234375 l 2
 42.91015625 8.9345703125 45.8203125 9.2216796875 46.802734375 9.8515625 c 2
 47.5 10.513671875 l 1
 47.5 55 l 2
 47.5 57.2666015625 43.896484375 60.5546875 39.5 63.478515625 c 1
24.5 43.5 m 1
 24.5 41 l 1
 38.5 41 l 1
 38.5 43.5 l 1
 24.5 43.5 l 1
24.5 40 m 1
 24.5 10 l 2
 25.1005859375 9.3994140625 32.353515625 8.8125 38.5 8.861328125 c 1
 38.5 40 l 1
 24.5 40 l 1
EndSplineSet
EndChar

StartChar: E
Encoding: 69 69 30
Width: 58
VWidth: 0
Flags: HW
LayerCount: 2
UndoRedoHistory
Layer: 1
Undoes
UndoOperation
Index: 0
Type: 1
WasModified: 0
WasOrder2: 0
Layer: 2
Width: 61
VWidth: 0
LBearingChange: 0
UnicodeEnc: 0
InstructionsLength: 0
SplineSet
24.5 80 m 1
 62 80 l 1
 61.8232421875 72.4873046875 51 65.5 48 65.5 c 1
 50 66.5 52 68.5 52 70 c 2
 47 70 l 1
 47 10 l 1
 54.5 10 l 2
 56 10.001953125 58 12.0009765625 59 14 c 1
 59 11 52.0126953125 0.1767578125 44.5 0 c 2
 38 0 l 1
 14.5 0 l 1
 14.5 70 l 1
 24.5 80 l 1
16 76.5 m 1
 15 76 12 71 12 70 c 2
 12 16.5 l 2
 12 11.5 -0.5 0.205078125 -2 0.205078125 c 1
 -1 0.705078125 2 5.705078125 2 6.705078125 c 2
 2 24.96875 l 2
 -0.58203125 24.8154296875 -5.560546875 22.939453125 -6.5 22 c 1
 -6.5 24.34765625 -0.7685546875 29.3408203125 2 29.939453125 c 2
 2 44.96875 l 2
 -0.58203125 44.8154296875 -5.560546875 42.939453125 -6.5 42 c 1
 -6.5 44.34765625 -0.7685546875 49.3408203125 2 49.939453125 c 2
 2 60 l 2
 2 65 14.5 76.5 16 76.5 c 1
24.5 70 m 1
 24.5 56 l 1
 46 56 l 1
 46 70 l 1
 24.5 70 l 1
24.5 55 m 1
 24.5 52.5 l 1
 46 52.5 l 1
 46 55 l 1
 24.5 55 l 1
24.5 51.5 m 1
 24.5 47.5 l 1
 44.5 47.5 l 1
 34.5 37.5 l 1
 24.5 37.5 l 1
 24.5 10 l 1
 46 10 l 1
 46 51.5 l 1
 24.5 51.5 l 1
EndSplineSet
EndUndoOperation
EndUndoes
Redoes
EndRedoes
EndUndoRedoHistory
Fore
SplineSet
24.5 80 m 1
 62 80 l 1
 61.8232421875 72.4873046875 51 65.5 48 65.5 c 1
 50 66.5 52 68.5 52 70 c 2
 47 70 l 1
 47 10 l 1
 54.5 10 l 2
 56 10.001953125 58 12.0009765625 59 14 c 1
 59 11 52.0126953125 0.1767578125 44.5 0 c 2
 38 0 l 1
 14.5 0 l 1
 14.5 70 l 1
 24.5 80 l 1
16 76.5 m 1
 15 76 12 71 12 70 c 2
 12 16.5 l 2
 12 11.5 -0.5 0.205078125 -2 0.205078125 c 1
 -1 0.705078125 2 5.705078125 2 6.705078125 c 2
 2 24.96875 l 2
 -0.58203125 24.8154296875 -5.560546875 22.939453125 -6.5 22 c 1
 -6.5 24.34765625 -0.7685546875 29.3408203125 2 29.939453125 c 2
 2 44.96875 l 2
 -0.58203125 44.8154296875 -5.560546875 42.939453125 -6.5 42 c 1
 -6.5 44.34765625 -0.7685546875 49.3408203125 2 49.939453125 c 2
 2 60 l 2
 2 65 14.5 76.5 16 76.5 c 1
24.5 70 m 1
 24.5 56 l 1
 46 56 l 1
 46 70 l 1
 24.5 70 l 1
24.5 55 m 1
 24.5 52.5 l 1
 46 52.5 l 1
 46 55 l 1
 24.5 55 l 1
24.5 51.5 m 1
 24.5 47.5 l 1
 44.5 47.5 l 1
 34.5 37.5 l 1
 24.5 37.5 l 1
 24.5 10 l 1
 46 10 l 1
 46 51.5 l 1
 24.5 51.5 l 1
EndSplineSet
EndChar

StartChar: F
Encoding: 70 70 31
Width: 70
VWidth: 0
Flags: HW
LayerCount: 2
UndoRedoHistory
Layer: 1
Undoes
UndoOperation
Index: 0
Type: 7
WasModified: 1
WasOrder2: 0
Layer: 2
Width: 116
EndUndoOperation
EndUndoes
Redoes
EndRedoes
EndUndoRedoHistory
Fore
SplineSet
32.5 80 m 5
 70 80 l 5
 69.8232421875 72.4873046875 59 65.5 56 65.5 c 5
 58 66.5 60 68.5 60 70 c 6
 55 70 l 5
 55 3.5 l 5
 54 3.5 l 5
 54 51.5 l 5
 32.5 51.5 l 5
 32.5 47.5 l 5
 52.5 47.5 l 5
 42.5 37.5 l 5
 32.5 37.5 l 5
 32.5 10 l 5
 22.501953125 0 l 5
 6 0 l 6
 5 0 2 -1.5 1 -2.5 c 5
 1 -0.5 13 10 16 10 c 6
 22.5 10 l 5
 22.5 37.5 l 5
 22.5 70 l 5
 32.5 80 l 5
24 76.5 m 5
 23 76 20 71 20 70 c 6
 20 23 l 5
 19.9765625 22.978515625 l 6
 19.48828125 17.8369140625 7.4697265625 7 6 7 c 5
 7 7.5 10 12.5 10 13.5 c 6
 10 29.96875 l 6
 7.41796875 29.8154296875 2.439453125 27.939453125 1.5 27 c 5
 1.5 29.34765625 7.2314453125 34.3408203125 10 34.939453125 c 6
 10 47.46875 l 6
 7.41796875 47.3154296875 2.439453125 45.439453125 1.5 44.5 c 5
 1.5 46.84765625 7.2314453125 51.8408203125 10 52.439453125 c 6
 10 60 l 6
 10 65 22.5 76.5 24 76.5 c 5
32.5 70 m 5
 32.5 56 l 5
 54 56 l 5
 54 70 l 5
 32.5 70 l 5
32.5 55 m 5
 32.5 52.5 l 5
 54 52.5 l 5
 54 55 l 5
 32.5 55 l 5
EndSplineSet
Validated: 1
EndChar

StartChar: G
Encoding: 71 71 32
Width: 69
VWidth: 0
Flags: HW
LayerCount: 2
UndoRedoHistory
Layer: 1
Undoes
UndoOperation
Index: 0
Type: 1
WasModified: 1
WasOrder2: 0
Layer: 2
Width: 69
VWidth: 0
LBearingChange: 0
UnicodeEnc: 0
InstructionsLength: 0
EndUndoOperation
UndoOperation
Index: 1
Type: 3
WasModified: 1
WasOrder2: 0
Layer: 2
EndUndoOperation
UndoOperation
Index: 2
Type: 1
WasModified: 0
WasOrder2: 0
Layer: 2
Width: 69
VWidth: 0
LBearingChange: 0
UnicodeEnc: 0
InstructionsLength: 0
SplineSet
46.560546875 80 m 5
 67.060546875 59 l 5
 67.26953125 58.791015625 l 5
 59.560546875 51.029296875 l 5
 59.560546875 7.69921875 l 6
 62.3212890625 8.1767578125 66.6337890625 9.4990234375 69.1875 10.650390625 c 5
 62.7333984375 4.2265625 50.10546875 -0.9931640625 41 -1 c 4
 18.919921875 -1 1 16.919921875 1 39 c 4
 1.01953125 53.2138671875 11.5419921875 69.51171875 24.48828125 75.37890625 c 5
 17.9765625 68.91015625 12.6865234375 56.2099609375 12.6796875 47.03125 c 4
 12.6953125 37.5029296875 18.34375 24.474609375 25.287109375 17.94921875 c 5
 29.560546875 22.25 l 5
 29.560546875 63 l 5
 32.060546875 65.5 l 5
 39.060546875 72.5 l 5
 46.560546875 80 l 5
39.80078125 71.740234375 m 5
 39.560546875 71.5 l 5
 39.560546875 32.318359375 l 5
 59.091796875 51.98046875 l 5
 39.80078125 71.740234375 l 5
49.560546875 40.962890625 m 5
 26.021484375 17.265625 l 5
 31.578125 12.2890625 42.1240234375 7.7744140625 49.560546875 7.1875 c 5
 49.560546875 40.962890625 l 5
EndSplineSet
EndUndoOperation
UndoOperation
Index: 3
Type: 7
WasModified: 1
WasOrder2: 0
Layer: 2
Width: 111
EndUndoOperation
EndUndoes
Redoes
EndRedoes
EndUndoRedoHistory
Fore
SplineSet
45.560546875 80 m 1
 66.060546875 59 l 1
 66.26953125 58.791015625 l 1
 58.560546875 51.029296875 l 1
 58.560546875 7.69921875 l 2
 61.3212890625 8.1767578125 65.6337890625 9.4990234375 68.1875 10.650390625 c 1
 61.7333984375 4.2265625 49.10546875 -0.9931640625 40 -1 c 0
 17.919921875 -1 0 16.919921875 0 39 c 0
 0.01953125 53.2138671875 10.5419921875 69.51171875 23.48828125 75.37890625 c 1
 16.9765625 68.91015625 11.6865234375 56.2099609375 11.6796875 47.03125 c 0
 11.6953125 37.5029296875 17.34375 24.474609375 24.287109375 17.94921875 c 1
 28.560546875 22.25 l 1
 28.560546875 41.361328125 l 2
 25.8564453125 40.9072265625 21.833984375 39.333984375 21 38.5 c 1
 21 40.607421875 25.6123046875 44.8359375 28.560546875 46.115234375 c 2
 28.560546875 48.861328125 l 2
 25.8564453125 48.4072265625 21.833984375 46.833984375 21 46 c 1
 21 48.107421875 25.6123046875 52.3359375 28.560546875 53.615234375 c 2
 28.560546875 63 l 1
 31.060546875 65.5 l 1
 38.060546875 72.5 l 1
 45.560546875 80 l 1
38.80078125 71.740234375 m 1
 38.560546875 71.5 l 1
 38.560546875 32.318359375 l 1
 58.091796875 51.98046875 l 1
 38.80078125 71.740234375 l 1
48.560546875 40.962890625 m 1
 25.021484375 17.265625 l 1
 30.578125 12.2890625 41.1240234375 7.7744140625 48.560546875 7.1875 c 1
 48.560546875 40.962890625 l 1
EndSplineSet
EndChar

StartChar: H
Encoding: 72 72 33
Width: 59
VWidth: 0
Flags: HW
LayerCount: 2
UndoRedoHistory
Layer: 1
Undoes
UndoOperation
Index: 0
Type: 1
WasModified: 1
WasOrder2: 0
Layer: 2
Width: 59
VWidth: 0
LBearingChange: -8
UnicodeEnc: 0
InstructionsLength: 0
SplineSet
34 80 m 6
 34 49.5 l 5
 42 57.5 l 5
 43 57.5 l 5
 43 72.5 l 5
 44 72.5 l 5
 44 57.5 l 5
 56.5 57.5 l 5
 66.5 47.5 l 5
 66.5 15 l 5
 71.5 10 l 5
 61.5 0 l 5
 51.5 10 l 5
 56.5 15 l 5
 56.5 37.5 l 5
 46.5 47.5 l 5
 44 47.5 l 5
 44 12.5 l 5
 43 12.5 l 5
 43 36.5 l 5
 34 36.5 l 5
 34 15 l 5
 39 10 l 5
 29 0 l 5
 19 10 l 5
 24 15 l 5
 24 68.65625 l 6
 23.0732421875 68.431640625 21.6513671875 67.9814453125 20 66 c 5
 20.3759765625 69.8232421875 32.5 78.5 34 80 c 6
22.5 66.5 m 5
 21.5 66 18.5 61 18.5 60 c 6
 18.5 16.5 l 6
 18.5 11.5 6 0.205078125 4.5 0.205078125 c 5
 5.5 0.705078125 8.5 5.705078125 8.5 6.705078125 c 6
 8.5 24.96875 l 6
 5.91796875 24.8154296875 0.939453125 22.939453125 0 22 c 5
 0 24.34765625 5.7314453125 29.3408203125 8.5 29.939453125 c 6
 8.5 39.96875 l 6
 5.91796875 39.8154296875 0.939453125 37.939453125 0 37 c 5
 0 39.34765625 5.7314453125 44.3408203125 8.5 44.939453125 c 6
 8.5 50 l 6
 8.5 55 21 66.5 22.5 66.5 c 5
34 47.5 m 5
 34 41 l 5
 43 41 l 5
 43 47.5 l 5
 34 47.5 l 5
34 40 m 5
 34 37.5 l 5
 43 37.5 l 5
 43 40 l 5
 34 40 l 5
EndSplineSet
EndUndoOperation
UndoOperation
Index: 1
Type: 1
WasModified: 1
WasOrder2: 0
Layer: 2
Width: 59
VWidth: 0
LBearingChange: 0
UnicodeEnc: 0
InstructionsLength: 0
EndUndoOperation
UndoOperation
Index: 2
Type: 3
WasModified: 1
WasOrder2: 0
Layer: 2
EndUndoOperation
UndoOperation
Index: 3
Type: 1
WasModified: 0
WasOrder2: 0
Layer: 2
Width: 59
VWidth: 0
LBearingChange: 0
UnicodeEnc: 0
InstructionsLength: 0
SplineSet
23 81 m 4
 24 81 26 79 26 78 c 4
 26 77.70703125 25.9609375 77.5556640625 25.853515625 77.3984375 c 6
 26 77.5 l 5
 26 59 l 5
 31 59 l 5
 31 74 l 5
 32 74 l 5
 32 50.5 l 5
 46 50.5 l 5
 46 70 l 5
 43 73 l 5
 51 81 l 5
 59 73 l 5
 56 70 l 5
 56 11 l 5
 59 8 l 5
 51 0 l 5
 43 8 l 5
 46 11 l 5
 46 40.5 l 5
 32 40.5 l 5
 32 6.5 l 5
 31 6.5 l 5
 31 40.5 l 5
 26 40.5 l 5
 26 22 l 5
 26 20.5 l 5
 16 10.5 l 5
 6 0.5 l 6
 3.5 3 -6 0.5 -6.5 0.5 c 4
 -7 0.5 -12.5 -2.5 -13 -3.5 c 5
 -13 -2 -3 8 3.5 10.5 c 4
 5.267578125 10.94140625 11.712890625 12.548828125 14.916015625 11.193359375 c 6
 16 12.25 l 5
 16 40.5 l 5
 16 62.77734375 l 6
 14.818359375 61.07421875 13.5 58.6640625 13.5 58 c 6
 13.5 28 l 6
 13.5 23 1 11.705078125 -0.5 11.705078125 c 5
 0.5 12.205078125 3.5 17.205078125 3.5 18.205078125 c 6
 3.5 27.96875 l 6
 0.91796875 27.8154296875 -4.060546875 25.939453125 -5 25 c 5
 -5 27.34765625 0.7314453125 32.3408203125 3.5 32.939453125 c 6
 3.5 40.46875 l 6
 0.91796875 40.3154296875 -4.060546875 38.439453125 -5 37.5 c 5
 -5 39.84765625 0.7314453125 44.8408203125 3.5 45.439453125 c 6
 3.5 48 l 6
 3.5 52.1962890625 12.2822265625 60.9453125 16 63.658203125 c 6
 16 68 l 6
 16 70 12.814453125 71.130859375 11 70.5 c 5
 11 72.7099609375 21.9599609375 80.2353515625 23 81 c 4
26 58 m 5
 26 55.5 l 5
 31 55.5 l 5
 31 58 l 5
 26 58 l 5
26 54.5 m 5
 26 50.5 l 5
 31 50.5 l 5
 31 54.5 l 5
 26 54.5 l 5
EndSplineSet
EndUndoOperation
UndoOperation
Index: 4
Type: 1
WasModified: 1
WasOrder2: 0
Layer: 2
Width: 59
VWidth: 0
LBearingChange: 0
UnicodeEnc: 0
InstructionsLength: 0
SplineSet
36 80 m 4
 37 80 39 78 39 77 c 4
 39 76.70703125 38.9609375 76.5556640625 38.853515625 76.3984375 c 6
 39 76.5 l 5
 39 58 l 5
 44 58 l 5
 44 73 l 5
 45 73 l 5
 45 49.5 l 5
 59 49.5 l 5
 59 69 l 5
 56 72 l 5
 64 80 l 5
 72 72 l 5
 69 69 l 5
 69 10 l 5
 72 7 l 5
 64 -1 l 5
 56 7 l 5
 59 10 l 5
 59 39.5 l 5
 45 39.5 l 5
 45 5.5 l 5
 44 5.5 l 5
 44 39.5 l 5
 39 39.5 l 5
 39 21 l 5
 39 19.5 l 5
 29 9.5 l 5
 19 -0.5 l 6
 16.5 2 7 -0.5 6.5 -0.5 c 4
 6 -0.5 0.5 -3.5 0 -4.5 c 5
 0 -3 10 7 16.5 9.5 c 4
 18.267578125 9.94140625 24.712890625 11.548828125 27.916015625 10.193359375 c 6
 29 11.25 l 5
 29 39.5 l 5
 29 61.77734375 l 6
 27.818359375 60.07421875 26.5 57.6640625 26.5 57 c 6
 26.5 27 l 6
 26.5 22 14 10.705078125 12.5 10.705078125 c 5
 13.5 11.205078125 16.5 16.205078125 16.5 17.205078125 c 6
 16.5 26.96875 l 6
 13.91796875 26.8154296875 8.939453125 24.939453125 8 24 c 5
 8 26.34765625 13.7314453125 31.3408203125 16.5 31.939453125 c 6
 16.5 39.46875 l 6
 13.91796875 39.3154296875 8.939453125 37.439453125 8 36.5 c 5
 8 38.84765625 13.7314453125 43.8408203125 16.5 44.439453125 c 6
 16.5 47 l 6
 16.5 51.1962890625 25.2822265625 59.9453125 29 62.658203125 c 6
 29 67 l 6
 29 69 25.814453125 70.130859375 24 69.5 c 5
 24 71.7099609375 34.9599609375 79.2353515625 36 80 c 4
39 57 m 5
 39 54.5 l 5
 44 54.5 l 5
 44 57 l 5
 39 57 l 5
39 53.5 m 5
 39 49.5 l 5
 44 49.5 l 5
 44 53.5 l 5
 39 53.5 l 5
EndSplineSet
EndUndoOperation
EndUndoes
Redoes
EndRedoes
EndUndoRedoHistory
Fore
SplineSet
26 80 m 2
 26 49.5 l 1
 34 57.5 l 1
 35 57.5 l 1
 35 72.5 l 1
 36 72.5 l 1
 36 57.5 l 1
 48.5 57.5 l 1
 58.5 47.5 l 1
 58.5 15 l 1
 63.5 10 l 1
 53.5 0 l 1
 43.5 10 l 1
 48.5 15 l 1
 48.5 37.5 l 1
 38.5 47.5 l 1
 36 47.5 l 1
 36 12.5 l 1
 35 12.5 l 1
 35 36.5 l 1
 26 36.5 l 1
 26 15 l 1
 31 10 l 1
 21 0 l 1
 11 10 l 1
 16 15 l 1
 16 68.65625 l 2
 15.0732421875 68.431640625 13.6513671875 67.9814453125 12 66 c 1
 12.3759765625 69.8232421875 24.5 78.5 26 80 c 2
14.5 66.5 m 1
 13.5 66 10.5 61 10.5 60 c 2
 10.5 16.5 l 2
 10.5 11.5 -2 0.205078125 -3.5 0.205078125 c 1
 -2.5 0.705078125 0.5 5.705078125 0.5 6.705078125 c 2
 0.5 24.96875 l 2
 -2.08203125 24.8154296875 -7.060546875 22.939453125 -8 22 c 1
 -8 24.34765625 -2.2685546875 29.3408203125 0.5 29.939453125 c 2
 0.5 39.96875 l 2
 -2.08203125 39.8154296875 -7.060546875 37.939453125 -8 37 c 1
 -8 39.34765625 -2.2685546875 44.3408203125 0.5 44.939453125 c 2
 0.5 50 l 2
 0.5 55 13 66.5 14.5 66.5 c 1
26 47.5 m 1
 26 41 l 1
 35 41 l 1
 35 47.5 l 1
 26 47.5 l 1
26 40 m 1
 26 37.5 l 1
 35 37.5 l 1
 35 40 l 1
 26 40 l 1
EndSplineSet
EndChar

StartChar: I
Encoding: 73 73 34
Width: 47
VWidth: 0
Flags: HW
LayerCount: 2
UndoRedoHistory
Layer: 1
Undoes
UndoOperation
Index: 0
Type: 1
WasModified: 1
WasOrder2: 0
Layer: 2
Width: 53
VWidth: 0
LBearingChange: 0
UnicodeEnc: 0
InstructionsLength: 0
SplineSet
14.205078125 78.6328125 m 2
 23.70703125 78.9140625 35.1923828125 74.54296875 45.419921875 77.48046875 c 1
 46 78.060546875 l 1
 46 21.5 l 1
 46 20 l 1
 36 10 l 1
 26 0 l 2
 23.5 2.5 2 0.5 0.5 0 c 0
 -0.5 0 -5.5 -3 -6 -4 c 1
 -6 -2.5 4 7.5 10.5 10 c 0
 11.861328125 10.9072265625 29.6494140625 12.2158203125 34.8046875 10.583984375 c 1
 36 11.75 l 1
 36 67.58984375 l 2
 35.8330078125 67.55859375 35.6669921875 67.5166015625 35.5 67.5 c 0
 27.4384765625 63.5751953125 9.3671875 72.0107421875 -1 67 c 1
 3.0966796875 71.8076171875 6.0107421875 76.607421875 12.328125 78.509765625 c 0
 12.9443359375 78.5732421875 13.5703125 78.61328125 14.205078125 78.6328125 c 2
29.5 64 m 1
 28.5 63.5 25.5 58.5 25.5 57.5 c 2
 25.5 27.5 l 2
 25.5 22.5 13 11.205078125 11.5 11.205078125 c 1
 12.5 11.705078125 15.5 16.705078125 15.5 17.705078125 c 2
 15.5 27.46875 l 2
 12.91796875 27.314453125 7.939453125 25.439453125 7 24.5 c 1
 7 26.84765625 12.7314453125 31.83984375 15.5 32.439453125 c 2
 15.5 39.96875 l 2
 12.91796875 39.814453125 7.939453125 37.939453125 7 37 c 1
 7 39.34765625 12.7314453125 44.33984375 15.5 44.939453125 c 2
 15.5 47.5 l 2
 15.5 52.5 28 64 29.5 64 c 1
EndSplineSet
EndUndoOperation
EndUndoes
Redoes
EndRedoes
EndUndoRedoHistory
Fore
SplineSet
14.205078125 78.6328125 m 2
 23.70703125 78.9140625 35.1923828125 74.54296875 45.419921875 77.48046875 c 1
 46 78.060546875 l 1
 46 21.5 l 1
 46 20 l 1
 36 10 l 1
 26 0 l 2
 23.5 2.5 2 0.5 0.5 0 c 0
 -0.5 0 -5.5 -3 -6 -4 c 1
 -6 -2.5 4 7.5 10.5 10 c 0
 11.861328125 10.9072265625 29.6494140625 12.2158203125 34.8046875 10.583984375 c 1
 36 11.75 l 1
 36 67.58984375 l 2
 35.8330078125 67.55859375 35.6669921875 67.5166015625 35.5 67.5 c 0
 27.4384765625 63.5751953125 9.3671875 72.0107421875 -1 67 c 1
 3.0966796875 71.8076171875 6.0107421875 76.607421875 12.328125 78.509765625 c 0
 12.9443359375 78.5732421875 13.5703125 78.61328125 14.205078125 78.6328125 c 2
29.5 64 m 1
 28.5 63.5 25.5 58.5 25.5 57.5 c 2
 25.5 27.5 l 2
 25.5 22.5 13 11.205078125 11.5 11.205078125 c 1
 12.5 11.705078125 15.5 16.705078125 15.5 17.705078125 c 2
 15.5 27.46875 l 2
 12.91796875 27.314453125 7.939453125 25.439453125 7 24.5 c 1
 7 26.84765625 12.7314453125 31.83984375 15.5 32.439453125 c 2
 15.5 39.96875 l 2
 12.91796875 39.814453125 7.939453125 37.939453125 7 37 c 1
 7 39.34765625 12.7314453125 44.33984375 15.5 44.939453125 c 2
 15.5 47.5 l 2
 15.5 52.5 28 64 29.5 64 c 1
EndSplineSet
Validated: 33
EndChar

StartChar: J
Encoding: 74 74 35
Width: 47
VWidth: 0
Flags: HW
LayerCount: 2
UndoRedoHistory
Layer: 1
Undoes
UndoOperation
Index: 0
Type: 7
WasModified: 1
WasOrder2: 0
Layer: 2
Width: 110
EndUndoOperation
EndUndoes
Redoes
EndRedoes
EndUndoRedoHistory
Fore
SplineSet
47.248046875 80 m 2
 47.248046875 6.8984375 l 1
 47.25390625 6.908203125 l 2
 47.3251953125 5.6064453125 47.3017578125 3.9111328125 47.248046875 2.25 c 2
 47.248046875 0 l 1
 47.142578125 -0.10546875 l 2
 47.0322265625 -1.857421875 46.8876953125 -3.296875 46.748046875 -3.5 c 0
 42.1318359375 -10.1845703125 34.6826171875 -17.9931640625 28.51171875 -22.5 c 0
 20.4423828125 -28.765625 7.98046875 -28.5810546875 2.248046875 -17.994140625 c 0
 -0.6259765625 -12.69921875 1.6240234375 1.3349609375 7.359375 4.408203125 c 1
 6.54296875 -8.5791015625 14.1162109375 -16.63671875 30.08203125 -15.962890625 c 0
 36.869140625 -14.806640625 37.248046875 -8 37.248046875 -2.5 c 2
 37.248046875 67.5 l 2
 34.748046875 65 10.6640625 72.23046875 1.625 67.5 c 1
 12.9111328125 80.8623046875 17.0400390625 80.2529296875 34.748046875 78 c 0
 37.40234375 77.6123046875 44.822265625 78.48046875 47.248046875 80 c 2
33.248046875 64 m 2
 32.248046875 63.5 29.248046875 58.5 29.248046875 57.5 c 2
 29.248046875 9.5 l 1
 29.224609375 9.4765625 l 2
 28.7333984375 4.333984375 16.716796875 -6.5 15.248046875 -6.5 c 1
 16.248046875 -6 19.248046875 -1 19.248046875 0 c 2
 19.248046875 17.46875 l 2
 16.666015625 17.3154296875 11.6875 15.439453125 10.748046875 14.5 c 1
 10.748046875 16.84765625 16.4794921875 21.8408203125 19.248046875 22.439453125 c 2
 19.248046875 34.96875 l 2
 16.666015625 34.8154296875 11.6875 32.939453125 10.748046875 32 c 1
 10.748046875 34.34765625 16.4794921875 39.3408203125 19.248046875 39.939453125 c 2
 19.248046875 47.5 l 2
 19.248046875 52.5 31.748046875 64 33.248046875 64 c 2
EndSplineSet
Validated: 33
EndChar

StartChar: K
Encoding: 75 75 36
Width: 62
VWidth: 0
Flags: HW
LayerCount: 2
UndoRedoHistory
Layer: 1
Undoes
UndoOperation
Index: 0
Type: 1
WasModified: 1
WasOrder2: 0
Layer: 2
Width: 69
VWidth: 0
LBearingChange: -6
UnicodeEnc: 0
InstructionsLength: 0
SplineSet
58.890625 80.337890625 m 6
 60.279296875 79.640625 62 77.5 62 76.5 c 6
 62 65 l 5
 46.966796875 47.05859375 l 5
 65 30 l 5
 65 14.5 l 5
 69.5 10 l 5
 59.5 0 l 5
 49.5 10 l 5
 55 15.5 l 5
 55 20 l 5
 40.5 33.716796875 l 5
 40.5 3.5 l 5
 39.5 3.5 l 5
 39.5 34.662109375 l 5
 36.5 37.5 l 5
 34.5 37.5 l 5
 34.5 10 l 5
 24.501953125 0 l 5
 8 0 l 6
 7 0 4 -1.5 3 -2.5 c 5
 3 -0.5 15 10 18 10 c 6
 24.5 10 l 5
 24.5 68.287109375 l 6
 23.5322265625 69.443359375 21.3740234375 69.978515625 20 69.5 c 5
 20 71.7099609375 30.9599609375 79.2353515625 32 80 c 4
 33 80 34.5 78.5 34.5 77.5 c 6
 34.5 77 l 5
 34.5 76 l 5
 34.5 59.5 l 5
 39.5 59.5 l 5
 39.5 71 l 5
 40.5 71 l 5
 40.5 47.5 l 5
 45.5 47.5 l 5
 52 55.181640625 l 5
 52 66.5 l 6
 52 68.5 50.751953125 69.7099609375 49 70.5 c 5
 49.7958984375 71.33984375 58.890625 80.337890625 58.890625 80.337890625 c 6
23.5 66.5 m 5
 22.5 66 19.5 61 19.5 60 c 6
 19.5 23 l 5
 19.4765625 22.978515625 l 6
 18.98828125 17.8369140625 6.9697265625 7 5.5 7 c 5
 6.5 7.5 9.5 12.5 9.5 13.5 c 6
 9.5 24.96875 l 6
 6.91796875 24.8154296875 1.939453125 22.939453125 1 22 c 5
 1 24.34765625 6.7314453125 29.3408203125 9.5 29.939453125 c 6
 9.5 39.96875 l 6
 6.91796875 39.8154296875 1.939453125 37.939453125 1 37 c 5
 1 39.34765625 6.7314453125 44.3408203125 9.5 44.939453125 c 6
 9.5 50 l 6
 9.5 55 22 66.5 23.5 66.5 c 5
34.5 58.5 m 5
 34.5 56 l 5
 39.5 56 l 5
 39.5 58.5 l 5
 34.5 58.5 l 5
34.5 55 m 5
 34.5 47.5 l 5
 39.5 47.5 l 5
 39.5 55 l 5
 34.5 55 l 5
EndSplineSet
EndUndoOperation
EndUndoes
Redoes
EndRedoes
EndUndoRedoHistory
Fore
SplineSet
52.390625 80.337890625 m 6
 53.779296875 79.640625 55.5 77.5 55.5 76.5 c 6
 55.5 65 l 5
 40.466796875 47.05859375 l 5
 58.5 30 l 5
 58.5 14.5 l 5
 63 10 l 5
 53 0 l 5
 43 10 l 5
 48.5 15.5 l 5
 48.5 20 l 5
 34 33.716796875 l 5
 34 3.5 l 5
 33 3.5 l 5
 33 34.662109375 l 5
 30 37.5 l 5
 28 37.5 l 5
 28 10 l 5
 18.001953125 0 l 5
 1.5 0 l 6
 0.5 0 -2.5 -1.5 -3.5 -2.5 c 5
 -3.5 -0.5 8.5 10 11.5 10 c 6
 18 10 l 5
 18 68.287109375 l 6
 17.0322265625 69.443359375 14.8740234375 69.978515625 13.5 69.5 c 5
 13.5 71.7099609375 24.4599609375 79.2353515625 25.5 80 c 4
 26.5 80 28 78.5 28 77.5 c 6
 28 77 l 5
 28 76 l 5
 28 59.5 l 5
 33 59.5 l 5
 33 71 l 5
 34 71 l 5
 34 47.5 l 5
 39 47.5 l 5
 45.5 55.181640625 l 5
 45.5 66.5 l 6
 45.5 68.5 44.251953125 69.7099609375 42.5 70.5 c 5
 43.2958984375 71.33984375 52.390625 80.337890625 52.390625 80.337890625 c 6
17 66.5 m 5
 16 66 13 61 13 60 c 6
 13 23 l 5
 12.9765625 22.978515625 l 6
 12.48828125 17.8369140625 0.4697265625 7 -1 7 c 5
 0 7.5 3 12.5 3 13.5 c 6
 3 24.96875 l 6
 0.41796875 24.8154296875 -4.560546875 22.939453125 -5.5 22 c 5
 -5.5 24.34765625 0.2314453125 29.3408203125 3 29.939453125 c 6
 3 39.96875 l 6
 0.41796875 39.8154296875 -4.560546875 37.939453125 -5.5 37 c 5
 -5.5 39.34765625 0.2314453125 44.3408203125 3 44.939453125 c 6
 3 50 l 6
 3 55 15.5 66.5 17 66.5 c 5
28 58.5 m 5
 28 56 l 5
 33 56 l 5
 33 58.5 l 5
 28 58.5 l 5
28 55 m 5
 28 47.5 l 5
 33 47.5 l 5
 33 55 l 5
 28 55 l 5
EndSplineSet
Validated: 33
EndChar

StartChar: L
Encoding: 76 76 37
Width: 58
VWidth: 0
Flags: HW
LayerCount: 2
UndoRedoHistory
Layer: 1
Undoes
UndoOperation
Index: 0
Type: 1
WasModified: 1
WasOrder2: 0
Layer: 2
Width: 68
VWidth: 0
LBearingChange: 0
UnicodeEnc: 0
InstructionsLength: 0
SplineSet
22.5 80 m 0
 23.5 80 25 78.5 25 77.5 c 2
 25 76 l 1
 25 59.5 l 1
 35 59.5 l 1
 35 71 l 1
 36 71 l 1
 36 10 l 1
 55 10 l 2
 62.5 10 54.75 0.75 50.5 -2.5 c 1
 52.0625 0.875 47.5 0 45 0 c 2
 15 0 l 1
 15 65.470703125 l 2
 13.7294921875 63.8212890625 12 60.759765625 12 60 c 2
 12 23 l 1
 11.9765625 22.978515625 l 2
 11.48828125 17.8369140625 -0.5302734375 7 -2 7 c 1
 -1 7.5 2 12.5 2 13.5 c 2
 2 24.96875 l 2
 -0.58203125 24.8154296875 -5.560546875 22.939453125 -6.5 22 c 1
 -6.5 24.34765625 -0.7685546875 29.3408203125 2 29.939453125 c 2
 2 39.96875 l 2
 -0.58203125 39.8154296875 -5.560546875 37.939453125 -6.5 37 c 1
 -6.5 39.34765625 -0.7685546875 44.3408203125 2 44.939453125 c 2
 2 50 l 2
 2 54.3916015625 11.63671875 63.791015625 15 66.015625 c 2
 15 66.5 l 2
 15 68.5 11.814453125 69.630859375 10 69 c 1
 10 71.2099609375 21.4599609375 79.2353515625 22.5 80 c 0
25 58.5 m 1
 25 56 l 1
 35 56 l 1
 35 58.5 l 1
 25 58.5 l 1
25 55 m 1
 25 10 l 1
 35 10 l 1
 35 55 l 1
 25 55 l 1
EndSplineSet
EndUndoOperation
EndUndoes
Redoes
EndRedoes
EndUndoRedoHistory
Fore
SplineSet
22.5 80 m 0
 23.5 80 25 78.5 25 77.5 c 2
 25 76 l 1
 25 59.5 l 1
 35 59.5 l 1
 35 71 l 1
 36 71 l 1
 36 10 l 1
 55 10 l 2
 62.5 10 54.75 0.75 50.5 -2.5 c 1
 52.0625 0.875 47.5 0 45 0 c 2
 15 0 l 1
 15 65.470703125 l 2
 13.7294921875 63.8212890625 12 60.759765625 12 60 c 2
 12 23 l 1
 11.9765625 22.978515625 l 2
 11.48828125 17.8369140625 -0.5302734375 7 -2 7 c 1
 -1 7.5 2 12.5 2 13.5 c 2
 2 24.96875 l 2
 -0.58203125 24.8154296875 -5.560546875 22.939453125 -6.5 22 c 1
 -6.5 24.34765625 -0.7685546875 29.3408203125 2 29.939453125 c 2
 2 39.96875 l 2
 -0.58203125 39.8154296875 -5.560546875 37.939453125 -6.5 37 c 1
 -6.5 39.34765625 -0.7685546875 44.3408203125 2 44.939453125 c 2
 2 50 l 2
 2 54.3916015625 11.63671875 63.791015625 15 66.015625 c 2
 15 66.5 l 2
 15 68.5 11.814453125 69.630859375 10 69 c 1
 10 71.2099609375 21.4599609375 79.2353515625 22.5 80 c 0
25 58.5 m 1
 25 56 l 1
 35 56 l 1
 35 58.5 l 1
 25 58.5 l 1
25 55 m 1
 25 10 l 1
 35 10 l 1
 35 55 l 1
 25 55 l 1
EndSplineSet
EndChar

StartChar: M
Encoding: 77 77 38
Width: 72
VWidth: 0
Flags: HW
LayerCount: 2
UndoRedoHistory
Layer: 1
Undoes
UndoOperation
Index: 0
Type: 1
WasModified: 1
WasOrder2: 0
Layer: 2
Width: 79
VWidth: 0
LBearingChange: 0
UnicodeEnc: 0
InstructionsLength: 0
SplineSet
24 80 m 2
 24 70 l 1
 34 80 l 1
 44 70 l 1
 54 80 l 1
 64 70 l 1
 64 15 l 1
 69 10 l 1
 59 0 l 1
 49 10 l 1
 54 15 l 1
 54 60 l 1
 49 65 l 1
 49 20 l 1
 48 20 l 1
 48 46.5 l 1
 44 46.5 l 1
 44 15 l 1
 49 10 l 1
 39 0 l 1
 29 10 l 1
 34 15 l 1
 34 46.5 l 1
 30 46.5 l 1
 30 20 l 1
 29 20 l 1
 29 46.5 l 1
 29 47.5 l 1
 29 50 l 1
 29 51 l 1
 29 65 l 1
 24.5234375 69.4765625 l 1
 24 68.9765625 l 1
 24 15 l 1
 29 10 l 1
 19 0 l 1
 9 10 l 1
 14 15 l 1
 14 65.2890625 l 2
 12.818359375 63.5859375 11.5 61.17578125 11.5 60.51171875 c 2
 11.5 17.01171875 l 2
 11.5 12.01171875 -1 0.716796875 -2.5 0.716796875 c 1
 -1.5 1.216796875 1.5 6.216796875 1.5 7.216796875 c 2
 1.5 25.48046875 l 2
 -1.08203125 25.3271484375 -6.060546875 23.451171875 -7 22.51171875 c 1
 -7 24.859375 -1.2685546875 29.8525390625 1.5 30.451171875 c 2
 1.5 40.48046875 l 2
 -1.08203125 40.3271484375 -6.060546875 38.451171875 -7 37.51171875 c 1
 -7 39.859375 -1.2685546875 44.8525390625 1.5 45.451171875 c 2
 1.5 50.51171875 l 2
 1.5 54.7080078125 10.2822265625 63.45703125 14 66.169921875 c 2
 14 68.65625 l 2
 13.0732421875 68.431640625 11.6513671875 67.9814453125 10 66 c 1
 10.3759765625 69.8232421875 22.5 78.5 24 80 c 2
44.5234375 69.4765625 m 1
 44 68.9765625 l 1
 44 51 l 1
 48 51 l 1
 48 66 l 1
 44.5234375 69.4765625 l 1
30 64 m 1
 30 51 l 1
 34 51 l 1
 34 60 l 1
 30 64 l 1
30 50 m 1
 30 47.5 l 1
 34 47.5 l 1
 34 50 l 1
 30 50 l 1
44 50 m 1
 44 47.5 l 1
 48 47.5 l 1
 48 50 l 1
 44 50 l 1
EndSplineSet
EndUndoOperation
EndUndoes
Redoes
EndRedoes
EndUndoRedoHistory
Fore
SplineSet
24 80 m 2
 24 70 l 1
 34 80 l 1
 44 70 l 1
 54 80 l 1
 64 70 l 1
 64 15 l 1
 69 10 l 1
 59 0 l 1
 49 10 l 1
 54 15 l 1
 54 60 l 1
 49 65 l 1
 49 20 l 1
 48 20 l 1
 48 46.5 l 1
 44 46.5 l 1
 44 15 l 1
 49 10 l 1
 39 0 l 1
 29 10 l 1
 34 15 l 1
 34 46.5 l 1
 30 46.5 l 1
 30 20 l 1
 29 20 l 1
 29 46.5 l 1
 29 47.5 l 1
 29 50 l 1
 29 51 l 1
 29 65 l 1
 24.5234375 69.4765625 l 1
 24 68.9765625 l 1
 24 15 l 1
 29 10 l 1
 19 0 l 1
 9 10 l 1
 14 15 l 1
 14 65.2890625 l 2
 12.818359375 63.5859375 11.5 61.17578125 11.5 60.51171875 c 2
 11.5 17.01171875 l 2
 11.5 12.01171875 -1 0.716796875 -2.5 0.716796875 c 1
 -1.5 1.216796875 1.5 6.216796875 1.5 7.216796875 c 2
 1.5 25.48046875 l 2
 -1.08203125 25.3271484375 -6.060546875 23.451171875 -7 22.51171875 c 1
 -7 24.859375 -1.2685546875 29.8525390625 1.5 30.451171875 c 2
 1.5 40.48046875 l 2
 -1.08203125 40.3271484375 -6.060546875 38.451171875 -7 37.51171875 c 1
 -7 39.859375 -1.2685546875 44.8525390625 1.5 45.451171875 c 2
 1.5 50.51171875 l 2
 1.5 54.7080078125 10.2822265625 63.45703125 14 66.169921875 c 2
 14 68.65625 l 2
 13.0732421875 68.431640625 11.6513671875 67.9814453125 10 66 c 1
 10.3759765625 69.8232421875 22.5 78.5 24 80 c 2
44.5234375 69.4765625 m 1
 44 68.9765625 l 1
 44 51 l 1
 48 51 l 1
 48 66 l 1
 44.5234375 69.4765625 l 1
30 64 m 1
 30 51 l 1
 34 51 l 1
 34 60 l 1
 30 64 l 1
30 50 m 1
 30 47.5 l 1
 34 47.5 l 1
 34 50 l 1
 30 50 l 1
44 50 m 1
 44 47.5 l 1
 48 47.5 l 1
 48 50 l 1
 44 50 l 1
EndSplineSet
EndChar

StartChar: N
Encoding: 78 78 39
Width: 64
VWidth: 0
Flags: HW
LayerCount: 2
UndoRedoHistory
Layer: 1
Undoes
UndoOperation
Index: 0
Type: 1
WasModified: 1
WasOrder2: 0
Layer: 2
Width: 64
VWidth: 0
LBearingChange: -6
UnicodeEnc: 0
InstructionsLength: 0
SplineSet
31.5 80 m 6
 46.5 80 l 5
 64 62.5 l 5
 64 15 l 5
 69 10 l 5
 59 0 l 5
 49 10 l 5
 54 15 l 5
 54 52.5 l 5
 41.5 65 l 5
 41.5 20 l 5
 40.5 20 l 5
 40.5 46.5 l 5
 31.5 46.5 l 5
 31.5 15 l 5
 36.5 10 l 5
 26.5 0 l 5
 21.5 5 l 5
 16.5 10 l 5
 21.5 15 l 5
 21.5 65.470703125 l 6
 20.2294921875 63.8212890625 18.5 60.759765625 18.5 60 c 6
 18.5 16.5 l 6
 18.5 11.5 6 0.205078125 4.5 0.205078125 c 5
 5.5 0.705078125 8.5 5.705078125 8.5 6.705078125 c 6
 8.5 24.96875 l 6
 5.91796875 24.8154296875 0.939453125 22.939453125 0 22 c 5
 0 24.34765625 5.7314453125 29.3408203125 8.5 29.939453125 c 6
 8.5 39.96875 l 6
 5.91796875 39.8154296875 0.939453125 37.939453125 0 37 c 5
 0 39.34765625 5.7314453125 44.3408203125 8.5 44.939453125 c 6
 8.5 50 l 6
 8.5 54.390625 18.134765625 63.7890625 21.5 66.015625 c 6
 21.5 68.65625 l 6
 20.5732421875 68.431640625 19.1513671875 67.9814453125 17.5 66 c 5
 17.8759765625 69.8232421875 30 78.5 31.5 80 c 6
36.5 70 m 5
 32.55859375 69.841796875 l 5
 31.5 68.833984375 l 5
 31.5 51 l 5
 40.5 51 l 5
 40.5 66 l 5
 36.5 70 l 5
31.5 50 m 5
 31.5 47.5 l 5
 40.5 47.5 l 5
 40.5 50 l 5
 31.5 50 l 5
EndSplineSet
EndUndoOperation
EndUndoes
Redoes
EndRedoes
EndUndoRedoHistory
Fore
SplineSet
25 80 m 6
 40 80 l 5
 57.5 62.5 l 5
 57.5 15 l 5
 62.5 10 l 5
 52.5 0 l 5
 42.5 10 l 5
 47.5 15 l 5
 47.5 52.5 l 5
 35 65 l 5
 35 20 l 5
 34 20 l 5
 34 46.5 l 5
 25 46.5 l 5
 25 15 l 5
 30 10 l 5
 20 0 l 5
 15 5 l 5
 10 10 l 5
 15 15 l 5
 15 65.470703125 l 6
 13.7294921875 63.8212890625 12 60.759765625 12 60 c 6
 12 16.5 l 6
 12 11.5 -0.5 0.205078125 -2 0.205078125 c 5
 -1 0.705078125 2 5.705078125 2 6.705078125 c 6
 2 24.96875 l 6
 -0.58203125 24.8154296875 -5.560546875 22.939453125 -6.5 22 c 5
 -6.5 24.34765625 -0.7685546875 29.3408203125 2 29.939453125 c 6
 2 39.96875 l 6
 -0.58203125 39.8154296875 -5.560546875 37.939453125 -6.5 37 c 5
 -6.5 39.34765625 -0.7685546875 44.3408203125 2 44.939453125 c 6
 2 50 l 6
 2 54.390625 11.634765625 63.7890625 15 66.015625 c 6
 15 68.65625 l 6
 14.0732421875 68.431640625 12.6513671875 67.9814453125 11 66 c 5
 11.3759765625 69.8232421875 23.5 78.5 25 80 c 6
30 70 m 5
 26.05859375 69.841796875 l 5
 25 68.833984375 l 5
 25 51 l 5
 34 51 l 5
 34 66 l 5
 30 70 l 5
25 50 m 5
 25 47.5 l 5
 34 47.5 l 5
 34 50 l 5
 25 50 l 5
EndSplineSet
EndChar

StartChar: O
Encoding: 79 79 40
Width: 71
VWidth: 0
Flags: HW
LayerCount: 2
UndoRedoHistory
Layer: 1
Undoes
UndoOperation
Index: 0
Type: 7
WasModified: 1
WasOrder2: 0
Layer: 2
Width: 110
EndUndoOperation
EndUndoes
Redoes
EndRedoes
EndUndoRedoHistory
Fore
SplineSet
39.390625 80 m 0
 42.0341796875 79.927734375 44.6953125 79.8056640625 47.310546875 79.388671875 c 0
 52.001953125 77.9658203125 56.4677734375 75.439453125 59.912109375 71.90625 c 0
 64.5830078125 66.810546875 68.4091796875 60.568359375 69.62109375 53.6796875 c 0
 70.71875 46.287109375 71.291015625 38.5068359375 69.203125 31.23828125 c 0
 63.9384765625 18.224609375 53.1416015625 7.5107421875 40.048828125 2.4140625 c 0
 35.28125 0.271484375 29.9765625 0.3642578125 24.9140625 1.08984375 c 0
 21.1533203125 1.8935546875 17.681640625 3.9072265625 14.56640625 6.1171875 c 0
 8.8720703125 10.703125 4.763671875 17.2158203125 2.587890625 24.158203125 c 0
 0.8466796875 32.0263671875 0.34375 40.36328125 2.06640625 48.27734375 c 0
 5.4384765625 57.853515625 12.216796875 66.041015625 20.3125 72.0546875 c 0
 25.998046875 75.9580078125 32.408203125 79.3994140625 39.390625 80 c 0
30.017578125 70.0078125 m 1
 25.9970703125 70.00390625 21.7763671875 69.1201171875 18.451171875 66.7578125 c 0
 11.806640625 62.0966796875 10.6962890625 53.2734375 10.375 45.77734375 c 0
 10.5810546875 36.51171875 15.0849609375 27.8232421875 20.7734375 20.716796875 c 0
 25.779296875 14.701171875 33.6181640625 10.73828125 41.453125 10.60546875 c 1
 41.453125 48 l 1
 33.890625 48 l 1
 33.890625 40 l 1
 33.689453125 39.76953125 l 2
 33.755859375 39.7763671875 33.83203125 39.8046875 33.890625 39.7939453125 c 0
 33.890625 34.794921875 21.390625 23.4990234375 19.890625 23.4990234375 c 1
 20.890625 23.9990234375 23.890625 28.9990234375 23.890625 29.9990234375 c 2
 23.890625 37.46875 l 2
 21.3076171875 37.314453125 16.330078125 35.4384765625 15.390625 34.4990234375 c 1
 15.390625 36.84765625 21.1220703125 41.83984375 23.890625 42.439453125 c 2
 23.890625 44.96875 l 2
 21.3076171875 44.814453125 16.330078125 42.9384765625 15.390625 41.9990234375 c 1
 15.390625 44.34765625 21.1220703125 49.33984375 23.890625 49.939453125 c 2
 23.890625 50 l 2
 23.890625 55 36.390625 66.5 37.890625 66.5 c 1
 36.890625 66 33.890625 61 33.890625 60 c 2
 33.890625 52.5 l 1
 41.453125 52.5 l 1
 41.453125 67.181640625 l 2
 37.9228515625 68.9541015625 34.0498046875 69.9951171875 30.017578125 70.0078125 c 1
42.453125 66.658203125 m 1
 42.453125 10.611328125 l 2
 45.4404296875 10.6865234375 48.41015625 11.314453125 51.203125 12.6328125 c 0
 57.6181640625 15.705078125 60.20703125 23.056640625 60.853515625 29.6953125 c 0
 62.38671875 38.43359375 59.25 47.1806640625 54.68359375 54.5234375 c 0
 51.8095703125 59.5302734375 47.5234375 63.8583984375 42.453125 66.658203125 c 1
33.890625 51.5 m 1
 33.890625 49 l 1
 41.453125 49 l 1
 41.453125 51.5 l 1
 33.890625 51.5 l 1
EndSplineSet
Validated: 33
EndChar

StartChar: P
Encoding: 80 80 41
Width: 56
VWidth: 0
Flags: HW
LayerCount: 2
UndoRedoHistory
Layer: 1
Undoes
UndoOperation
Index: 0
Type: 1
WasModified: 1
WasOrder2: 0
Layer: 2
Width: 62
VWidth: 0
LBearingChange: 0
UnicodeEnc: 0
InstructionsLength: 0
SplineSet
26.087890625 80 m 2
 33.587890625 80 l 2
 38.44140625 80 55.0693359375 70.5791015625 56.041015625 65.453125 c 1
 56.087890625 65.5 l 1
 56.087890625 50.5 l 1
 56.087890625 50 l 1
 41.8984375 37.8984375 l 1
 39 35 l 1
 32 35 l 1
 32 14.5 l 1
 31 14.5 l 1
 31 35 l 1
 26 35 l 1
 26 15.087890625 l 1
 31.087890625 10 l 1
 21.087890625 0 l 1
 11.087890625 10 l 1
 16 14.912109375 l 1
 16 62.5 l 1
 23.5 70 l 1
 16.087890625 70 l 2
 12.087890625 70 8.3720703125 68.0283203125 5.02734375 65.8359375 c 1
 9.271484375 70.3603515625 16.587890625 80 26.087890625 80 c 2
26 69.556640625 m 2
 26 57.5 l 1
 31 57.5 l 1
 31 67.537109375 l 2
 29.1591796875 68.427734375 27.427734375 69.1328125 26 69.556640625 c 2
17.5 69 m 1
 16.5 68.5 13.5 63.5 13.5 62.5 c 2
 13.5 19 l 2
 13.5 14 1 2.705078125 -0.5 2.705078125 c 1
 0.5 3.205078125 3.5 8.205078125 3.5 9.205078125 c 2
 3.5 27.46875 l 2
 0.91796875 27.3154296875 -4.060546875 25.439453125 -5 24.5 c 1
 -5 26.84765625 0.7314453125 31.8408203125 3.5 32.439453125 c 2
 3.5 42.46875 l 2
 0.91796875 42.3154296875 -4.060546875 40.439453125 -5 39.5 c 1
 -5 41.84765625 0.7314453125 46.8408203125 3.5 47.439453125 c 2
 3.5 52.5 l 2
 3.5 57.5 16 69 17.5 69 c 1
32 67.03125 m 1
 32 45 l 1
 46.087890625 45 l 1
 46.087890625 55 l 2
 46.087890625 58.275390625 38.5859375 63.681640625 32 67.03125 c 1
26 56.5 m 1
 26 54 l 1
 31 54 l 1
 31 56.5 l 1
 26 56.5 l 1
26 53 m 1
 26 45 l 1
 31 45 l 1
 31 53 l 1
 26 53 l 1
EndSplineSet
EndUndoOperation
UndoOperation
Index: 1
Type: 1
WasModified: 1
WasOrder2: 0
Layer: 2
Width: 62
VWidth: 0
LBearingChange: 0
UnicodeEnc: 0
InstructionsLength: 0
SplineSet
27.087890625 80 m 6
 34.587890625 80 l 6
 39.44140625 80 56.0693359375 70.5791015625 57.041015625 65.453125 c 5
 57.087890625 65.5 l 5
 57.087890625 50.5 l 5
 57.087890625 50 l 5
 42.8984375 37.8984375 l 5
 40 35 l 5
 33 35 l 5
 33 14.5 l 5
 32 14.5 l 5
 32 35 l 5
 27 35 l 5
 27 15.087890625 l 5
 32.087890625 10 l 5
 22.087890625 0 l 5
 12.087890625 10 l 5
 17 14.912109375 l 5
 17 62.5 l 5
 24.5 70 l 5
 17.087890625 70 l 6
 13.087890625 70 9.3720703125 68.0283203125 6.02734375 65.8359375 c 5
 10.271484375 70.3603515625 17.587890625 80 27.087890625 80 c 6
27 69.556640625 m 6
 27 57.5 l 5
 32 57.5 l 5
 32 67.537109375 l 6
 30.1591796875 68.427734375 28.427734375 69.1328125 27 69.556640625 c 6
18.5 69 m 5
 17.5 68.5 14.5 63.5 14.5 62.5 c 6
 14.5 19 l 6
 14.5 14 2 2.705078125 0.5 2.705078125 c 5
 1.5 3.205078125 4.5 8.205078125 4.5 9.205078125 c 6
 4.5 27.46875 l 6
 1.91796875 27.3154296875 -3.060546875 25.439453125 -4 24.5 c 5
 -4 26.84765625 1.7314453125 31.8408203125 4.5 32.439453125 c 6
 4.5 42.46875 l 6
 1.91796875 42.3154296875 -3.060546875 40.439453125 -4 39.5 c 5
 -4 41.84765625 1.7314453125 46.8408203125 4.5 47.439453125 c 6
 4.5 52.5 l 6
 4.5 57.5 17 69 18.5 69 c 5
33 67.03125 m 5
 33 45 l 5
 47.087890625 45 l 5
 47.087890625 55 l 6
 47.087890625 58.275390625 39.5859375 63.681640625 33 67.03125 c 5
27 56.5 m 5
 27 54 l 5
 32 54 l 5
 32 56.5 l 5
 27 56.5 l 5
27 53 m 5
 27 45 l 5
 32 45 l 5
 32 53 l 5
 27 53 l 5
EndSplineSet
EndUndoOperation
UndoOperation
Index: 2
Type: 1
WasModified: 1
WasOrder2: 0
Layer: 2
Width: 62
VWidth: 0
LBearingChange: 0
UnicodeEnc: 0
InstructionsLength: 0
SplineSet
28.087890625 80 m 6
 35.587890625 80 l 6
 40.44140625 80 57.0693359375 70.5791015625 58.041015625 65.453125 c 5
 58.087890625 65.5 l 5
 58.087890625 50.5 l 5
 58.087890625 50 l 5
 43.8984375 37.8984375 l 5
 41 35 l 5
 34 35 l 5
 34 14.5 l 5
 33 14.5 l 5
 33 35 l 5
 28 35 l 5
 28 15.087890625 l 5
 33.087890625 10 l 5
 23.087890625 0 l 5
 13.087890625 10 l 5
 18 14.912109375 l 5
 18 62.5 l 5
 25.5 70 l 5
 18.087890625 70 l 6
 14.087890625 70 10.3720703125 68.0283203125 7.02734375 65.8359375 c 5
 11.271484375 70.3603515625 18.587890625 80 28.087890625 80 c 6
28 69.556640625 m 6
 28 57.5 l 5
 33 57.5 l 5
 33 67.537109375 l 6
 31.1591796875 68.427734375 29.427734375 69.1328125 28 69.556640625 c 6
19.5 69 m 5
 18.5 68.5 15.5 63.5 15.5 62.5 c 6
 15.5 19 l 6
 15.5 14 3 2.705078125 1.5 2.705078125 c 5
 2.5 3.205078125 5.5 8.205078125 5.5 9.205078125 c 6
 5.5 27.46875 l 6
 2.91796875 27.3154296875 -2.060546875 25.439453125 -3 24.5 c 5
 -3 26.84765625 2.7314453125 31.8408203125 5.5 32.439453125 c 6
 5.5 42.46875 l 6
 2.91796875 42.3154296875 -2.060546875 40.439453125 -3 39.5 c 5
 -3 41.84765625 2.7314453125 46.8408203125 5.5 47.439453125 c 6
 5.5 52.5 l 6
 5.5 57.5 18 69 19.5 69 c 5
34 67.03125 m 5
 34 45 l 5
 48.087890625 45 l 5
 48.087890625 55 l 6
 48.087890625 58.275390625 40.5859375 63.681640625 34 67.03125 c 5
28 56.5 m 5
 28 54 l 5
 33 54 l 5
 33 56.5 l 5
 28 56.5 l 5
28 53 m 5
 28 45 l 5
 33 45 l 5
 33 53 l 5
 28 53 l 5
EndSplineSet
EndUndoOperation
UndoOperation
Index: 3
Type: 1
WasModified: 1
WasOrder2: 0
Layer: 2
Width: 62
VWidth: 0
LBearingChange: 0
UnicodeEnc: 0
InstructionsLength: 0
SplineSet
29.087890625 80 m 6
 36.587890625 80 l 6
 41.44140625 80 58.0693359375 70.5791015625 59.041015625 65.453125 c 5
 59.087890625 65.5 l 5
 59.087890625 50.5 l 5
 59.087890625 50 l 5
 44.8984375 37.8984375 l 5
 42 35 l 5
 35 35 l 5
 35 14.5 l 5
 34 14.5 l 5
 34 35 l 5
 29 35 l 5
 29 15.087890625 l 5
 34.087890625 10 l 5
 24.087890625 0 l 5
 14.087890625 10 l 5
 19 14.912109375 l 5
 19 62.5 l 5
 26.5 70 l 5
 19.087890625 70 l 6
 15.087890625 70 11.3720703125 68.0283203125 8.02734375 65.8359375 c 5
 12.271484375 70.3603515625 19.587890625 80 29.087890625 80 c 6
29 69.556640625 m 6
 29 57.5 l 5
 34 57.5 l 5
 34 67.537109375 l 6
 32.1591796875 68.427734375 30.427734375 69.1328125 29 69.556640625 c 6
20.5 69 m 5
 19.5 68.5 16.5 63.5 16.5 62.5 c 6
 16.5 19 l 6
 16.5 14 4 2.705078125 2.5 2.705078125 c 5
 3.5 3.205078125 6.5 8.205078125 6.5 9.205078125 c 6
 6.5 27.46875 l 6
 3.91796875 27.3154296875 -1.060546875 25.439453125 -2 24.5 c 5
 -2 26.84765625 3.7314453125 31.8408203125 6.5 32.439453125 c 6
 6.5 42.46875 l 6
 3.91796875 42.3154296875 -1.060546875 40.439453125 -2 39.5 c 5
 -2 41.84765625 3.7314453125 46.8408203125 6.5 47.439453125 c 6
 6.5 52.5 l 6
 6.5 57.5 19 69 20.5 69 c 5
35 67.03125 m 5
 35 45 l 5
 49.087890625 45 l 5
 49.087890625 55 l 6
 49.087890625 58.275390625 41.5859375 63.681640625 35 67.03125 c 5
29 56.5 m 5
 29 54 l 5
 34 54 l 5
 34 56.5 l 5
 29 56.5 l 5
29 53 m 5
 29 45 l 5
 34 45 l 5
 34 53 l 5
 29 53 l 5
EndSplineSet
EndUndoOperation
UndoOperation
Index: 4
Type: 1
WasModified: 1
WasOrder2: 0
Layer: 2
Width: 62
VWidth: 0
LBearingChange: 0
UnicodeEnc: 0
InstructionsLength: 0
SplineSet
30.087890625 80 m 6
 37.587890625 80 l 6
 42.44140625 80 59.0693359375 70.5791015625 60.041015625 65.453125 c 5
 60.087890625 65.5 l 5
 60.087890625 50.5 l 5
 60.087890625 50 l 5
 45.8984375 37.8984375 l 5
 43 35 l 5
 36 35 l 5
 36 14.5 l 5
 35 14.5 l 5
 35 35 l 5
 30 35 l 5
 30 15.087890625 l 5
 35.087890625 10 l 5
 25.087890625 0 l 5
 15.087890625 10 l 5
 20 14.912109375 l 5
 20 62.5 l 5
 27.5 70 l 5
 20.087890625 70 l 6
 16.087890625 70 12.3720703125 68.0283203125 9.02734375 65.8359375 c 5
 13.271484375 70.3603515625 20.587890625 80 30.087890625 80 c 6
30 69.556640625 m 6
 30 57.5 l 5
 35 57.5 l 5
 35 67.537109375 l 6
 33.1591796875 68.427734375 31.427734375 69.1328125 30 69.556640625 c 6
21.5 69 m 5
 20.5 68.5 17.5 63.5 17.5 62.5 c 6
 17.5 19 l 6
 17.5 14 5 2.705078125 3.5 2.705078125 c 5
 4.5 3.205078125 7.5 8.205078125 7.5 9.205078125 c 6
 7.5 27.46875 l 6
 4.91796875 27.3154296875 -0.060546875 25.439453125 -1 24.5 c 5
 -1 26.84765625 4.7314453125 31.8408203125 7.5 32.439453125 c 6
 7.5 42.46875 l 6
 4.91796875 42.3154296875 -0.060546875 40.439453125 -1 39.5 c 5
 -1 41.84765625 4.7314453125 46.8408203125 7.5 47.439453125 c 6
 7.5 52.5 l 6
 7.5 57.5 20 69 21.5 69 c 5
36 67.03125 m 5
 36 45 l 5
 50.087890625 45 l 5
 50.087890625 55 l 6
 50.087890625 58.275390625 42.5859375 63.681640625 36 67.03125 c 5
30 56.5 m 5
 30 54 l 5
 35 54 l 5
 35 56.5 l 5
 30 56.5 l 5
30 53 m 5
 30 45 l 5
 35 45 l 5
 35 53 l 5
 30 53 l 5
EndSplineSet
EndUndoOperation
UndoOperation
Index: 5
Type: 1
WasModified: 1
WasOrder2: 0
Layer: 2
Width: 62
VWidth: 0
LBearingChange: 0
UnicodeEnc: 0
InstructionsLength: 0
SplineSet
31.087890625 80 m 6
 38.587890625 80 l 6
 43.44140625 80 60.0693359375 70.5791015625 61.041015625 65.453125 c 5
 61.087890625 65.5 l 5
 61.087890625 50.5 l 5
 61.087890625 50 l 5
 46.8984375 37.8984375 l 5
 44 35 l 5
 37 35 l 5
 37 14.5 l 5
 36 14.5 l 5
 36 35 l 5
 31 35 l 5
 31 15.087890625 l 5
 36.087890625 10 l 5
 26.087890625 0 l 5
 16.087890625 10 l 5
 21 14.912109375 l 5
 21 62.5 l 5
 28.5 70 l 5
 21.087890625 70 l 6
 17.087890625 70 13.3720703125 68.0283203125 10.02734375 65.8359375 c 5
 14.271484375 70.3603515625 21.587890625 80 31.087890625 80 c 6
31 69.556640625 m 6
 31 57.5 l 5
 36 57.5 l 5
 36 67.537109375 l 6
 34.1591796875 68.427734375 32.427734375 69.1328125 31 69.556640625 c 6
22.5 69 m 5
 21.5 68.5 18.5 63.5 18.5 62.5 c 6
 18.5 19 l 6
 18.5 14 6 2.705078125 4.5 2.705078125 c 5
 5.5 3.205078125 8.5 8.205078125 8.5 9.205078125 c 6
 8.5 27.46875 l 6
 5.91796875 27.3154296875 0.939453125 25.439453125 -0 24.5 c 5
 -0 26.84765625 5.7314453125 31.8408203125 8.5 32.439453125 c 6
 8.5 42.46875 l 6
 5.91796875 42.3154296875 0.939453125 40.439453125 -0 39.5 c 5
 -0 41.84765625 5.7314453125 46.8408203125 8.5 47.439453125 c 6
 8.5 52.5 l 6
 8.5 57.5 21 69 22.5 69 c 5
37 67.03125 m 5
 37 45 l 5
 51.087890625 45 l 5
 51.087890625 55 l 6
 51.087890625 58.275390625 43.5859375 63.681640625 37 67.03125 c 5
31 56.5 m 5
 31 54 l 5
 36 54 l 5
 36 56.5 l 5
 31 56.5 l 5
31 53 m 5
 31 45 l 5
 36 45 l 5
 36 53 l 5
 31 53 l 5
EndSplineSet
EndUndoOperation
UndoOperation
Index: 6
Type: 1
WasModified: 1
WasOrder2: 0
Layer: 2
Width: 62
VWidth: 0
LBearingChange: 0
UnicodeEnc: 0
InstructionsLength: 0
EndUndoOperation
UndoOperation
Index: 7
Type: 3
WasModified: 1
WasOrder2: 0
Layer: 2
EndUndoOperation
UndoOperation
Index: 8
Type: 1
WasModified: 0
WasOrder2: 0
Layer: 2
Width: 62
VWidth: 0
LBearingChange: 0
UnicodeEnc: 0
InstructionsLength: 0
SplineSet
39.587890625 80 m 6
 44.44140625 80 61.0693359375 70.5791015625 62.041015625 65.453125 c 5
 62.087890625 65.5 l 5
 62.087890625 50.5 l 5
 62.087890625 50 l 5
 47.8984375 37.8984375 l 5
 45 35 l 5
 38 35 l 5
 38 14.5 l 5
 37 14.5 l 5
 37 35 l 5
 32 35 l 5
 32 15.087890625 l 5
 37.087890625 10 l 5
 27.087890625 0 l 5
 17.087890625 10 l 5
 22 14.912109375 l 5
 22 62.5 l 5
 22.25 62.75 l 5
 21.791015625 63.208984375 l 5
 39.587890625 80 l 6
32 69.556640625 m 6
 32 57.5 l 5
 37 57.5 l 5
 37 67.537109375 l 6
 35.1591796875 68.427734375 33.427734375 69.1328125 32 69.556640625 c 6
23.5 69 m 5
 22.5 68.5 19.5 63.5 19.5 62.5 c 6
 19.5 19 l 6
 19.5 14 7 2.705078125 5.5 2.705078125 c 5
 6.5 3.205078125 9.5 8.205078125 9.5 9.205078125 c 6
 9.5 27.46875 l 6
 6.91796875 27.3154296875 1.939453125 25.439453125 1 24.5 c 5
 1 26.84765625 6.7314453125 31.8408203125 9.5 32.439453125 c 6
 9.5 42.46875 l 6
 6.91796875 42.3154296875 1.939453125 40.439453125 1 39.5 c 5
 1 41.84765625 6.7314453125 46.8408203125 9.5 47.439453125 c 6
 9.5 52.5 l 6
 9.5 57.5 22 69 23.5 69 c 5
38 67.03125 m 5
 38 45 l 5
 52.087890625 45 l 5
 52.087890625 55 l 6
 52.087890625 58.275390625 44.5859375 63.681640625 38 67.03125 c 5
32 56.5 m 5
 32 54 l 5
 37 54 l 5
 37 56.5 l 5
 32 56.5 l 5
32 53 m 5
 32 45 l 5
 37 45 l 5
 37 53 l 5
 32 53 l 5
EndSplineSet
EndUndoOperation
UndoOperation
Index: 9
Type: 7
WasModified: 1
WasOrder2: 0
Layer: 2
Width: 119
EndUndoOperation
EndUndoes
Redoes
EndRedoes
EndUndoRedoHistory
Fore
SplineSet
26.087890625 80 m 2
 33.587890625 80 l 2
 38.44140625 80 55.0693359375 70.5791015625 56.041015625 65.453125 c 1
 56.087890625 65.5 l 1
 56.087890625 50.5 l 1
 56.087890625 50 l 1
 41.8984375 37.8984375 l 1
 39 35 l 1
 32 35 l 1
 32 14.5 l 1
 31 14.5 l 1
 31 35 l 1
 26 35 l 1
 26 15.087890625 l 1
 31.087890625 10 l 1
 21.087890625 0 l 1
 11.087890625 10 l 1
 16 14.912109375 l 1
 16 62.5 l 1
 23.5 70 l 1
 16.087890625 70 l 2
 12.087890625 70 8.3720703125 68.0283203125 5.02734375 65.8359375 c 1
 9.271484375 70.3603515625 16.587890625 80 26.087890625 80 c 2
26 69.556640625 m 2
 26 57.5 l 1
 31 57.5 l 1
 31 67.537109375 l 2
 29.1591796875 68.427734375 27.427734375 69.1328125 26 69.556640625 c 2
17.5 69 m 1
 16.5 68.5 13.5 63.5 13.5 62.5 c 2
 13.5 19 l 2
 13.5 14 1 2.705078125 -0.5 2.705078125 c 1
 0.5 3.205078125 3.5 8.205078125 3.5 9.205078125 c 2
 3.5 27.46875 l 2
 0.91796875 27.3154296875 -4.060546875 25.439453125 -5 24.5 c 1
 -5 26.84765625 0.7314453125 31.8408203125 3.5 32.439453125 c 2
 3.5 42.46875 l 2
 0.91796875 42.3154296875 -4.060546875 40.439453125 -5 39.5 c 1
 -5 41.84765625 0.7314453125 46.8408203125 3.5 47.439453125 c 2
 3.5 52.5 l 2
 3.5 57.5 16 69 17.5 69 c 1
32 67.03125 m 1
 32 45 l 1
 46.087890625 45 l 1
 46.087890625 55 l 2
 46.087890625 58.275390625 38.5859375 63.681640625 32 67.03125 c 1
26 56.5 m 1
 26 54 l 1
 31 54 l 1
 31 56.5 l 1
 26 56.5 l 1
26 53 m 1
 26 45 l 1
 31 45 l 1
 31 53 l 1
 26 53 l 1
EndSplineSet
EndChar

StartChar: Q
Encoding: 81 81 42
Width: 78
VWidth: 0
Flags: HW
LayerCount: 2
UndoRedoHistory
Layer: 1
Undoes
UndoOperation
Index: 0
Type: 7
WasModified: 1
WasOrder2: 0
Layer: 2
Width: 110
EndUndoOperation
EndUndoes
Redoes
EndRedoes
EndUndoRedoHistory
Fore
SplineSet
39.390625 80 m 0
 42.0341796875 79.927734375 44.697265625 79.8037109375 47.3125 79.38671875 c 0
 52.00390625 77.9638671875 56.4677734375 75.4375 59.912109375 71.904296875 c 0
 64.5830078125 66.80859375 68.4091796875 60.568359375 69.62109375 53.6796875 c 0
 70.71875 46.287109375 71.291015625 38.5068359375 69.203125 31.23828125 c 0
 66.81640625 25.3388671875 63.2861328125 19.919921875 58.927734375 15.275390625 c 1
 69.203125 5 l 2
 70.822265625 3.7392578125 72.8076171875 2.6796875 74.919921875 2.837890625 c 0
 76.0302734375 3.0322265625 76.916015625 3.779296875 77.841796875 4.365234375 c 1
 77.001953125 2.2880859375 67.94140625 -5.533203125 67.94140625 -5.533203125 c 2
 66.736328125 -6.34375 65.3798828125 -7.4033203125 63.83203125 -7.0390625 c 0
 62.236328125 -6.7890625 60.50390625 -5.9248046875 59.203125 -5 c 2
 47.892578125 6.310546875 l 2
 45.39453125 4.7919921875 42.7744140625 3.4755859375 40.048828125 2.4140625 c 0
 35.28125 0.271484375 29.9765625 0.3642578125 24.9140625 1.08984375 c 0
 21.1533203125 1.8935546875 17.681640625 3.9072265625 14.56640625 6.1171875 c 0
 8.8720703125 10.703125 4.763671875 17.2138671875 2.587890625 24.15625 c 0
 0.8466796875 32.0244140625 0.34375 40.36328125 2.06640625 48.27734375 c 0
 5.4384765625 57.853515625 12.216796875 66.0390625 20.3125 72.052734375 c 0
 25.998046875 75.9560546875 32.408203125 79.3994140625 39.390625 80 c 0
30.017578125 70.0078125 m 1
 30.017578125 70.01171875 l 1
 25.9970703125 70.0078125 21.77734375 69.1240234375 18.451171875 66.76171875 c 0
 11.806640625 62.1015625 10.6962890625 53.275390625 10.375 45.779296875 c 0
 10.5810546875 36.513671875 15.0849609375 27.828125 20.7734375 20.720703125 c 0
 25.779296875 14.705078125 33.619140625 10.740234375 41.455078125 10.607421875 c 1
 41.455078125 12.751953125 l 1
 36.705078125 17.501953125 l 2
 36.705078125 17.4921875 36.6953125 17.4921875 36.6953125 17.4921875 c 2
 35.005859375 18.6630859375 32.708984375 19.0810546875 30.802734375 18.205078125 c 0
 30.0400390625 17.7138671875 30.9306640625 18.4638671875 31.134765625 18.703125 c 2
 40.328125 27.896484375 l 2
 40.669921875 28.0986328125 41.0546875 28.2353515625 41.455078125 28.341796875 c 2
 41.455078125 48 l 1
 33.890625 48 l 1
 33.890625 40 l 1
 33.689453125 39.76953125 l 2
 33.755859375 39.7763671875 33.8310546875 39.8046875 33.890625 39.7939453125 c 0
 33.890625 34.794921875 21.390625 23.4990234375 19.890625 23.4990234375 c 1
 20.890625 23.9990234375 23.890625 28.9990234375 23.890625 29.9990234375 c 2
 23.890625 37.46875 l 2
 21.30859375 37.314453125 16.330078125 35.4384765625 15.390625 34.4990234375 c 1
 15.390625 36.8466796875 21.12109375 41.837890625 23.890625 42.439453125 c 2
 23.890625 44.96875 l 2
 21.30859375 44.814453125 16.330078125 42.9384765625 15.390625 41.9990234375 c 1
 15.390625 44.3466796875 21.12109375 49.337890625 23.890625 49.939453125 c 2
 23.890625 50 l 2
 23.890625 55 36.390625 66.5 37.890625 66.5 c 1
 36.890625 66 33.890625 61 33.890625 60 c 2
 33.890625 52.5 l 1
 41.455078125 52.5 l 1
 41.455078125 67.1796875 l 2
 37.9248046875 68.9521484375 34.0498046875 69.9951171875 30.017578125 70.0078125 c 1
42.455078125 66.658203125 m 1
 42.455078125 28.513671875 l 2
 43.9453125 28.6328125 45.5595703125 28.240234375 46.703125 27.5 c 2
 56.763671875 17.439453125 l 1
 59.236328125 20.9560546875 60.44140625 25.4658203125 60.853515625 29.693359375 c 0
 62.38671875 38.431640625 59.25 47.1806640625 54.68359375 54.5234375 c 0
 51.8095703125 59.5302734375 47.525390625 63.8583984375 42.455078125 66.658203125 c 1
33.890625 51.5 m 1
 33.890625 49 l 1
 41.455078125 49 l 1
 41.455078125 51.5 l 1
 33.890625 51.5 l 1
42.455078125 11.748046875 m 1
 43.54296875 10.66015625 l 2
 43.1806640625 10.6337890625 42.818359375 10.6181640625 42.455078125 10.609375 c 2
 42.455078125 11.748046875 l 1
EndSplineSet
Validated: 33
EndChar

StartChar: R
Encoding: 82 82 43
Width: 60
VWidth: 0
Flags: HW
LayerCount: 2
UndoRedoHistory
Layer: 1
Undoes
UndoOperation
Index: 0
Type: 1
WasModified: 1
WasOrder2: 0
Layer: 2
Width: 67
VWidth: 0
LBearingChange: 0
UnicodeEnc: 0
InstructionsLength: 0
SplineSet
29.212890625 80 m 2
 36.712890625 80 l 2
 41.712890625 80 59.212890625 70.5 59.212890625 65.5 c 2
 59.212890625 52 l 1
 59.212890625 50.5 l 1
 46.595703125 40.125 l 1
 55.125 31.76171875 l 1
 55.125 15.375 l 1
 60.5 10 l 1
 50.5 0 l 1
 40.5 10 l 1
 45.125 14.625 l 1
 45.125 21.76171875 l 1
 36.712890625 32 l 1
 32.625 32 l 1
 32.625 11.26171875 l 1
 31.625 11.26171875 l 1
 31.625 32 l 1
 26.625 32 l 1
 26.625 15.087890625 l 1
 31.712890625 10 l 1
 21.712890625 0 l 1
 11.712890625 10 l 1
 16.625 14.912109375 l 1
 16.625 60 l 1
 26.625 70 l 1
 26.625 54.26171875 l 1
 31.625 54.26171875 l 1
 31.625 68.712890625 l 2
 29.591796875 69.5068359375 27.8310546875 70 26.712890625 70 c 2
 26.625 70 l 1
 19.212890625 70 l 2
 15.212890625 70 11.4970703125 68.0283203125 8.15234375 65.8359375 c 1
 12.396484375 70.3603515625 19.712890625 80 29.212890625 80 c 2
32.625 68.3125 m 1
 32.625 42 l 1
 46.779296875 42 l 1
 49.212890625 44.0546875 l 1
 49.212890625 55.5 l 2
 49.212890625 59.2001953125 39.634765625 65.357421875 32.625 68.3125 c 1
17.5 67.01171875 m 1
 16.5 66.51171875 13.5 61.51171875 13.5 60.51171875 c 2
 13.5 17.01171875 l 2
 13.5 12.01171875 1 0.716796875 -0.5 0.716796875 c 1
 0.5 1.216796875 3.5 6.216796875 3.5 7.216796875 c 2
 3.5 25.48046875 l 2
 0.91796875 25.3271484375 -4.060546875 23.451171875 -5 22.51171875 c 1
 -5 24.859375 0.7314453125 29.8525390625 3.5 30.451171875 c 2
 3.5 40.48046875 l 2
 0.91796875 40.3271484375 -4.060546875 38.451171875 -5 37.51171875 c 1
 -5 39.859375 0.7314453125 44.8525390625 3.5 45.451171875 c 2
 3.5 50.51171875 l 2
 3.5 55.51171875 16 67.01171875 17.5 67.01171875 c 1
26.625 53.26171875 m 1
 26.625 50.76171875 l 1
 31.625 50.76171875 l 1
 31.625 53.26171875 l 1
 26.625 53.26171875 l 1
26.625 49.76171875 m 1
 26.625 42 l 1
 31.625 42 l 1
 31.625 49.76171875 l 1
 26.625 49.76171875 l 1
EndSplineSet
EndUndoOperation
UndoOperation
Index: 1
Type: 1
WasModified: 1
WasOrder2: 0
Layer: 2
Width: 67
VWidth: 0
LBearingChange: 0
UnicodeEnc: 0
InstructionsLength: 0
SplineSet
30.212890625 80 m 6
 37.712890625 80 l 6
 42.712890625 80 60.212890625 70.5 60.212890625 65.5 c 6
 60.212890625 52 l 5
 60.212890625 50.5 l 5
 47.595703125 40.125 l 5
 56.125 31.76171875 l 5
 56.125 15.375 l 5
 61.5 10 l 5
 51.5 0 l 5
 41.5 10 l 5
 46.125 14.625 l 5
 46.125 21.76171875 l 5
 37.712890625 32 l 5
 33.625 32 l 5
 33.625 11.26171875 l 5
 32.625 11.26171875 l 5
 32.625 32 l 5
 27.625 32 l 5
 27.625 15.087890625 l 5
 32.712890625 10 l 5
 22.712890625 0 l 5
 12.712890625 10 l 5
 17.625 14.912109375 l 5
 17.625 60 l 5
 27.625 70 l 5
 27.625 54.26171875 l 5
 32.625 54.26171875 l 5
 32.625 68.712890625 l 6
 30.591796875 69.5068359375 28.8310546875 70 27.712890625 70 c 6
 27.625 70 l 5
 20.212890625 70 l 6
 16.212890625 70 12.4970703125 68.0283203125 9.15234375 65.8359375 c 5
 13.396484375 70.3603515625 20.712890625 80 30.212890625 80 c 6
33.625 68.3125 m 5
 33.625 42 l 5
 47.779296875 42 l 5
 50.212890625 44.0546875 l 5
 50.212890625 55.5 l 6
 50.212890625 59.2001953125 40.634765625 65.357421875 33.625 68.3125 c 5
18.5 67.01171875 m 5
 17.5 66.51171875 14.5 61.51171875 14.5 60.51171875 c 6
 14.5 17.01171875 l 6
 14.5 12.01171875 2 0.716796875 0.5 0.716796875 c 5
 1.5 1.216796875 4.5 6.216796875 4.5 7.216796875 c 6
 4.5 25.48046875 l 6
 1.91796875 25.3271484375 -3.060546875 23.451171875 -4 22.51171875 c 5
 -4 24.859375 1.7314453125 29.8525390625 4.5 30.451171875 c 6
 4.5 40.48046875 l 6
 1.91796875 40.3271484375 -3.060546875 38.451171875 -4 37.51171875 c 5
 -4 39.859375 1.7314453125 44.8525390625 4.5 45.451171875 c 6
 4.5 50.51171875 l 6
 4.5 55.51171875 17 67.01171875 18.5 67.01171875 c 5
27.625 53.26171875 m 5
 27.625 50.76171875 l 5
 32.625 50.76171875 l 5
 32.625 53.26171875 l 5
 27.625 53.26171875 l 5
27.625 49.76171875 m 5
 27.625 42 l 5
 32.625 42 l 5
 32.625 49.76171875 l 5
 27.625 49.76171875 l 5
EndSplineSet
EndUndoOperation
UndoOperation
Index: 2
Type: 1
WasModified: 1
WasOrder2: 0
Layer: 2
Width: 67
VWidth: 0
LBearingChange: 0
UnicodeEnc: 0
InstructionsLength: 0
SplineSet
31.212890625 80 m 6
 38.712890625 80 l 6
 43.712890625 80 61.212890625 70.5 61.212890625 65.5 c 6
 61.212890625 52 l 5
 61.212890625 50.5 l 5
 48.595703125 40.125 l 5
 57.125 31.76171875 l 5
 57.125 15.375 l 5
 62.5 10 l 5
 52.5 0 l 5
 42.5 10 l 5
 47.125 14.625 l 5
 47.125 21.76171875 l 5
 38.712890625 32 l 5
 34.625 32 l 5
 34.625 11.26171875 l 5
 33.625 11.26171875 l 5
 33.625 32 l 5
 28.625 32 l 5
 28.625 15.087890625 l 5
 33.712890625 10 l 5
 23.712890625 0 l 5
 13.712890625 10 l 5
 18.625 14.912109375 l 5
 18.625 60 l 5
 28.625 70 l 5
 28.625 54.26171875 l 5
 33.625 54.26171875 l 5
 33.625 68.712890625 l 6
 31.591796875 69.5068359375 29.8310546875 70 28.712890625 70 c 6
 28.625 70 l 5
 21.212890625 70 l 6
 17.212890625 70 13.4970703125 68.0283203125 10.15234375 65.8359375 c 5
 14.396484375 70.3603515625 21.712890625 80 31.212890625 80 c 6
34.625 68.3125 m 5
 34.625 42 l 5
 48.779296875 42 l 5
 51.212890625 44.0546875 l 5
 51.212890625 55.5 l 6
 51.212890625 59.2001953125 41.634765625 65.357421875 34.625 68.3125 c 5
19.5 67.01171875 m 5
 18.5 66.51171875 15.5 61.51171875 15.5 60.51171875 c 6
 15.5 17.01171875 l 6
 15.5 12.01171875 3 0.716796875 1.5 0.716796875 c 5
 2.5 1.216796875 5.5 6.216796875 5.5 7.216796875 c 6
 5.5 25.48046875 l 6
 2.91796875 25.3271484375 -2.060546875 23.451171875 -3 22.51171875 c 5
 -3 24.859375 2.7314453125 29.8525390625 5.5 30.451171875 c 6
 5.5 40.48046875 l 6
 2.91796875 40.3271484375 -2.060546875 38.451171875 -3 37.51171875 c 5
 -3 39.859375 2.7314453125 44.8525390625 5.5 45.451171875 c 6
 5.5 50.51171875 l 6
 5.5 55.51171875 18 67.01171875 19.5 67.01171875 c 5
28.625 53.26171875 m 5
 28.625 50.76171875 l 5
 33.625 50.76171875 l 5
 33.625 53.26171875 l 5
 28.625 53.26171875 l 5
28.625 49.76171875 m 5
 28.625 42 l 5
 33.625 42 l 5
 33.625 49.76171875 l 5
 28.625 49.76171875 l 5
EndSplineSet
EndUndoOperation
UndoOperation
Index: 3
Type: 1
WasModified: 1
WasOrder2: 0
Layer: 2
Width: 67
VWidth: 0
LBearingChange: 0
UnicodeEnc: 0
InstructionsLength: 0
SplineSet
32.212890625 80 m 6
 39.712890625 80 l 6
 44.712890625 80 62.212890625 70.5 62.212890625 65.5 c 6
 62.212890625 52 l 5
 62.212890625 50.5 l 5
 49.595703125 40.125 l 5
 58.125 31.76171875 l 5
 58.125 15.375 l 5
 63.5 10 l 5
 53.5 0 l 5
 43.5 10 l 5
 48.125 14.625 l 5
 48.125 21.76171875 l 5
 39.712890625 32 l 5
 35.625 32 l 5
 35.625 11.26171875 l 5
 34.625 11.26171875 l 5
 34.625 32 l 5
 29.625 32 l 5
 29.625 15.087890625 l 5
 34.712890625 10 l 5
 24.712890625 0 l 5
 14.712890625 10 l 5
 19.625 14.912109375 l 5
 19.625 60 l 5
 29.625 70 l 5
 29.625 54.26171875 l 5
 34.625 54.26171875 l 5
 34.625 68.712890625 l 6
 32.591796875 69.5068359375 30.8310546875 70 29.712890625 70 c 6
 29.625 70 l 5
 22.212890625 70 l 6
 18.212890625 70 14.4970703125 68.0283203125 11.15234375 65.8359375 c 5
 15.396484375 70.3603515625 22.712890625 80 32.212890625 80 c 6
35.625 68.3125 m 5
 35.625 42 l 5
 49.779296875 42 l 5
 52.212890625 44.0546875 l 5
 52.212890625 55.5 l 6
 52.212890625 59.2001953125 42.634765625 65.357421875 35.625 68.3125 c 5
20.5 67.01171875 m 5
 19.5 66.51171875 16.5 61.51171875 16.5 60.51171875 c 6
 16.5 17.01171875 l 6
 16.5 12.01171875 4 0.716796875 2.5 0.716796875 c 5
 3.5 1.216796875 6.5 6.216796875 6.5 7.216796875 c 6
 6.5 25.48046875 l 6
 3.91796875 25.3271484375 -1.060546875 23.451171875 -2 22.51171875 c 5
 -2 24.859375 3.7314453125 29.8525390625 6.5 30.451171875 c 6
 6.5 40.48046875 l 6
 3.91796875 40.3271484375 -1.060546875 38.451171875 -2 37.51171875 c 5
 -2 39.859375 3.7314453125 44.8525390625 6.5 45.451171875 c 6
 6.5 50.51171875 l 6
 6.5 55.51171875 19 67.01171875 20.5 67.01171875 c 5
29.625 53.26171875 m 5
 29.625 50.76171875 l 5
 34.625 50.76171875 l 5
 34.625 53.26171875 l 5
 29.625 53.26171875 l 5
29.625 49.76171875 m 5
 29.625 42 l 5
 34.625 42 l 5
 34.625 49.76171875 l 5
 29.625 49.76171875 l 5
EndSplineSet
EndUndoOperation
UndoOperation
Index: 4
Type: 1
WasModified: 1
WasOrder2: 0
Layer: 2
Width: 67
VWidth: 0
LBearingChange: 0
UnicodeEnc: 0
InstructionsLength: 0
SplineSet
33.212890625 80 m 6
 40.712890625 80 l 6
 45.712890625 80 63.212890625 70.5 63.212890625 65.5 c 6
 63.212890625 52 l 5
 63.212890625 50.5 l 5
 50.595703125 40.125 l 5
 59.125 31.76171875 l 5
 59.125 15.375 l 5
 64.5 10 l 5
 54.5 0 l 5
 44.5 10 l 5
 49.125 14.625 l 5
 49.125 21.76171875 l 5
 40.712890625 32 l 5
 36.625 32 l 5
 36.625 11.26171875 l 5
 35.625 11.26171875 l 5
 35.625 32 l 5
 30.625 32 l 5
 30.625 15.087890625 l 5
 35.712890625 10 l 5
 25.712890625 0 l 5
 15.712890625 10 l 5
 20.625 14.912109375 l 5
 20.625 60 l 5
 30.625 70 l 5
 30.625 54.26171875 l 5
 35.625 54.26171875 l 5
 35.625 68.712890625 l 6
 33.591796875 69.5068359375 31.8310546875 70 30.712890625 70 c 6
 30.625 70 l 5
 23.212890625 70 l 6
 19.212890625 70 15.4970703125 68.0283203125 12.15234375 65.8359375 c 5
 16.396484375 70.3603515625 23.712890625 80 33.212890625 80 c 6
36.625 68.3125 m 5
 36.625 42 l 5
 50.779296875 42 l 5
 53.212890625 44.0546875 l 5
 53.212890625 55.5 l 6
 53.212890625 59.2001953125 43.634765625 65.357421875 36.625 68.3125 c 5
21.5 67.01171875 m 5
 20.5 66.51171875 17.5 61.51171875 17.5 60.51171875 c 6
 17.5 17.01171875 l 6
 17.5 12.01171875 5 0.716796875 3.5 0.716796875 c 5
 4.5 1.216796875 7.5 6.216796875 7.5 7.216796875 c 6
 7.5 25.48046875 l 6
 4.91796875 25.3271484375 -0.060546875 23.451171875 -1 22.51171875 c 5
 -1 24.859375 4.7314453125 29.8525390625 7.5 30.451171875 c 6
 7.5 40.48046875 l 6
 4.91796875 40.3271484375 -0.060546875 38.451171875 -1 37.51171875 c 5
 -1 39.859375 4.7314453125 44.8525390625 7.5 45.451171875 c 6
 7.5 50.51171875 l 6
 7.5 55.51171875 20 67.01171875 21.5 67.01171875 c 5
30.625 53.26171875 m 5
 30.625 50.76171875 l 5
 35.625 50.76171875 l 5
 35.625 53.26171875 l 5
 30.625 53.26171875 l 5
30.625 49.76171875 m 5
 30.625 42 l 5
 35.625 42 l 5
 35.625 49.76171875 l 5
 30.625 49.76171875 l 5
EndSplineSet
EndUndoOperation
UndoOperation
Index: 5
Type: 1
WasModified: 1
WasOrder2: 0
Layer: 2
Width: 67
VWidth: 0
LBearingChange: 0
UnicodeEnc: 0
InstructionsLength: 0
SplineSet
34.212890625 80 m 6
 41.712890625 80 l 6
 46.712890625 80 64.212890625 70.5 64.212890625 65.5 c 6
 64.212890625 52 l 5
 64.212890625 50.5 l 5
 51.595703125 40.125 l 5
 60.125 31.76171875 l 5
 60.125 15.375 l 5
 65.5 10 l 5
 55.5 0 l 5
 45.5 10 l 5
 50.125 14.625 l 5
 50.125 21.76171875 l 5
 41.712890625 32 l 5
 37.625 32 l 5
 37.625 11.26171875 l 5
 36.625 11.26171875 l 5
 36.625 32 l 5
 31.625 32 l 5
 31.625 15.087890625 l 5
 36.712890625 10 l 5
 26.712890625 0 l 5
 16.712890625 10 l 5
 21.625 14.912109375 l 5
 21.625 60 l 5
 31.625 70 l 5
 31.625 54.26171875 l 5
 36.625 54.26171875 l 5
 36.625 68.712890625 l 6
 34.591796875 69.5068359375 32.8310546875 70 31.712890625 70 c 6
 31.625 70 l 5
 24.212890625 70 l 6
 20.212890625 70 16.4970703125 68.0283203125 13.15234375 65.8359375 c 5
 17.396484375 70.3603515625 24.712890625 80 34.212890625 80 c 6
37.625 68.3125 m 5
 37.625 42 l 5
 51.779296875 42 l 5
 54.212890625 44.0546875 l 5
 54.212890625 55.5 l 6
 54.212890625 59.2001953125 44.634765625 65.357421875 37.625 68.3125 c 5
22.5 67.01171875 m 5
 21.5 66.51171875 18.5 61.51171875 18.5 60.51171875 c 6
 18.5 17.01171875 l 6
 18.5 12.01171875 6 0.716796875 4.5 0.716796875 c 5
 5.5 1.216796875 8.5 6.216796875 8.5 7.216796875 c 6
 8.5 25.48046875 l 6
 5.91796875 25.3271484375 0.939453125 23.451171875 0 22.51171875 c 5
 0 24.859375 5.7314453125 29.8525390625 8.5 30.451171875 c 6
 8.5 40.48046875 l 6
 5.91796875 40.3271484375 0.939453125 38.451171875 0 37.51171875 c 5
 0 39.859375 5.7314453125 44.8525390625 8.5 45.451171875 c 6
 8.5 50.51171875 l 6
 8.5 55.51171875 21 67.01171875 22.5 67.01171875 c 5
31.625 53.26171875 m 5
 31.625 50.76171875 l 5
 36.625 50.76171875 l 5
 36.625 53.26171875 l 5
 31.625 53.26171875 l 5
31.625 49.76171875 m 5
 31.625 42 l 5
 36.625 42 l 5
 36.625 49.76171875 l 5
 31.625 49.76171875 l 5
EndSplineSet
EndUndoOperation
UndoOperation
Index: 6
Type: 1
WasModified: 1
WasOrder2: 0
Layer: 2
Width: 67
VWidth: 0
LBearingChange: 0
UnicodeEnc: 0
InstructionsLength: 0
EndUndoOperation
UndoOperation
Index: 7
Type: 3
WasModified: 1
WasOrder2: 0
Layer: 2
EndUndoOperation
UndoOperation
Index: 8
Type: 1
WasModified: 0
WasOrder2: 0
Layer: 2
Width: 67
VWidth: 0
LBearingChange: 0
UnicodeEnc: 0
InstructionsLength: 0
SplineSet
42.421875 79.96875 m 5
 43.12890625 79.26171875 l 6
 48.1337890625 79.2568359375 65.625 69.2607421875 65.625 64.26171875 c 6
 65.625 49.26171875 l 5
 65.625 48.26171875 l 5
 53.990234375 38.896484375 l 5
 61.125 31.76171875 l 5
 61.125 15.375 l 5
 66.5 10 l 5
 56.5 0 l 5
 46.5 10 l 5
 51.125 14.625 l 5
 51.125 21.76171875 l 5
 43.625 31.76171875 l 5
 38.625 31.76171875 l 5
 38.625 11.26171875 l 5
 37.625 11.26171875 l 5
 37.625 31.76171875 l 5
 32.625 31.76171875 l 5
 32.625 15.08984375 l 5
 37.71484375 10 l 5
 27.71484375 0 l 5
 17.71484375 10 l 5
 22.625 14.91015625 l 5
 22.625 59.26171875 l 5
 22.875 59.51171875 l 5
 22.416015625 59.970703125 l 5
 42.421875 79.96875 l 5
34.380859375 69.103515625 m 6
 32.625 67.34765625 l 5
 32.625 54.26171875 l 5
 37.625 54.26171875 l 5
 37.625 68.076171875 l 6
 36.3994140625 68.5595703125 35.2919921875 68.9189453125 34.380859375 69.103515625 c 6
38.625 67.671875 m 5
 38.625 41.76171875 l 5
 55.375 41.76171875 l 5
 55.625 41.96875 l 5
 55.625 54.26171875 l 6
 55.625 58.03515625 45.6640625 64.650390625 38.625 67.671875 c 5
23.5 67.01171875 m 5
 22.5 66.51171875 19.5 61.51171875 19.5 60.51171875 c 6
 19.5 17.01171875 l 6
 19.5 12.01171875 7 0.716796875 5.5 0.716796875 c 5
 6.5 1.216796875 9.5 6.216796875 9.5 7.216796875 c 6
 9.5 25.48046875 l 6
 6.91796875 25.326171875 1.939453125 23.451171875 1 22.51171875 c 5
 1 24.859375 6.73046875 29.8505859375 9.5 30.451171875 c 6
 9.5 40.48046875 l 6
 6.91796875 40.326171875 1.939453125 38.451171875 1 37.51171875 c 5
 1 39.859375 6.73046875 44.8505859375 9.5 45.451171875 c 6
 9.5 50.51171875 l 6
 9.5 55.51171875 22 67.01171875 23.5 67.01171875 c 5
32.625 53.26171875 m 5
 32.625 50.76171875 l 5
 37.625 50.76171875 l 5
 37.625 53.26171875 l 5
 32.625 53.26171875 l 5
32.625 49.76171875 m 5
 32.625 41.76171875 l 5
 37.625 41.76171875 l 5
 37.625 49.76171875 l 5
 32.625 49.76171875 l 5
EndSplineSet
EndUndoOperation
UndoOperation
Index: 9
Type: 7
WasModified: 1
WasOrder2: 0
Layer: 2
Width: 118
EndUndoOperation
EndUndoes
Redoes
EndRedoes
EndUndoRedoHistory
Fore
SplineSet
29.212890625 80 m 2
 36.712890625 80 l 2
 41.712890625 80 59.212890625 70.5 59.212890625 65.5 c 2
 59.212890625 52 l 1
 59.212890625 50.5 l 1
 46.595703125 40.125 l 1
 55.125 31.76171875 l 1
 55.125 15.375 l 1
 60.5 10 l 1
 50.5 0 l 1
 40.5 10 l 1
 45.125 14.625 l 1
 45.125 21.76171875 l 1
 36.712890625 32 l 1
 32.625 32 l 1
 32.625 11.26171875 l 1
 31.625 11.26171875 l 1
 31.625 32 l 1
 26.625 32 l 1
 26.625 15.087890625 l 1
 31.712890625 10 l 1
 21.712890625 0 l 1
 11.712890625 10 l 1
 16.625 14.912109375 l 1
 16.625 60 l 1
 26.625 70 l 1
 26.625 54.26171875 l 1
 31.625 54.26171875 l 1
 31.625 68.712890625 l 2
 29.591796875 69.5068359375 27.8310546875 70 26.712890625 70 c 2
 26.625 70 l 1
 19.212890625 70 l 2
 15.212890625 70 11.4970703125 68.0283203125 8.15234375 65.8359375 c 1
 12.396484375 70.3603515625 19.712890625 80 29.212890625 80 c 2
32.625 68.3125 m 1
 32.625 42 l 1
 46.779296875 42 l 1
 49.212890625 44.0546875 l 1
 49.212890625 55.5 l 2
 49.212890625 59.2001953125 39.634765625 65.357421875 32.625 68.3125 c 1
17.5 67.01171875 m 1
 16.5 66.51171875 13.5 61.51171875 13.5 60.51171875 c 2
 13.5 17.01171875 l 2
 13.5 12.01171875 1 0.716796875 -0.5 0.716796875 c 1
 0.5 1.216796875 3.5 6.216796875 3.5 7.216796875 c 2
 3.5 25.48046875 l 2
 0.91796875 25.3271484375 -4.060546875 23.451171875 -5 22.51171875 c 1
 -5 24.859375 0.7314453125 29.8525390625 3.5 30.451171875 c 2
 3.5 40.48046875 l 2
 0.91796875 40.3271484375 -4.060546875 38.451171875 -5 37.51171875 c 1
 -5 39.859375 0.7314453125 44.8525390625 3.5 45.451171875 c 2
 3.5 50.51171875 l 2
 3.5 55.51171875 16 67.01171875 17.5 67.01171875 c 1
26.625 53.26171875 m 1
 26.625 50.76171875 l 1
 31.625 50.76171875 l 1
 31.625 53.26171875 l 1
 26.625 53.26171875 l 1
26.625 49.76171875 m 1
 26.625 42 l 1
 31.625 42 l 1
 31.625 49.76171875 l 1
 26.625 49.76171875 l 1
EndSplineSet
EndChar

StartChar: S
Encoding: 83 83 44
Width: 68
VWidth: 0
Flags: HW
LayerCount: 2
UndoRedoHistory
Layer: 1
Undoes
UndoOperation
Index: 0
Type: 1
WasModified: 1
WasOrder2: 0
Layer: 2
Width: 68
VWidth: 0
LBearingChange: 0
UnicodeEnc: 0
InstructionsLength: 0
SplineSet
30.541015625 80 m 1
 45.541015625 80 l 1
 68.041015625 62 l 2
 69.7724609375 61.455078125 71.388671875 61.6767578125 72.67578125 62.28515625 c 0
 72.986328125 62.376953125 74.083984375 63.1015625 73.3125 62.421875 c 0
 69.1103515625 59.0869140625 64.6083984375 50.1513671875 58.041015625 52 c 2
 35.541015625 70 l 1
 21.8984375 70 l 1
 21.291015625 69.40234375 l 1
 67.041015625 33 l 1
 67.041015625 31.5 l 1
 45.541015625 10 l 1
 35.541015625 0 l 1
 25.541015625 0 l 1
 0.541015625 20 l 2
 -1.1904296875 20.544921875 -2.806640625 20.3232421875 -4.09375 19.71484375 c 0
 -4.404296875 19.623046875 -5.501953125 18.8984375 -4.73046875 19.578125 c 0
 -0.52734375 22.9130859375 3.974609375 31.8486328125 10.541015625 30 c 2
 35.541015625 10 l 1
 44.041015625 10 l 1
 45.984375 11.943359375 l 1
 0.041015625 48.5 l 1
 -0.458984375 49 l 1
 10.541015625 60 l 1
 20.541015625 70 l 1
 30.541015625 80 l 1
11.19921875 59.4765625 m 1
 10.1328125 58.42578125 l 1
 55.984375 21.943359375 l 1
 57.041015625 23 l 1
 11.19921875 59.4765625 l 1
EndSplineSet
EndUndoOperation
EndUndoes
Redoes
EndRedoes
EndUndoRedoHistory
Fore
SplineSet
30.541015625 80 m 1
 45.541015625 80 l 1
 68.041015625 62 l 2
 69.7724609375 61.455078125 71.388671875 61.6767578125 72.67578125 62.28515625 c 0
 72.986328125 62.376953125 74.083984375 63.1015625 73.3125 62.421875 c 0
 69.1103515625 59.0869140625 64.6083984375 50.1513671875 58.041015625 52 c 2
 35.541015625 70 l 1
 21.8984375 70 l 1
 21.291015625 69.40234375 l 1
 67.041015625 33 l 1
 67.041015625 31.5 l 1
 45.541015625 10 l 1
 35.541015625 0 l 1
 25.541015625 0 l 1
 0.541015625 20 l 2
 -1.1904296875 20.544921875 -2.806640625 20.3232421875 -4.09375 19.71484375 c 0
 -4.404296875 19.623046875 -5.501953125 18.8984375 -4.73046875 19.578125 c 0
 -0.52734375 22.9130859375 3.974609375 31.8486328125 10.541015625 30 c 2
 35.541015625 10 l 1
 44.041015625 10 l 1
 45.984375 11.943359375 l 1
 0.041015625 48.5 l 1
 -0.458984375 49 l 1
 10.541015625 60 l 1
 20.541015625 70 l 1
 30.541015625 80 l 1
11.19921875 59.4765625 m 1
 10.1328125 58.42578125 l 1
 55.984375 21.943359375 l 1
 57.041015625 23 l 1
 11.19921875 59.4765625 l 1
EndSplineSet
EndChar

StartChar: T
Encoding: 84 84 45
Width: 72
VWidth: 0
Flags: HW
LayerCount: 2
UndoRedoHistory
Layer: 1
Undoes
UndoOperation
Index: 0
Type: 1
WasModified: 1
WasOrder2: 0
Layer: 2
Width: 72
VWidth: 0
LBearingChange: 0
UnicodeEnc: 0
InstructionsLength: 0
EndUndoOperation
EndUndoes
Redoes
EndRedoes
EndUndoRedoHistory
Fore
SplineSet
32.568359375 79.9970703125 m 1
 32.568359375 79.9970703125 l 2
 33.291015625 80.0078125 34.009765625 79.990234375 34.72265625 79.9404296875 c 0
 46.12890625 79.1455078125 54.9453125 71.591796875 65.20703125 71.4873046875 c 0
 68.783203125 71.5751953125 72.0234375 73.3759765625 74.50390625 75.8662109375 c 1
 67.94921875 66.13671875 60.150390625 61.0029296875 49.560546875 63.4326171875 c 1
 49.560546875 6.4931640625 l 2
 50.14453125 6.447265625 51.09375 6.3994140625 51.6796875 6.3857421875 c 0
 56.4521484375 6.3994140625 63.84765625 8.0205078125 68.1875 10.0048828125 c 1
 61.7333984375 3.5810546875 49.10546875 -1.638671875 40 -1.6455078125 c 0
 17.919921875 -1.6455078125 0 16.2744140625 0 38.3544921875 c 0
 0.025390625 47.90625 5.7099609375 60.951171875 12.689453125 67.4736328125 c 1
 9.3427734375 66.5927734375 5.7734375 65.2587890625 1.65625 63.3603515625 c 1
 9.9296875 72.904296875 21.7265625 79.82421875 32.568359375 79.9970703125 c 1
23.53515625 68.7802734375 m 0
 21.8212890625 68.8251953125 20.138671875 68.759765625 18.44140625 68.5732421875 c 0
 14.7197265625 63.0146484375 11.6904296875 53.07421875 11.6796875 46.3857421875 c 0
 11.697265625 25.982421875 28.2197265625 8.1328125 48.560546875 6.5419921875 c 1
 48.560546875 42.3544921875 l 1
 36.060546875 42.3544921875 l 1
 36.060546875 38.5595703125 l 1
 35.859375 38.328125 l 2
 35.92578125 38.3359375 36.001953125 38.36328125 36.060546875 38.353515625 c 0
 36.060546875 33.353515625 23.560546875 22.05859375 22.060546875 22.05859375 c 1
 23.060546875 22.55859375 26.060546875 27.55859375 26.060546875 28.55859375 c 2
 26.060546875 36.02734375 l 2
 23.478515625 35.8740234375 18.5 33.998046875 17.560546875 33.05859375 c 1
 17.560546875 35.40625 23.2919921875 40.3994140625 26.060546875 40.998046875 c 2
 26.060546875 43.52734375 l 2
 23.478515625 43.3740234375 18.5 41.498046875 17.560546875 40.55859375 c 1
 17.560546875 42.90625 23.2919921875 47.8994140625 26.060546875 48.498046875 c 2
 26.060546875 48.5595703125 l 2
 26.060546875 53.5595703125 38.560546875 65.0595703125 40.060546875 65.0595703125 c 1
 39.060546875 64.5595703125 36.060546875 59.5595703125 36.060546875 58.5595703125 c 2
 36.060546875 46.8544921875 l 1
 48.560546875 46.8544921875 l 1
 48.560546875 63.6669921875 l 2
 48.509765625 63.6806640625 48.4609375 63.6875 48.41015625 63.7021484375 c 0
 37.66796875 66.6689453125 30.3525390625 68.5986328125 23.53515625 68.7802734375 c 0
36.060546875 45.8544921875 m 1
 36.060546875 43.3544921875 l 1
 48.560546875 43.3544921875 l 1
 48.560546875 45.8544921875 l 1
 36.060546875 45.8544921875 l 1
EndSplineSet
EndChar

StartChar: U
Encoding: 85 85 46
Width: 57
VWidth: 0
Flags: HW
LayerCount: 2
UndoRedoHistory
Layer: 1
Undoes
UndoOperation
Index: 0
Type: 1
WasModified: 1
WasOrder2: 0
Layer: 2
Width: 64
VWidth: 0
LBearingChange: 0
UnicodeEnc: 0
InstructionsLength: 0
SplineSet
16.5 80 m 1
 26.5 70 l 1
 21.5 65 l 1
 21.5 52.5 l 1
 29.5 52.5 l 1
 29.5 69 l 1
 30.5 69 l 1
 30.5 15.6328125 l 2
 33.5625 12.5068359375 36.572265625 10 38 10 c 2
 44 10 l 1
 44 65 l 1
 39 70 l 1
 49 80 l 1
 54 75 l 1
 59 70 l 1
 54 65 l 1
 54 10 l 1
 57 10 l 2
 59.2412109375 9.626953125 63.46875 13.3349609375 62.244140625 12.16015625 c 0
 57.4375 8.796875 52.3515625 0.0126953125 47 0 c 2
 44 0 l 1
 29 0 l 2
 26.5 0 11.5 15 11.5 17.5 c 2
 11.5 64.775390625 l 2
 10.318359375 63.072265625 9 60.6640625 9 60 c 2
 9 16.5 l 2
 9 11.5 -3.5 0.205078125 -5 0.205078125 c 1
 -4 0.705078125 -1 5.705078125 -1 6.705078125 c 2
 -1 24.96875 l 2
 -3.58203125 24.8154296875 -8.560546875 22.939453125 -9.5 22 c 1
 -9.5 24.34765625 -3.7685546875 29.3408203125 -1 29.939453125 c 2
 -1 39.96875 l 2
 -3.58203125 39.8154296875 -8.560546875 37.939453125 -9.5 37 c 1
 -9.5 39.34765625 -3.7685546875 44.3408203125 -1 44.939453125 c 2
 -1 50 l 2
 -1 54.052734375 7.2080078125 62.3720703125 11.119140625 65.380859375 c 1
 6.5 70 l 1
 16.5 80 l 1
21.5 51.5 m 1
 21.5 49 l 1
 29.5 49 l 1
 29.5 51.5 l 1
 21.5 51.5 l 1
21.5 48 m 1
 21.5 27.5 l 2
 21.5 26.130859375 25.3994140625 21.021484375 29.5 16.671875 c 1
 29.5 48 l 1
 21.5 48 l 1
EndSplineSet
EndUndoOperation
EndUndoes
Redoes
EndRedoes
EndUndoRedoHistory
Fore
SplineSet
16.5 80 m 1
 26.5 70 l 1
 21.5 65 l 1
 21.5 52.5 l 1
 29.5 52.5 l 1
 29.5 69 l 1
 30.5 69 l 1
 30.5 15.6328125 l 2
 33.5625 12.5068359375 36.572265625 10 38 10 c 2
 44 10 l 1
 44 65 l 1
 39 70 l 1
 49 80 l 1
 54 75 l 1
 59 70 l 1
 54 65 l 1
 54 10 l 1
 57 10 l 2
 59.2412109375 9.626953125 63.46875 13.3349609375 62.244140625 12.16015625 c 0
 57.4375 8.796875 52.3515625 0.0126953125 47 0 c 2
 44 0 l 1
 29 0 l 2
 26.5 0 11.5 15 11.5 17.5 c 2
 11.5 64.775390625 l 2
 10.318359375 63.072265625 9 60.6640625 9 60 c 2
 9 16.5 l 2
 9 11.5 -3.5 0.205078125 -5 0.205078125 c 1
 -4 0.705078125 -1 5.705078125 -1 6.705078125 c 2
 -1 24.96875 l 2
 -3.58203125 24.8154296875 -8.560546875 22.939453125 -9.5 22 c 1
 -9.5 24.34765625 -3.7685546875 29.3408203125 -1 29.939453125 c 2
 -1 39.96875 l 2
 -3.58203125 39.8154296875 -8.560546875 37.939453125 -9.5 37 c 1
 -9.5 39.34765625 -3.7685546875 44.3408203125 -1 44.939453125 c 2
 -1 50 l 2
 -1 54.052734375 7.2080078125 62.3720703125 11.119140625 65.380859375 c 1
 6.5 70 l 1
 16.5 80 l 1
21.5 51.5 m 1
 21.5 49 l 1
 29.5 49 l 1
 29.5 51.5 l 1
 21.5 51.5 l 1
21.5 48 m 1
 21.5 27.5 l 2
 21.5 26.130859375 25.3994140625 21.021484375 29.5 16.671875 c 1
 29.5 48 l 1
 21.5 48 l 1
EndSplineSet
EndChar

StartChar: V
Encoding: 86 86 47
Width: 55
VWidth: 0
Flags: HW
LayerCount: 2
UndoRedoHistory
Layer: 1
Undoes
UndoOperation
Index: 0
Type: 1
WasModified: 1
WasOrder2: 0
Layer: 2
Width: 57
VWidth: 0
LBearingChange: 0
UnicodeEnc: 0
InstructionsLength: 0
SplineSet
20 80 m 1
 30 70 l 1
 25 65 l 1
 25 33.5 l 1
 31.5 33.5 l 1
 31.5 60 l 1
 32.5 60 l 1
 32.5 12.5 l 1
 31.5 12.5 l 1
 31.5 29 l 1
 25 29 l 1
 25 10 l 2
 25.4482421875 9.5517578125 30.71484375 9.1083984375 33.962890625 10.462890625 c 2
 42.5 19 l 1
 42.5 65 l 1
 37.5 70 l 1
 47.5 80 l 1
 57.5 70 l 1
 52.5 65 l 1
 52.5 27.5 l 1
 45.5 20.5 l 1
 25 0 l 1
 15 0 l 1
 15 65 l 1
 14.80078125 65.19921875 l 2
 13.5556640625 63.505859375 12 60.720703125 12 60 c 2
 12 16.5 l 2
 12 11.5 -0.5 0.205078125 -2 0.205078125 c 1
 -1 0.705078125 2 5.705078125 2 6.705078125 c 2
 2 24.96875 l 2
 -0.58203125 24.8154296875 -5.560546875 22.939453125 -6.5 22 c 1
 -6.5 24.34765625 -0.7685546875 29.3408203125 2 29.939453125 c 2
 2 39.96875 l 2
 -0.58203125 39.8154296875 -5.560546875 37.939453125 -6.5 37 c 1
 -6.5 39.34765625 -0.7685546875 44.3408203125 2 44.939453125 c 2
 2 50 l 2
 2 54.1611328125 10.638671875 62.8017578125 14.408203125 65.591796875 c 1
 10 70 l 1
 20 80 l 1
25 32.5 m 1
 25 30 l 1
 31.5 30 l 1
 31.5 32.5 l 1
 25 32.5 l 1
EndSplineSet
EndUndoOperation
EndUndoes
Redoes
EndRedoes
EndUndoRedoHistory
Fore
SplineSet
20 80 m 1
 30 70 l 1
 25 65 l 1
 25 33.5 l 1
 31.5 33.5 l 1
 31.5 60 l 1
 32.5 60 l 1
 32.5 12.5 l 1
 31.5 12.5 l 1
 31.5 29 l 1
 25 29 l 1
 25 10 l 2
 25.4482421875 9.5517578125 30.71484375 9.1083984375 33.962890625 10.462890625 c 2
 42.5 19 l 1
 42.5 65 l 1
 37.5 70 l 1
 47.5 80 l 1
 57.5 70 l 1
 52.5 65 l 1
 52.5 27.5 l 1
 45.5 20.5 l 1
 25 0 l 1
 15 0 l 1
 15 65 l 1
 14.80078125 65.19921875 l 2
 13.5556640625 63.505859375 12 60.720703125 12 60 c 2
 12 16.5 l 2
 12 11.5 -0.5 0.205078125 -2 0.205078125 c 1
 -1 0.705078125 2 5.705078125 2 6.705078125 c 2
 2 24.96875 l 2
 -0.58203125 24.8154296875 -5.560546875 22.939453125 -6.5 22 c 1
 -6.5 24.34765625 -0.7685546875 29.3408203125 2 29.939453125 c 2
 2 39.96875 l 2
 -0.58203125 39.8154296875 -5.560546875 37.939453125 -6.5 37 c 1
 -6.5 39.34765625 -0.7685546875 44.3408203125 2 44.939453125 c 2
 2 50 l 2
 2 54.1611328125 10.638671875 62.8017578125 14.408203125 65.591796875 c 1
 10 70 l 1
 20 80 l 1
25 32.5 m 1
 25 30 l 1
 31.5 30 l 1
 31.5 32.5 l 1
 25 32.5 l 1
EndSplineSet
EndChar

StartChar: W
Encoding: 87 87 48
Width: 66
VWidth: 0
Flags: HW
LayerCount: 2
UndoRedoHistory
Layer: 1
Undoes
UndoOperation
Index: 0
Type: 1
WasModified: 1
WasOrder2: 0
Layer: 2
Width: 73
VWidth: 0
LBearingChange: 0
UnicodeEnc: 0
InstructionsLength: 0
SplineSet
18 80 m 1
 28 70 l 1
 23 65 l 1
 23 20 l 1
 28 15 l 1
 28 49 l 1
 28 50 l 1
 28 52.5 l 1
 28 53.5 l 1
 28 60 l 1
 29 60 l 1
 29 53.5 l 1
 33 53.5 l 1
 33 65 l 1
 28 70 l 1
 38 80 l 1
 48 70 l 1
 43 65 l 1
 43 53.5 l 1
 47 53.5 l 1
 47 60 l 1
 48 60 l 1
 48 15 l 1
 52.25 10.75 l 1
 53 11.5 l 1
 53 65 l 1
 48 70 l 1
 58 80 l 1
 68 70 l 1
 63 65 l 1
 63 20 l 1
 56 13 l 1
 53 10 l 1
 43 0 l 1
 33 10 l 1
 23 0 l 1
 13 10 l 1
 13 64.775390625 l 2
 11.818359375 63.072265625 10.5 60.6640625 10.5 60 c 2
 10.5 16.5 l 2
 10.5 11.5 -2 0.205078125 -3.5 0.205078125 c 1
 -2.5 0.705078125 0.5 5.705078125 0.5 6.705078125 c 2
 0.5 24.96875 l 2
 -2.08203125 24.8154296875 -7.060546875 22.939453125 -8 22 c 1
 -8 24.34765625 -2.2685546875 29.3408203125 0.5 29.939453125 c 2
 0.5 39.96875 l 2
 -2.08203125 39.8154296875 -7.060546875 37.939453125 -8 37 c 1
 -8 39.34765625 -2.2685546875 44.3408203125 0.5 44.939453125 c 2
 0.5 50 l 2
 0.5 54.052734375 8.7080078125 62.3720703125 12.619140625 65.380859375 c 1
 8 70 l 1
 18 80 l 1
29 52.5 m 1
 29 50 l 1
 33 50 l 1
 33 52.5 l 1
 29 52.5 l 1
43 52.5 m 1
 43 50 l 1
 47 50 l 1
 47 52.5 l 1
 43 52.5 l 1
29 49 m 1
 29 14 l 1
 32.25 10.75 l 1
 33 11.5 l 1
 33 49 l 1
 29 49 l 1
43 49 m 1
 43 20 l 1
 47 16 l 1
 47 49 l 1
 43 49 l 1
EndSplineSet
EndUndoOperation
EndUndoes
Redoes
EndRedoes
EndUndoRedoHistory
Fore
SplineSet
18 80 m 1
 28 70 l 1
 23 65 l 1
 23 20 l 1
 28 15 l 1
 28 49 l 1
 28 50 l 1
 28 52.5 l 1
 28 53.5 l 1
 28 60 l 1
 29 60 l 1
 29 53.5 l 1
 33 53.5 l 1
 33 65 l 1
 28 70 l 1
 38 80 l 1
 48 70 l 1
 43 65 l 1
 43 53.5 l 1
 47 53.5 l 1
 47 60 l 1
 48 60 l 1
 48 15 l 1
 52.25 10.75 l 1
 53 11.5 l 1
 53 65 l 1
 48 70 l 1
 58 80 l 1
 68 70 l 1
 63 65 l 1
 63 20 l 1
 56 13 l 1
 53 10 l 1
 43 0 l 1
 33 10 l 1
 23 0 l 1
 13 10 l 1
 13 64.775390625 l 2
 11.818359375 63.072265625 10.5 60.6640625 10.5 60 c 2
 10.5 16.5 l 2
 10.5 11.5 -2 0.205078125 -3.5 0.205078125 c 1
 -2.5 0.705078125 0.5 5.705078125 0.5 6.705078125 c 2
 0.5 24.96875 l 2
 -2.08203125 24.8154296875 -7.060546875 22.939453125 -8 22 c 1
 -8 24.34765625 -2.2685546875 29.3408203125 0.5 29.939453125 c 2
 0.5 39.96875 l 2
 -2.08203125 39.8154296875 -7.060546875 37.939453125 -8 37 c 1
 -8 39.34765625 -2.2685546875 44.3408203125 0.5 44.939453125 c 2
 0.5 50 l 2
 0.5 54.052734375 8.7080078125 62.3720703125 12.619140625 65.380859375 c 1
 8 70 l 1
 18 80 l 1
29 52.5 m 1
 29 50 l 1
 33 50 l 1
 33 52.5 l 1
 29 52.5 l 1
43 52.5 m 1
 43 50 l 1
 47 50 l 1
 47 52.5 l 1
 43 52.5 l 1
29 49 m 1
 29 14 l 1
 32.25 10.75 l 1
 33 11.5 l 1
 33 49 l 1
 29 49 l 1
43 49 m 1
 43 20 l 1
 47 16 l 1
 47 49 l 1
 43 49 l 1
EndSplineSet
EndChar

StartChar: X
Encoding: 88 88 49
Width: 54
VWidth: 0
Flags: HW
LayerCount: 2
UndoRedoHistory
Layer: 1
Undoes
UndoOperation
Index: 0
Type: 1
WasModified: 1
WasOrder2: 0
Layer: 2
Width: 57
VWidth: 0
LBearingChange: 0
UnicodeEnc: 0
InstructionsLength: 0
SplineSet
7.91015625 80 m 1
 17.91015625 70 l 1
 12.822265625 64.912109375 l 1
 12.822265625 57.5 l 1
 25.322265625 45 l 1
 34.822265625 45 l 1
 37.822265625 48 l 1
 37.822265625 65.02734375 l 1
 32.849609375 70 l 1
 42.849609375 80 l 1
 52.849609375 70 l 1
 47.822265625 64.97265625 l 1
 47.822265625 56.5 l 1
 40.322265625 49 l 1
 36.322265625 45 l 1
 48.822265625 32.5 l 1
 48.822265625 15.177734375 l 1
 54 10 l 1
 44 0 l 1
 34 10 l 1
 38.822265625 14.822265625 l 1
 38.822265625 22.5 l 1
 26.322265625 35 l 1
 15.822265625 35 l 1
 12.822265625 32 l 1
 12.822265625 15 l 1
 17.822265625 10 l 1
 7.822265625 0 l 1
 -2.177734375 10 l 1
 2.822265625 15 l 1
 2.822265625 23.5 l 1
 10.322265625 31 l 1
 14.822265625 35.5 l 1
 2.822265625 47.5 l 1
 2.822265625 65.087890625 l 1
 -2.08984375 70 l 1
 7.91015625 80 l 1
EndSplineSet
EndUndoOperation
EndUndoes
Redoes
EndRedoes
EndUndoRedoHistory
Fore
SplineSet
7.91015625 80 m 1
 17.91015625 70 l 1
 12.822265625 64.912109375 l 1
 12.822265625 57.5 l 1
 25.322265625 45 l 1
 34.822265625 45 l 1
 37.822265625 48 l 1
 37.822265625 65.02734375 l 1
 32.849609375 70 l 1
 42.849609375 80 l 1
 52.849609375 70 l 1
 47.822265625 64.97265625 l 1
 47.822265625 56.5 l 1
 40.322265625 49 l 1
 36.322265625 45 l 1
 48.822265625 32.5 l 1
 48.822265625 15.177734375 l 1
 54 10 l 1
 44 0 l 1
 34 10 l 1
 38.822265625 14.822265625 l 1
 38.822265625 22.5 l 1
 26.322265625 35 l 1
 15.822265625 35 l 1
 12.822265625 32 l 1
 12.822265625 15 l 1
 17.822265625 10 l 1
 7.822265625 0 l 1
 -2.177734375 10 l 1
 2.822265625 15 l 1
 2.822265625 23.5 l 1
 10.322265625 31 l 1
 14.822265625 35.5 l 1
 2.822265625 47.5 l 1
 2.822265625 65.087890625 l 1
 -2.08984375 70 l 1
 7.91015625 80 l 1
EndSplineSet
Validated: 1
EndChar

StartChar: Y
Encoding: 89 89 50
Width: 60
VWidth: 0
Flags: HW
LayerCount: 2
UndoRedoHistory
Layer: 1
Undoes
UndoOperation
Index: 0
Type: 1
WasModified: 1
WasOrder2: 0
Layer: 2
Width: 65
VWidth: 0
LBearingChange: 0
UnicodeEnc: 0
InstructionsLength: 0
SplineSet
20.5 77.5 m 1
 30.5 67.5 l 1
 25.5 62.5 l 1
 25.5 50 l 1
 33.5 50 l 1
 33.5 66.5 l 1
 34.5 66.5 l 1
 34.5 20.634765625 l 2
 37.5625 17.5087890625 40.572265625 15 42 15 c 2
 48 15 l 1
 48 62.5 l 1
 43 67.5 l 1
 53 77.5 l 1
 58 72.5 l 1
 63 67.5 l 1
 58 62.5 l 1
 58 15 l 1
 58 4.5 l 1
 58.2421875 4.408203125 l 1
 58 4.185546875 l 1
 58 2.5 l 1
 57.978515625 2.478515625 l 2
 57.9296875 -1.0732421875 57.7666015625 -5.61328125 57.5 -6 c 0
 52.8837890625 -12.6845703125 45.6708984375 -20.4931640625 39.5 -25 c 0
 31.4306640625 -31.265625 18.96875 -31.0810546875 13.236328125 -20.494140625 c 0
 10.3623046875 -15.19921875 12.6123046875 -1.1650390625 18.34765625 1.908203125 c 1
 17.53125 -11.0791015625 25.1044921875 -19.13671875 41.0703125 -18.462890625 c 0
 47.8583984375 -17.306640625 48 -10.5 48 -5 c 2
 48 5 l 1
 33 5 l 2
 30.5 5 15.5 20 15.5 22.5 c 2
 15.5 62.5 l 1
 10.5 67.5 l 1
 20.5 77.5 l 1
13 61.5 m 1
 12 61 9 56 9 55 c 2
 9 25 l 2
 9 20 -3.5 8.705078125 -5 8.705078125 c 1
 -4 9.205078125 -1 14.205078125 -1 15.205078125 c 2
 -1 24.96875 l 2
 -3.58203125 24.8154296875 -8.560546875 22.939453125 -9.5 22 c 1
 -9.5 24.34765625 -3.7685546875 29.3408203125 -1 29.939453125 c 2
 -1 37.46875 l 2
 -3.58203125 37.3154296875 -8.560546875 35.439453125 -9.5 34.5 c 1
 -9.5 36.84765625 -3.7685546875 41.8408203125 -1 42.439453125 c 2
 -1 45 l 2
 -1 50 11.5 61.5 13 61.5 c 1
25.5 49 m 1
 25.5 46.5 l 1
 33.5 46.5 l 1
 33.5 49 l 1
 25.5 49 l 1
25.5 45.5 m 1
 25.5 32.5 l 2
 25.5 31.130859375 29.3994140625 26.021484375 33.5 21.671875 c 1
 33.5 45.5 l 1
 25.5 45.5 l 1
EndSplineSet
EndUndoOperation
EndUndoes
Redoes
EndRedoes
EndUndoRedoHistory
Fore
SplineSet
20.5 77.5 m 1
 30.5 67.5 l 1
 25.5 62.5 l 1
 25.5 50 l 1
 33.5 50 l 1
 33.5 66.5 l 1
 34.5 66.5 l 1
 34.5 20.634765625 l 2
 37.5625 17.5087890625 40.572265625 15 42 15 c 2
 48 15 l 1
 48 62.5 l 1
 43 67.5 l 1
 53 77.5 l 1
 58 72.5 l 1
 63 67.5 l 1
 58 62.5 l 1
 58 15 l 1
 58 4.5 l 1
 58.2421875 4.408203125 l 1
 58 4.185546875 l 1
 58 2.5 l 1
 57.978515625 2.478515625 l 2
 57.9296875 -1.0732421875 57.7666015625 -5.61328125 57.5 -6 c 0
 52.8837890625 -12.6845703125 45.6708984375 -20.4931640625 39.5 -25 c 0
 31.4306640625 -31.265625 18.96875 -31.0810546875 13.236328125 -20.494140625 c 0
 10.3623046875 -15.19921875 12.6123046875 -1.1650390625 18.34765625 1.908203125 c 1
 17.53125 -11.0791015625 25.1044921875 -19.13671875 41.0703125 -18.462890625 c 0
 47.8583984375 -17.306640625 48 -10.5 48 -5 c 2
 48 5 l 1
 33 5 l 2
 30.5 5 15.5 20 15.5 22.5 c 2
 15.5 62.5 l 1
 10.5 67.5 l 1
 20.5 77.5 l 1
13 61.5 m 1
 12 61 9 56 9 55 c 2
 9 25 l 2
 9 20 -3.5 8.705078125 -5 8.705078125 c 1
 -4 9.205078125 -1 14.205078125 -1 15.205078125 c 2
 -1 24.96875 l 2
 -3.58203125 24.8154296875 -8.560546875 22.939453125 -9.5 22 c 1
 -9.5 24.34765625 -3.7685546875 29.3408203125 -1 29.939453125 c 2
 -1 37.46875 l 2
 -3.58203125 37.3154296875 -8.560546875 35.439453125 -9.5 34.5 c 1
 -9.5 36.84765625 -3.7685546875 41.8408203125 -1 42.439453125 c 2
 -1 45 l 2
 -1 50 11.5 61.5 13 61.5 c 1
25.5 49 m 1
 25.5 46.5 l 1
 33.5 46.5 l 1
 33.5 49 l 1
 25.5 49 l 1
25.5 45.5 m 1
 25.5 32.5 l 2
 25.5 31.130859375 29.3994140625 26.021484375 33.5 21.671875 c 1
 33.5 45.5 l 1
 25.5 45.5 l 1
EndSplineSet
EndChar

StartChar: Z
Encoding: 90 90 51
Width: 56
VWidth: 0
Flags: HW
LayerCount: 2
UndoRedoHistory
Layer: 1
Undoes
UndoOperation
Index: 0
Type: 1
WasModified: 1
WasOrder2: 0
Layer: 2
Width: 56
VWidth: 0
LBearingChange: 0
UnicodeEnc: 0
InstructionsLength: 0
EndUndoOperation
UndoOperation
Index: 1
Type: 3
WasModified: 1
WasOrder2: 0
Layer: 2
EndUndoOperation
UndoOperation
Index: 2
Type: 1
WasModified: 0
WasOrder2: 0
Layer: 2
Width: 56
VWidth: 0
LBearingChange: 0
UnicodeEnc: 0
InstructionsLength: 0
SplineSet
11 80 m 5
 56 80 l 5
 56 68 l 5
 56 65.5 l 5
 56 62.5 l 5
 56 60.5 l 5
 40.111328125 47.5 l 5
 51 47.5 l 5
 41 37.5 l 5
 27.888671875 37.5 l 5
 11 23.681640625 l 5
 11 10 l 5
 56 10 l 5
 46 0 l 5
 1 0 l 5
 1 15.5 l 5
 1 17.5 l 5
 1 20 l 5
 1 22 l 5
 19.533203125 37.5 l 5
 6 37.5 l 5
 16 47.5 l 5
 31.48828125 47.5 l 5
 46 59.63671875 l 5
 46 70 l 5
 1 70 l 5
 11 80 l 5
46 57.2265625 m 5
 34.2421875 47.5 l 5
 37.263671875 47.5 l 5
 46 54.7265625 l 5
 46 57.2265625 l 5
22.154296875 37.5 m 5
 11 28.2734375 l 5
 11 25.7734375 l 5
 25.17578125 37.5 l 5
 22.154296875 37.5 l 5
EndSplineSet
EndUndoOperation
UndoOperation
Index: 3
Type: 7
WasModified: 1
WasOrder2: 0
Layer: 2
Width: 111
EndUndoOperation
EndUndoes
Redoes
EndRedoes
EndUndoRedoHistory
Fore
SplineSet
17.5 80 m 1
 55 80 l 1
 55 77.5 l 1
 55 75 l 1
 55 72.5 l 1
 36.03515625 47.5 l 1
 50 47.5 l 1
 40 37.5 l 1
 28.44921875 37.5 l 1
 10 13.181640625 l 1
 10 10 l 1
 45 10 l 2
 47.5 10 50.037109375 11.705078125 52 13 c 1
 49.8310546875 5.96484375 41.599609375 0.2509765625 35.044921875 0.044921875 c 1
 35 0 l 1
 0 0 l 1
 0 2 l 1
 0 5 l 1
 0 7 l 1
 0 7.5 l 1
 6.466796875 15.58203125 l 1
 22.978515625 37.5 l 1
 5 37.5 l 1
 15 47.5 l 1
 30.513671875 47.5 l 1
 45 66.7265625 l 1
 45 70 l 1
 7.5 70 l 2
 5 70 2.462890625 68.294921875 0.5 67 c 1
 2.6689453125 74.03515625 10.900390625 79.7490234375 17.455078125 79.955078125 c 1
 17.5 80 l 1
45 64.318359375 m 1
 32.2421875 47.5 l 1
 34.28125 47.5 l 1
 45 61.7265625 l 1
 45 64.318359375 l 1
24.654296875 37.5 m 1
 10 18.181640625 l 1
 10 15.2734375 l 1
 26.74609375 37.5 l 1
 24.654296875 37.5 l 1
EndSplineSet
EndChar

StartChar: one
Encoding: 49 49 52
Width: 27
VWidth: 0
Flags: HW
LayerCount: 2
UndoRedoHistory
Layer: 1
Undoes
UndoOperation
Index: 0
Type: 7
WasModified: 1
WasOrder2: 0
Layer: 2
Width: 111
EndUndoOperation
EndUndoes
Redoes
EndRedoes
EndUndoRedoHistory
Fore
SplineSet
20 75.056640625 m 5
 20 75.041015625 l 6
 20.0126953125 75.041015625 20.0263671875 75.0400390625 20.0390625 75.041015625 c 5
 20.0380859375 74.966796875 20.0126953125 74.884765625 20 74.806640625 c 6
 20 12.037109375 l 6
 22.716796875 11.5849609375 25.98046875 10.736328125 27 10.056640625 c 5
 23.84765625 6.904296875 20.7578125 3.15234375 17.60546875 0 c 5
 12.341796875 3.62109375 6.7138671875 2.4892578125 1 0.556640625 c 5
 3.919921875 3.9638671875 6.97265625 7.2421875 10 10.265625 c 6
 10 64.541015625 l 6
 8.2705078125 64.521484375 6.0498046875 63.4833984375 3 60.556640625 c 5
 3.1181640625 64.037109375 13.9013671875 74.517578125 19.9765625 75.033203125 c 6
 20 75.056640625 l 5
EndSplineSet
Validated: 33
EndChar

StartChar: two
Encoding: 50 50 53
Width: 47
VWidth: 0
Flags: HW
LayerCount: 2
UndoRedoHistory
Layer: 1
Undoes
UndoOperation
Index: 0
Type: 7
WasModified: 1
WasOrder2: 0
Layer: 2
Width: 111
EndUndoOperation
EndUndoes
Redoes
EndRedoes
EndUndoRedoHistory
Fore
SplineSet
31 80 m 1
 43 67.5 l 1
 43 44.25 l 1
 43 43 l 1
 12.302734375 10 l 1
 43 10 l 2
 44 10 45.5078125 10.6640625 46.591796875 11.77734375 c 1
 45.4990234375 8 35.5 0 33 0 c 2
 3 0 l 1
 1 0 l 1
 33 34.28515625 l 1
 33 57.5 l 1
 21.619140625 69.353515625 l 1
 15.5 63.38671875 l 1
 15.5 52.5 l 1
 5.5 42.5 l 1
 5.5 55 l 1
 11 60.5 l 1
 15.5 65 l 1
 15.5 64.88671875 l 1
 31 80 l 1
EndSplineSet
Validated: 1
EndChar

StartChar: three
Encoding: 51 51 54
Width: 39
VWidth: 0
Flags: HW
LayerCount: 2
UndoRedoHistory
Layer: 1
Undoes
UndoOperation
Index: 0
Type: 7
WasModified: 1
WasOrder2: 0
Layer: 2
Width: 111
EndUndoOperation
EndUndoes
Redoes
EndRedoes
EndUndoRedoHistory
Fore
SplineSet
26.5 80 m 1
 38.5 67.5 l 1
 38.5 58.8125 l 1
 38.5 57.5 l 1
 27.48046875 46.48046875 l 1
 38.5 35 l 1
 38.5 15 l 1
 33.5 10 l 1
 23.5 0 l 1
 13.5 0 l 1
 1.5 12.5 l 1
 1.5 23.11328125 l 1
 11.5 33.11328125 l 1
 11.5 22.5 l 1
 23.5 10 l 1
 28.5 10 l 1
 28.5 25 l 1
 16.5 37.5 l 1
 19 40 l 1
 28.5 49.5 l 1
 28.5 57.5 l 1
 17.119140625 69.353515625 l 1
 11 63.38671875 l 1
 11 54.38671875 l 1
 1 44.38671875 l 1
 1 55 l 1
 6.5 60.5 l 1
 11 65 l 1
 11 64.88671875 l 1
 26.5 80 l 1
EndSplineSet
Validated: 1
EndChar

StartChar: four
Encoding: 52 52 55
Width: 44
VWidth: 0
Flags: HW
LayerCount: 2
UndoRedoHistory
Layer: 1
Undoes
UndoOperation
Index: 0
Type: 7
WasModified: 1
WasOrder2: 0
Layer: 2
Width: 111
EndUndoOperation
EndUndoes
Redoes
EndRedoes
EndUndoRedoHistory
Fore
SplineSet
41 80 m 1
 41 79.88671875 l 1
 41 78 l 1
 41 11 l 1
 44 8 l 1
 36 0 l 1
 28 8 l 1
 31 11 l 1
 31 30.5 l 1
 1 30.5 l 1
 1 40.5 l 1
 1 41 l 1
 1 43 l 1
 41 80 l 1
31 68.625 m 1
 11 49.875 l 1
 11 40.5 l 1
 31 40.5 l 1
 31 68.625 l 1
EndSplineSet
Validated: 1
EndChar

StartChar: five
Encoding: 53 53 56
Width: 43
VWidth: 0
Flags: HW
LayerCount: 2
UndoRedoHistory
Layer: 1
Undoes
UndoOperation
Index: 0
Type: 7
WasModified: 1
WasOrder2: 0
Layer: 2
Width: 111
EndUndoOperation
EndUndoes
Redoes
EndRedoes
EndUndoRedoHistory
Fore
SplineSet
13.5 80 m 1
 38.5 80 l 1
 43.5 75 l 1
 43.5 67.5 l 1
 33.5 57.5 l 1
 33.5 65 l 1
 28.5 70 l 1
 14 70 l 1
 14 55 l 1
 14 50 l 1
 31 50 l 1
 43.5 40 l 1
 43.5 17.5 l 1
 36 10 l 1
 33.5 7.5 l 1
 26 0 l 1
 13 0 l 1
 1 12.5 l 1
 11 22.5 l 1
 23 10 l 1
 33.5 10 l 1
 33.5 30 l 1
 21 40 l 1
 4 40 l 1
 4 45 l 1
 4 69.88671875 l 1
 4.11328125 70 l 1
 4 70 l 1
 13.5 80 l 1
EndSplineSet
Validated: 1
EndChar

StartChar: six
Encoding: 54 54 57
Width: 43
VWidth: 0
Flags: HW
LayerCount: 2
UndoRedoHistory
Layer: 1
Undoes
UndoOperation
Index: 0
Type: 1
WasModified: 1
WasOrder2: 0
Layer: 2
Width: 43
VWidth: 0
LBearingChange: 0
UnicodeEnc: 0
InstructionsLength: 0
EndUndoOperation
UndoOperation
Index: 1
Type: 3
WasModified: 1
WasOrder2: 0
Layer: 2
EndUndoOperation
UndoOperation
Index: 2
Type: 1
WasModified: 0
WasOrder2: 0
Layer: 2
Width: 43
VWidth: 0
LBearingChange: 0
UnicodeEnc: 0
InstructionsLength: 0
SplineSet
16 80 m 5
 35.5 80 l 5
 43 72.5 l 5
 43 65 l 5
 33 55 l 5
 33 62.5 l 5
 25.5 70 l 5
 11 70 l 5
 11 55 l 5
 11 50 l 5
 28 50 l 5
 40.5 40 l 5
 40.5 17.5 l 5
 33 10 l 5
 30.5 7.5 l 5
 23 0 l 5
 13 0 l 5
 1 12.5 l 5
 1 45 l 5
 1 65 l 5
 6 70 l 5
 16 80 l 5
11 40 m 5
 11 22.5 l 5
 23 10 l 5
 30.5 10 l 5
 30.5 30 l 5
 18 40 l 5
 11 40 l 5
EndSplineSet
EndUndoOperation
UndoOperation
Index: 3
Type: 7
WasModified: 1
WasOrder2: 0
Layer: 2
Width: 111
EndUndoOperation
EndUndoes
Redoes
EndRedoes
EndUndoRedoHistory
Fore
SplineSet
19.5 80 m 1
 34.5 80 l 1
 41 73.5 l 1
 41 68 l 1
 31 58 l 1
 31 63.5 l 1
 24.5 70 l 1
 10 70 l 1
 10 55 l 1
 10 50 l 1
 27 50 l 1
 39.5 40 l 1
 39.5 17.5 l 1
 32 10 l 1
 29.5 7.5 l 1
 22 0 l 1
 12 0 l 1
 0 12.5 l 1
 0 45 l 1
 0 60.5 l 1
 9.5 70 l 1
 19.5 80 l 1
10 40 m 1
 10 22.5 l 1
 22 10 l 1
 29.5 10 l 1
 29.5 30 l 1
 17 40 l 1
 10 40 l 1
EndSplineSet
EndChar

StartChar: seven
Encoding: 55 55 58
Width: 51
VWidth: 0
Flags: HW
LayerCount: 2
UndoRedoHistory
Layer: 1
Undoes
UndoOperation
Index: 0
Type: 7
WasModified: 1
WasOrder2: 0
Layer: 2
Width: 111
EndUndoOperation
EndUndoes
Redoes
EndRedoes
EndUndoRedoHistory
Fore
SplineSet
11 80 m 1
 51 80 l 1
 51 62.5 l 1
 51 60.5 l 1
 31 41.833984375 l 1
 31 11 l 1
 34 8 l 1
 26 0 l 1
 18 8 l 1
 21 11 l 1
 21 32.5 l 1
 21 34.5 l 1
 41 53.166015625 l 1
 41 70 l 1
 8.5 70 l 1
 1 62.5 l 1
 1 70 l 1
 11 80 l 1
EndSplineSet
Validated: 1
EndChar

StartChar: nine
Encoding: 57 57 59
Width: 39
VWidth: 0
Flags: HW
LayerCount: 2
UndoRedoHistory
Layer: 1
Undoes
UndoOperation
Index: 0
Type: 7
WasModified: 1
WasOrder2: 0
Layer: 2
Width: 111
EndUndoOperation
EndUndoes
Redoes
EndRedoes
EndUndoRedoHistory
Fore
SplineSet
26.5 80 m 1
 38.5 67.5 l 1
 38.5 30 l 1
 38.5 15 l 1
 33.5 10 l 1
 23.5 0 l 1
 8.5 0 l 1
 1 7.5 l 1
 1 15 l 1
 11 25 l 1
 11 17.5 l 1
 18.5 10 l 1
 28.5 10 l 1
 28.5 20 l 1
 28.5 30 l 1
 13.9765625 30 l 1
 13.5 29.5 l 1
 1 40 l 1
 1 55 l 1
 6.5 60.5 l 1
 11 65 l 1
 11 64.88671875 l 1
 26.5 80 l 1
17.119140625 69.353515625 m 1
 11 63.38671875 l 1
 11 50 l 1
 23.5 40 l 1
 28.5 40 l 1
 28.5 57.5 l 1
 17.119140625 69.353515625 l 1
EndSplineSet
Validated: 1
EndChar

StartChar: eight
Encoding: 56 56 60
Width: 38
VWidth: 0
Flags: HW
LayerCount: 2
UndoRedoHistory
Layer: 1
Undoes
UndoOperation
Index: 0
Type: 1
WasModified: 1
WasOrder2: 0
Layer: 2
Width: 39
VWidth: 0
LBearingChange: 0
UnicodeEnc: 0
InstructionsLength: 0
SplineSet
25.5 80 m 1
 37.5 67.5 l 1
 37.5 58.8125 l 1
 37.5 57.5 l 1
 24.267578125 44.625 l 1
 37.5 35 l 1
 37.5 15 l 1
 32.5 10 l 1
 22.5 0 l 1
 12.5 0 l 1
 0.5 12.5 l 1
 0.5 21.5 l 1
 0.5 23.5 l 1
 12.931640625 35.595703125 l 1
 0.35546875 44.7421875 l 1
 0 44.38671875 l 1
 0 45 l 1
 0 55 l 1
 5.5 60.5 l 1
 10 65 l 1
 10 64.88671875 l 1
 25.5 80 l 1
16.119140625 69.353515625 m 1
 10 63.38671875 l 1
 10 55 l 1
 23.08984375 45.48046875 l 1
 27.5 49.771484375 l 1
 27.5 57.5 l 1
 16.119140625 69.353515625 l 1
14.107421875 34.740234375 m 1
 10.5 31.23046875 l 1
 10.5 22.5 l 1
 22.5 10 l 1
 27.5 10 l 1
 27.5 25 l 1
 14.107421875 34.740234375 l 1
EndSplineSet
EndUndoOperation
EndUndoes
Redoes
EndRedoes
EndUndoRedoHistory
Fore
SplineSet
25.5 80 m 1
 37.5 67.5 l 1
 37.5 58.8125 l 1
 37.5 57.5 l 1
 24.267578125 44.625 l 1
 37.5 35 l 1
 37.5 15 l 1
 32.5 10 l 1
 22.5 0 l 1
 12.5 0 l 1
 0.5 12.5 l 1
 0.5 21.5 l 1
 0.5 23.5 l 1
 12.931640625 35.595703125 l 1
 0.35546875 44.7421875 l 1
 0 44.38671875 l 1
 0 45 l 1
 0 55 l 1
 5.5 60.5 l 1
 10 65 l 1
 10 64.88671875 l 1
 25.5 80 l 1
16.119140625 69.353515625 m 1
 10 63.38671875 l 1
 10 55 l 1
 23.08984375 45.48046875 l 1
 27.5 49.771484375 l 1
 27.5 57.5 l 1
 16.119140625 69.353515625 l 1
14.107421875 34.740234375 m 1
 10.5 31.23046875 l 1
 10.5 22.5 l 1
 22.5 10 l 1
 27.5 10 l 1
 27.5 25 l 1
 14.107421875 34.740234375 l 1
EndSplineSet
EndChar

StartChar: zero
Encoding: 48 48 61
Width: 39
VWidth: 0
Flags: HW
LayerCount: 2
UndoRedoHistory
Layer: 1
Undoes
UndoOperation
Index: 0
Type: 7
WasModified: 1
WasOrder2: 0
Layer: 2
Width: 111
EndUndoOperation
EndUndoes
Redoes
EndRedoes
EndUndoRedoHistory
Fore
SplineSet
26.5 80 m 1
 38.5 67.5 l 1
 38.5 25 l 1
 28.5 15 l 1
 28.5 15.11328125 l 1
 13 0 l 1
 1 12.5 l 1
 1 55 l 1
 6.5 60.5 l 1
 11 65 l 1
 11 64.88671875 l 1
 26.5 80 l 1
17.119140625 69.353515625 m 1
 11 63.38671875 l 1
 11 22.5 l 1
 22.380859375 10.646484375 l 1
 28.5 16.61328125 l 1
 28.5 57.5 l 1
 17.119140625 69.353515625 l 1
EndSplineSet
Validated: 1
EndChar

StartChar: exclam
Encoding: 33 33 62
Width: 17
VWidth: 0
Flags: HW
LayerCount: 2
UndoRedoHistory
Layer: 1
Undoes
UndoOperation
Index: 0
Type: 7
WasModified: 1
WasOrder2: 0
Layer: 2
Width: 111
EndUndoOperation
EndUndoes
Redoes
EndRedoes
EndUndoRedoHistory
Fore
SplineSet
14 77.5 m 5
 14 35 l 5
 4 25 l 5
 4 67.5 l 5
 14 77.5 l 5
9 16 m 5
 17 8 l 5
 9 0 l 5
 1 8 l 5
 9 16 l 5
EndSplineSet
Validated: 1
EndChar

StartChar: at
Encoding: 64 64 63
Width: 61
VWidth: 0
Flags: HW
LayerCount: 2
UndoRedoHistory
Layer: 1
Undoes
UndoOperation
Index: 0
Type: 7
WasModified: 1
WasOrder2: 0
Layer: 2
Width: 111
EndUndoOperation
EndUndoes
Redoes
EndRedoes
EndUndoRedoHistory
Fore
SplineSet
26 80 m 1
 41 79.99609375 l 1
 61 59.99609375 l 1
 61 24.99609375 l 1
 51 14.99609375 l 1
 36 14.99609375 l 1
 36 24.49609375 l 1
 26.5 14.99609375 l 1
 11.5 28.74609375 l 1
 12.5 29.72265625 l 1
 12.5 48.49609375 l 1
 11.5 47.49609375 l 1
 10.255859375 48.744140625 l 1
 31.5 69.99609375 l 1
 32.5 68.99609375 l 1
 32.75 68.74609375 l 1
 32.74609375 68.74609375 l 1
 47.5 53.5 l 1
 46 52 l 1
 46 37.5 l 1
 46 35 l 1
 46 25 l 1
 56 25 l 1
 56 55 l 1
 36 75 l 1
 23.22265625 75 l 1
 6 59.5 l 1
 6 25 l 1
 26 5 l 1
 39.125 5 l 1
 48.5 12.5 l 1
 48.5 10 l 1
 36 0 l 1
 21 0 l 1
 1 20 l 1
 1 55 l 1
 1 57.5 l 1
 26 80 l 1
23 58.966796875 m 1
 23 37.54296875 l 1
 34.86328125 26.08984375 l 1
 36 27.25390625 l 1
 36 45.099609375 l 1
 23 58.966796875 l 1
EndSplineSet
Validated: 1
EndChar

StartChar: numbersign
Encoding: 35 35 64
Width: 56
VWidth: 0
Flags: HW
LayerCount: 2
UndoRedoHistory
Layer: 1
Undoes
UndoOperation
Index: 0
Type: 7
WasModified: 1
WasOrder2: 0
Layer: 2
Width: 114
EndUndoOperation
EndUndoes
Redoes
EndRedoes
EndUndoRedoHistory
Fore
SplineSet
23.5 66 m 5
 23.5 51 l 5
 33.5 51 l 5
 33.5 56 l 5
 43.5 66 l 5
 43.5 51 l 5
 56 51 l 5
 46 41 l 5
 43.5 41 l 5
 43.5 36 l 5
 56 36 l 5
 46 26 l 5
 43.5 26 l 5
 43.5 21 l 5
 33.5 11 l 5
 33.5 26 l 5
 23.5 26 l 5
 23.5 21 l 5
 13.5 11 l 5
 13.5 26 l 5
 1 26 l 5
 11 36 l 5
 13.5 36 l 5
 13.5 41 l 5
 1 41 l 5
 11 51 l 5
 13.5 51 l 5
 13.5 56 l 5
 23.5 66 l 5
23.5 41 m 5
 23.5 36 l 5
 33.5 36 l 5
 33.5 41 l 5
 23.5 41 l 5
EndSplineSet
Validated: 1
EndChar

StartChar: dollar
Encoding: 36 36 65
Width: 42
VWidth: 0
Flags: HW
LayerCount: 2
UndoRedoHistory
Layer: 1
Undoes
UndoOperation
Index: 0
Type: 7
WasModified: 1
WasOrder2: 0
Layer: 2
Width: 111
EndUndoOperation
EndUndoes
Redoes
EndRedoes
EndUndoRedoHistory
Fore
SplineSet
27.25 77.5 m 5
 27.25 66.009765625 l 5
 42.25 55.625 l 5
 33.5 48.125 l 5
 18.796875 57.171875 l 5
 16 54.375 l 5
 16 51.322265625 l 5
 37.25 39.375 l 5
 37.25 33.125 l 5
 27.25 23.125 l 5
 27.25 10 l 5
 17.25 0 l 5
 17.25 13.119140625 l 5
 14.755859375 10.623046875 l 5
 14.751953125 10.623046875 l 5
 14.75 10.623046875 l 5
 1 20.623046875 l 5
 13 30.125 l 5
 24.47265625 22.84375 l 5
 26 24.37109375 l 5
 26 28.908203125 l 5
 6 40.625 l 5
 6 46.875 l 5
 17.25 58.125 l 5
 17.25 67.5 l 5
 27.25 77.5 l 5
EndSplineSet
Validated: 1
EndChar

StartChar: percent
Encoding: 37 37 66
Width: 46
VWidth: 0
Flags: HW
LayerCount: 2
UndoRedoHistory
Layer: 1
Undoes
UndoOperation
Index: 0
Type: 7
WasModified: 1
WasOrder2: 0
Layer: 2
Width: 111
EndUndoOperation
EndUndoes
Redoes
EndRedoes
EndUndoRedoHistory
Fore
SplineSet
11 66 m 5
 19 58 l 5
 11 50 l 5
 3 58 l 5
 11 66 l 5
41 66 m 5
 46 61 l 5
 6 16 l 5
 1 21 l 5
 41 66 l 5
36 32 m 5
 44 24 l 5
 36 16 l 5
 28 24 l 5
 36 32 l 5
EndSplineSet
Validated: 1
EndChar

StartChar: asciicircum
Encoding: 94 94 67
Width: 45
VWidth: 0
Flags: HW
LayerCount: 2
UndoRedoHistory
Layer: 1
Undoes
UndoOperation
Index: 0
Type: 1
WasModified: 1
WasOrder2: 0
Layer: 2
Width: 66
VWidth: 0
LBearingChange: 0
UnicodeEnc: 0
InstructionsLength: 0
SplineSet
24.0625 80 m 1
 44.6875 62.8125 l 1
 34.375 52.5 l 1
 15.46875 67.96875 l 1
 1.71875 54.21875 l 1
 0 55.9375 l 1
 24.0625 80 l 1
EndSplineSet
EndUndoOperation
EndUndoes
Redoes
EndRedoes
EndUndoRedoHistory
Fore
SplineSet
24.0625 80 m 1
 44.6875 62.8125 l 1
 34.375 52.5 l 1
 15.46875 67.96875 l 1
 1.71875 54.21875 l 1
 0 55.9375 l 1
 24.0625 80 l 1
EndSplineSet
Validated: 1
EndChar

StartChar: ampersand
Encoding: 38 38 68
Width: 61
VWidth: 0
Flags: HW
LayerCount: 2
UndoRedoHistory
Layer: 1
Undoes
UndoOperation
Index: 0
Type: 7
WasModified: 1
WasOrder2: 0
Layer: 2
Width: 111
EndUndoOperation
EndUndoes
Redoes
EndRedoes
EndUndoRedoHistory
Fore
SplineSet
31 80 m 1
 33.5 77.5 l 1
 46 65 l 1
 36 55 l 1
 23.5 67.5 l 1
 13.5 57.5 l 1
 26 45 l 1
 16 35 l 1
 16 25 l 1
 31 10 l 1
 38.5 10 l 1
 38.5 32.5 l 1
 31 32.5 l 2
 28.5 32.5 23.5 32.5 21 30 c 1
 21 32.5 36 42.5 41 42.5 c 2
 61 42.5 l 1
 51 32.5 l 1
 51 15 l 1
 44.75 10 l 1
 34.75 0 l 1
 21 0 l 1
 6 15 l 1
 6 30 l 1
 13.5 37.5 l 1
 1 50 l 1
 11 60 l 1
 21 70 l 1
 31 80 l 1
EndSplineSet
Validated: 1
EndChar

StartChar: parenleft
Encoding: 40 40 69
Width: 21
VWidth: 0
Flags: HW
LayerCount: 2
UndoRedoHistory
Layer: 1
Undoes
UndoOperation
Index: 0
Type: 7
WasModified: 1
WasOrder2: 0
Layer: 2
Width: 111
EndUndoOperation
EndUndoes
Redoes
EndRedoes
EndUndoRedoHistory
Fore
SplineSet
16 80 m 1
 16 75 l 1
 11 70 l 1
 11 20 l 1
 21 10 l 1
 11 0 l 1
 1 10 l 1
 1 60 l 1
 1 65 l 1
 16 80 l 1
EndSplineSet
Validated: 1
EndChar

StartChar: parenright
Encoding: 41 41 70
Width: 21
VWidth: 0
Flags: HW
LayerCount: 2
UndoRedoHistory
Layer: 1
Undoes
UndoOperation
Index: 0
Type: 7
WasModified: 1
WasOrder2: 0
Layer: 2
Width: 111
EndUndoOperation
EndUndoes
Redoes
EndRedoes
EndUndoRedoHistory
Fore
SplineSet
11 80 m 1
 21 70 l 1
 21 20 l 1
 21 15 l 1
 6 0 l 1
 6 5 l 1
 11 10 l 1
 11 60 l 1
 1 70 l 1
 11 80 l 1
EndSplineSet
Validated: 1
EndChar

StartChar: hyphen
Encoding: 45 45 71
Width: 46
VWidth: 0
Flags: HW
LayerCount: 2
UndoRedoHistory
Layer: 1
Undoes
UndoOperation
Index: 0
Type: 7
WasModified: 1
WasOrder2: 0
Layer: 2
Width: 111
EndUndoOperation
EndUndoes
Redoes
EndRedoes
EndUndoRedoHistory
Fore
SplineSet
11 46 m 5
 46 46 l 5
 36 36 l 5
 1 36 l 5
 11 46 l 5
EndSplineSet
Validated: 1
EndChar

StartChar: underscore
Encoding: 95 95 72
Width: 61
VWidth: 0
Flags: HW
LayerCount: 2
UndoRedoHistory
Layer: 1
Undoes
UndoOperation
Index: 0
Type: 7
WasModified: 1
WasOrder2: 0
Layer: 2
Width: 51
EndUndoOperation
EndUndoes
Redoes
EndRedoes
EndUndoRedoHistory
Fore
SplineSet
11 0 m 1
 61 0 l 1
 51 -10 l 1
 1 -10 l 1
 11 0 l 1
EndSplineSet
Validated: 1
EndChar

StartChar: equal
Encoding: 61 61 73
Width: 46
VWidth: 0
Flags: HW
LayerCount: 2
UndoRedoHistory
Layer: 1
Undoes
UndoOperation
Index: 0
Type: 7
WasModified: 1
WasOrder2: 0
Layer: 2
Width: 51
EndUndoOperation
EndUndoes
Redoes
EndRedoes
EndUndoRedoHistory
Fore
SplineSet
11 47 m 5
 46 47 l 5
 36 37 l 5
 1 37 l 5
 11 47 l 5
11 32 m 5
 46 32 l 5
 36 22 l 5
 1 22 l 5
 11 32 l 5
EndSplineSet
Validated: 1
EndChar

StartChar: plus
Encoding: 43 43 74
Width: 46
VWidth: 0
Flags: HW
LayerCount: 2
UndoRedoHistory
Layer: 1
Undoes
UndoOperation
Index: 0
Type: 7
WasModified: 0
WasOrder2: 0
Layer: 2
Width: 50
EndUndoOperation
EndUndoes
Redoes
EndRedoes
EndUndoRedoHistory
Fore
SplineSet
28.5 61.5 m 1
 28.5 44 l 1
 46 44 l 1
 36 34 l 1
 28.5 34 l 1
 28.5 26.5 l 1
 18.5 16.5 l 1
 18.5 34 l 1
 1 34 l 1
 11 44 l 1
 18.5 44 l 1
 18.5 51.5 l 1
 28.5 61.5 l 1
EndSplineSet
Validated: 1
EndChar

StartChar: slash
Encoding: 47 47 75
Width: 29
VWidth: 0
Flags: HW
LayerCount: 2
UndoRedoHistory
Layer: 1
Undoes
UndoOperation
Index: 0
Type: 7
WasModified: 1
WasOrder2: 0
Layer: 2
Width: 111
EndUndoOperation
EndUndoes
Redoes
EndRedoes
EndUndoRedoHistory
Fore
SplineSet
1 12 m 5
 1 19.5 l 5
 28.5 59.5 l 5
 28.5 52 l 5
 1 12 l 5
EndSplineSet
Validated: 1
EndChar

StartChar: greater
Encoding: 62 62 76
Width: 29
VWidth: 0
Flags: HW
LayerCount: 2
UndoRedoHistory
Layer: 1
Undoes
UndoOperation
Index: 0
Type: 7
WasModified: 1
WasOrder2: 0
Layer: 2
Width: 30
EndUndoOperation
EndUndoes
Redoes
EndRedoes
EndUndoRedoHistory
Fore
SplineSet
11 58.5 m 5
 26 43.5 l 5
 28.5 41 l 5
 6 21 l 5
 3.5 23.5 l 5
 15.412109375 34.087890625 l 5
 1 48.5 l 5
 11 58.5 l 5
EndSplineSet
Validated: 1
EndChar

StartChar: bracketleft
Encoding: 91 91 77
Width: 26
VWidth: 0
Flags: HW
LayerCount: 2
UndoRedoHistory
Layer: 1
Undoes
UndoOperation
Index: 0
Type: 7
WasModified: 1
WasOrder2: 0
Layer: 2
Width: 111
EndUndoOperation
EndUndoes
Redoes
EndRedoes
EndUndoRedoHistory
Fore
SplineSet
11 80 m 1
 26 80 l 1
 16 70 l 1
 11 70 l 1
 11 10 l 1
 26 10 l 1
 16 0 l 1
 1 0 l 1
 1 70 l 1
 11 80 l 1
EndSplineSet
Validated: 1
EndChar

StartChar: bracketright
Encoding: 93 93 78
Width: 26
VWidth: 0
Flags: HW
LayerCount: 2
UndoRedoHistory
Layer: 1
Undoes
UndoOperation
Index: 0
Type: 7
WasModified: 1
WasOrder2: 0
Layer: 2
Width: 111
EndUndoOperation
EndUndoes
Redoes
EndRedoes
EndUndoRedoHistory
Fore
SplineSet
11 80 m 1
 26 80 l 1
 26 10 l 1
 16 0 l 1
 1 0 l 1
 11 10 l 1
 16 10 l 1
 16 70 l 1
 1 70 l 1
 11 80 l 1
EndSplineSet
Validated: 1
EndChar

StartChar: braceleft
Encoding: 123 123 79
Width: 39
VWidth: 0
Flags: HW
LayerCount: 2
UndoRedoHistory
Layer: 1
Undoes
UndoOperation
Index: 0
Type: 7
WasModified: 1
WasOrder2: 0
Layer: 2
Width: 111
EndUndoOperation
EndUndoes
Redoes
EndRedoes
EndUndoRedoHistory
Fore
SplineSet
28.5 80 m 1
 38.5 80 l 1
 28.5 70 l 1
 20 70 l 1
 18.5 68.5 l 1
 18.5 50 l 1
 12.25 43.75 l 1
 18.5 37.5 l 1
 18.5 17.5 l 1
 26 10 l 1
 38.5 10 l 1
 28.5 0 l 1
 16 0 l 1
 8.5 7.5 l 1
 8.5 27.5 l 1
 1 35 l 1
 8.5 42.5 l 1
 8.5 58.5 l 1
 8.5 60 l 1
 18.5 70 l 1
 28.5 80 l 1
EndSplineSet
Validated: 1
EndChar

StartChar: braceright
Encoding: 125 125 80
Width: 39
VWidth: 0
Flags: HW
LayerCount: 2
UndoRedoHistory
Layer: 1
Undoes
UndoOperation
Index: 0
Type: 7
WasModified: 1
WasOrder2: 0
Layer: 2
Width: 111
EndUndoOperation
EndUndoes
Redoes
EndRedoes
EndUndoRedoHistory
Fore
SplineSet
11 80 m 1
 23.5 80 l 1
 31 72.5 l 1
 31 52.5 l 1
 38.5 45 l 1
 31 37.5 l 1
 31 21.5 l 1
 31 20 l 1
 21 10 l 1
 11 0 l 1
 1 0 l 1
 11 10 l 1
 19.5 10 l 1
 21 11.5 l 1
 21 30 l 1
 27.25 36.25 l 1
 21 42.5 l 1
 21 62.5 l 1
 13.5 70 l 1
 1 70 l 1
 11 80 l 1
EndSplineSet
Validated: 1
EndChar

StartChar: backslash
Encoding: 92 92 81
Width: 56
VWidth: 0
Flags: HW
LayerCount: 2
UndoRedoHistory
Layer: 1
Undoes
UndoOperation
Index: 0
Type: 7
WasModified: 1
WasOrder2: 0
Layer: 2
Width: 111
EndUndoOperation
EndUndoes
Redoes
EndRedoes
EndUndoRedoHistory
Fore
SplineSet
1 58 m 5
 11 68 l 5
 56 18 l 5
 46 8 l 5
 1 58 l 5
EndSplineSet
Validated: 1
EndChar

StartChar: bar
Encoding: 124 124 82
Width: 11
VWidth: 0
Flags: HW
LayerCount: 2
UndoRedoHistory
Layer: 1
Undoes
UndoOperation
Index: 0
Type: 7
WasModified: 1
WasOrder2: 0
Layer: 2
Width: 111
EndUndoOperation
EndUndoes
Redoes
EndRedoes
EndUndoRedoHistory
Fore
SplineSet
1 70 m 1
 11 80 l 1
 11 0 l 1
 1 -10 l 1
 1 70 l 1
EndSplineSet
Validated: 1
EndChar

StartChar: asciitilde
Encoding: 126 126 83
Width: 49
VWidth: 0
Flags: HW
LayerCount: 2
UndoRedoHistory
Layer: 1
Undoes
UndoOperation
Index: 0
Type: 7
WasModified: 1
WasOrder2: 0
Layer: 2
Width: 110
EndUndoOperation
EndUndoes
Redoes
EndRedoes
EndUndoRedoHistory
Fore
SplineSet
19.794921875 51.390625 m 4
 26.576171875 52.8427734375 34.4345703125 42.849609375 42.6962890625 42.984375 c 4
 45.4833984375 43.787109375 47.0234375 46.3056640625 49.2978515625 48.375 c 5
 45.8193359375 42.7724609375 38.3681640625 33.955078125 30.55078125 33 c 4
 24.626953125 33.7783203125 19.1845703125 41.1962890625 12.037109375 42.005859375 c 4
 9.375 42.044921875 1.982421875 35.3681640625 1 34.931640625 c 5
 5.3974609375 39.34765625 13.9541015625 48.197265625 19.794921875 51.390625 c 4
EndSplineSet
Validated: 33
EndChar

StartChar: grave
Encoding: 193 96 84
Width: 14
VWidth: 0
Flags: HW
LayerCount: 2
UndoRedoHistory
Layer: 1
Undoes
UndoOperation
Index: 0
Type: 7
WasModified: 1
WasOrder2: 0
Layer: 2
Width: 111
EndUndoOperation
EndUndoes
Redoes
EndRedoes
EndUndoRedoHistory
Fore
SplineSet
4.255859375 80 m 2
 4.2568359375 80 l 2
 7.443359375 76.26171875 11.13671875 72.1064453125 14.32421875 68.3681640625 c 1
 13.49609375 67.8681640625 11.49609375 66.94921875 11.0966796875 64.6552734375 c 0
 10.5322265625 62.46875 11.349609375 60.24609375 12.1748046875 58.3134765625 c 1
 8.8916015625 62.1650390625 5.607421875 66.0166015625 2.32421875 69.8681640625 c 0
 1.908203125 70.681640625 1.591796875 71.5888671875 1.3330078125 72.4931640625 c 0
 0.8388671875 74.048828125 0.8984375 75.798828125 1.484375 77.30859375 c 0
 1.90234375 78.724609375 3.009765625 79.74609375 4.255859375 80 c 2
EndSplineSet
Validated: 33
EndChar

StartChar: colon
Encoding: 58 58 85
Width: 17
VWidth: 0
Flags: HW
LayerCount: 2
UndoRedoHistory
Layer: 1
Undoes
UndoOperation
Index: 0
Type: 7
WasModified: 1
WasOrder2: 0
Layer: 2
Width: 111
EndUndoOperation
EndUndoes
Redoes
EndRedoes
EndUndoRedoHistory
Fore
SplineSet
9 56 m 1
 17 48 l 1
 9 40 l 1
 1 48 l 1
 9 56 l 1
9 34 m 1
 17 26 l 1
 9 18 l 1
 1 26 l 1
 9 34 l 1
EndSplineSet
Validated: 1
EndChar

StartChar: semicolon
Encoding: 59 59 86
Width: 17
VWidth: 0
Flags: HW
LayerCount: 2
UndoRedoHistory
Layer: 1
Undoes
UndoOperation
Index: 0
Type: 1
WasModified: 1
WasOrder2: 0
Layer: 2
Width: 17
VWidth: 0
LBearingChange: 0
UnicodeEnc: 0
InstructionsLength: 0
SplineSet
7.2421875 66.50390625 m 5
 15.2421875 58.50390625 l 5
 7.2421875 50.50390625 l 5
 -0.7578125 58.50390625 l 5
 7.2421875 66.50390625 l 5
11.255859375 41.345703125 m 4
 12.712890625 41.0498046875 14.0068359375 39.853515625 14.49609375 38.19921875 c 4
 15.1806640625 36.4345703125 15.2490234375 34.390625 14.671875 32.572265625 c 4
 14.369140625 31.5146484375 14 30.455078125 13.513671875 29.50390625 c 4
 9.67578125 25.0029296875 5.837890625 20.5009765625 2 16 c 5
 2.96484375 18.2587890625 3.9208984375 20.857421875 3.26171875 23.412109375 c 4
 2.794921875 26.0927734375 0.45703125 27.166015625 -0.509765625 27.75 c 5
 3.21484375 32.119140625 7.53125 36.9765625 11.255859375 41.345703125 c 4
EndSplineSet
EndUndoOperation
EndUndoes
Redoes
EndRedoes
EndUndoRedoHistory
Fore
SplineSet
7.2421875 55.50390625 m 1
 15.2421875 47.50390625 l 1
 7.2421875 39.50390625 l 1
 -0.7578125 47.50390625 l 1
 7.2421875 55.50390625 l 1
11.255859375 30.345703125 m 0
 12.712890625 30.0498046875 14.0068359375 28.853515625 14.49609375 27.19921875 c 0
 15.1806640625 25.4345703125 15.2490234375 23.390625 14.671875 21.572265625 c 0
 14.369140625 20.5146484375 14 19.455078125 13.513671875 18.50390625 c 0
 9.67578125 14.0029296875 5.837890625 9.5009765625 2 5 c 1
 2.96484375 7.2587890625 3.9208984375 9.857421875 3.26171875 12.412109375 c 0
 2.794921875 15.0927734375 0.45703125 16.166015625 -0.509765625 16.75 c 1
 3.21484375 21.119140625 7.53125 25.9765625 11.255859375 30.345703125 c 0
EndSplineSet
EndChar

StartChar: period
Encoding: 46 46 87
Width: 17
VWidth: 0
Flags: HW
LayerCount: 2
UndoRedoHistory
Layer: 1
Undoes
UndoOperation
Index: 0
Type: 7
WasModified: 1
WasOrder2: 0
Layer: 2
Width: 112
EndUndoOperation
EndUndoes
Redoes
EndRedoes
EndUndoRedoHistory
Fore
SplineSet
9 16 m 5
 17 8 l 5
 9 0 l 5
 1 8 l 5
 9 16 l 5
EndSplineSet
Validated: 1
EndChar

StartChar: comma
Encoding: 44 44 88
Width: 16
VWidth: 0
Flags: HW
LayerCount: 2
UndoRedoHistory
Layer: 1
Undoes
UndoOperation
Index: 0
Type: 1
WasModified: 1
WasOrder2: 0
Layer: 2
Width: 16
VWidth: 0
LBearingChange: 0
UnicodeEnc: 0
InstructionsLength: 0
SplineSet
10.5673828125 80 m 4
 12.7685546875 79.525390625 13.7763671875 77.080078125 13.80859375 75.0322265625 c 4
 13.0810546875 68.048828125 5 58.3681640625 0 55.8681640625 c 5
 2.0400390625 60.8857421875 3.6953125 65.41796875 0.65625 68.55078125 c 5
 3.9345703125 72.388671875 7.291015625 76.1591796875 10.5673828125 80 c 4
EndSplineSet
EndUndoOperation
UndoOperation
Index: 1
Type: 1
WasModified: 1
WasOrder2: 0
Layer: 2
Width: 16
VWidth: 0
LBearingChange: 0
UnicodeEnc: 0
InstructionsLength: 0
EndUndoOperation
UndoOperation
Index: 2
Type: 3
WasModified: 1
WasOrder2: 0
Layer: 2
EndUndoOperation
UndoOperation
Index: 3
Type: 1
WasModified: 0
WasOrder2: 0
Layer: 2
Width: 16
VWidth: 0
LBearingChange: 0
UnicodeEnc: 0
InstructionsLength: 0
SplineSet
12.255859375 16.345703125 m 4
 13.712890625 16.0498046875 15.0068359375 14.853515625 15.49609375 13.19921875 c 4
 16.1806640625 11.4345703125 16.2490234375 9.390625 15.671875 7.572265625 c 4
 15.369140625 6.5146484375 15 5.455078125 14.513671875 4.50390625 c 4
 10.67578125 0.0029296875 6.837890625 -4.4990234375 3 -9 c 5
 3.96484375 -6.7412109375 4.9208984375 -4.142578125 4.26171875 -1.587890625 c 4
 3.794921875 1.0927734375 1.45703125 2.166015625 0.490234375 2.75 c 5
 4.21484375 7.119140625 8.53125 11.9765625 12.255859375 16.345703125 c 4
EndSplineSet
EndUndoOperation
UndoOperation
Index: 4
Type: 3
WasModified: 0
WasOrder2: 0
Layer: 2
EndUndoOperation
UndoOperation
Index: 5
Type: 3
WasModified: 0
WasOrder2: 0
Layer: 2
EndUndoOperation
UndoOperation
Index: 6
Type: 1
WasModified: 1
WasOrder2: 0
Layer: 2
Width: 14
VWidth: 0
LBearingChange: 0
UnicodeEnc: 0
InstructionsLength: 0
SplineSet
12.255859375 16.345703125 m 0
 13.712890625 16.0498046875 15.0068359375 14.853515625 15.49609375 13.19921875 c 0
 16.1806640625 11.4345703125 16.2490234375 9.390625 15.671875 7.572265625 c 0
 15.369140625 6.5146484375 15 5.455078125 14.513671875 4.50390625 c 0
 10.67578125 0.0029296875 6.837890625 -4.4990234375 3 -9 c 1
 3.96484375 -6.7412109375 4.9208984375 -4.142578125 4.26171875 -1.587890625 c 0
 3.794921875 1.0927734375 1.45703125 2.166015625 0.490234375 2.75 c 1
 4.21484375 7.119140625 8.53125 11.9765625 12.255859375 16.345703125 c 0
EndSplineSet
EndUndoOperation
EndUndoes
Redoes
EndRedoes
EndUndoRedoHistory
Fore
SplineSet
10.7587890625 12.9677734375 m 0
 12.9599609375 12.4931640625 13.9677734375 10.0478515625 14 8 c 0
 13.2724609375 1.0166015625 5.19140625 -8.6640625 0.19140625 -11.1640625 c 1
 2.2314453125 -6.146484375 3.88671875 -1.6142578125 0.84765625 1.5185546875 c 1
 4.1259765625 5.3564453125 7.482421875 9.126953125 10.7587890625 12.9677734375 c 0
EndSplineSet
EndChar

StartChar: quotesingle
Encoding: 169 39 89
Width: 11
VWidth: 0
Flags: HW
LayerCount: 2
UndoRedoHistory
Layer: 1
Undoes
UndoOperation
Index: 0
Type: 7
WasModified: 1
WasOrder2: 0
Layer: 2
Width: 111
EndUndoOperation
EndUndoes
Redoes
EndRedoes
EndUndoRedoHistory
Fore
SplineSet
11 80 m 1
 11 60 l 1
 1 50 l 1
 1 70 l 1
 11 80 l 1
EndSplineSet
Validated: 1
EndChar

StartChar: quotedbl
Encoding: 34 34 90
Width: 26
VWidth: 0
Flags: HW
LayerCount: 2
UndoRedoHistory
Layer: 1
Undoes
UndoOperation
Index: 0
Type: 7
WasModified: 1
WasOrder2: 0
Layer: 2
Width: 111
EndUndoOperation
EndUndoes
Redoes
EndRedoes
EndUndoRedoHistory
Fore
SplineSet
11 80 m 1
 11 60 l 1
 1 50 l 1
 1 70 l 1
 11 80 l 1
26 80 m 1
 26 60 l 1
 16 50 l 1
 16 70 l 1
 26 80 l 1
EndSplineSet
Validated: 1
EndChar

StartChar: less
Encoding: 60 60 91
Width: 29
VWidth: 0
Flags: HW
LayerCount: 2
UndoRedoHistory
Layer: 1
Undoes
UndoOperation
Index: 0
Type: 7
WasModified: 1
WasOrder2: 0
Layer: 2
Width: 110
EndUndoOperation
EndUndoes
Redoes
EndRedoes
EndUndoRedoHistory
Fore
SplineSet
23.5 61.5 m 1
 26 59 l 1
 14.087890625 48.412109375 l 1
 28.5 34 l 1
 18.5 24 l 1
 3.5 39 l 1
 1 41.5 l 1
 23.5 61.5 l 1
EndSplineSet
Validated: 1
EndChar

StartChar: question
Encoding: 63 63 92
Width: 43
VWidth: 0
Flags: HW
LayerCount: 2
UndoRedoHistory
Layer: 1
Undoes
UndoOperation
Index: 0
Type: 7
WasModified: 1
WasOrder2: 0
Layer: 2
Width: 111
EndUndoOperation
EndUndoes
Redoes
EndRedoes
EndUndoRedoHistory
Fore
SplineSet
21 80 m 1
 33.5 80 l 1
 43.5 70 l 1
 43.5 57.5 l 1
 33.5 48.5 l 1
 23.5 38.5 l 1
 23.5 30 l 1
 13.5 20 l 1
 13.5 30 l 1
 23.5 40 l 1
 33.5 50 l 1
 33.5 60 l 1
 23.5 70 l 1
 11.810546875 70 l 1
 11 69.25 l 1
 11 59 l 1
 1 50 l 1
 1 60 l 1
 1 61.5 l 1
 21 80 l 1
18.5 15 m 1
 26.5 7 l 1
 18.5 -1 l 1
 10.5 7 l 1
 18.5 15 l 1
EndSplineSet
Validated: 1
EndChar

StartChar: quotedblleft
Encoding: 170 8220 93
Width: 30
VWidth: 0
Flags: HW
LayerCount: 2
UndoRedoHistory
Layer: 1
Undoes
UndoOperation
Index: 0
Type: 7
WasModified: 1
WasOrder2: 0
Layer: 2
Width: 111
EndUndoOperation
EndUndoes
Redoes
EndRedoes
EndUndoRedoHistory
Fore
SplineSet
4.255859375 58.3134765625 m 2
 3.009765625 58.5673828125 1.90234375 59.58984375 1.484375 61.0048828125 c 0
 0.8984375 62.5146484375 0.8388671875 64.2646484375 1.3330078125 65.8203125 c 0
 1.591796875 66.724609375 1.908203125 67.6318359375 2.32421875 68.4453125 c 0
 5.607421875 72.296875 8.8916015625 76.1484375 12.1748046875 80 c 1
 11.349609375 78.0673828125 10.5322265625 75.8447265625 11.0966796875 73.658203125 c 0
 11.49609375 71.3642578125 13.49609375 70.4453125 14.32421875 69.9453125 c 1
 11.13671875 66.20703125 7.443359375 62.0517578125 4.2568359375 58.3134765625 c 2
 4.255859375 58.3134765625 l 2
19.9326171875 58.3134765625 m 2
 18.685546875 58.5673828125 17.578125 59.58984375 17.16015625 61.0048828125 c 0
 16.57421875 62.5146484375 16.515625 64.2646484375 17.0087890625 65.8203125 c 0
 17.267578125 66.724609375 17.583984375 67.6318359375 18 68.4453125 c 0
 21.2841796875 72.296875 24.5673828125 76.1484375 27.8505859375 80 c 1
 27.025390625 78.0673828125 26.2080078125 75.8447265625 26.7724609375 73.658203125 c 0
 27.171875 71.3642578125 29.1728515625 70.4453125 30 69.9453125 c 1
 26.8125 66.20703125 23.1201171875 62.0517578125 19.9326171875 58.3134765625 c 2
EndSplineSet
Validated: 33
EndChar

StartChar: quotedblright
Encoding: 186 8221 94
Width: 30
VWidth: 0
Flags: HW
LayerCount: 2
UndoRedoHistory
Layer: 1
Undoes
UndoOperation
Index: 0
Type: 7
WasModified: 1
WasOrder2: 0
Layer: 2
Width: 111
EndUndoOperation
EndUndoes
Redoes
EndRedoes
EndUndoRedoHistory
Fore
SplineSet
11.0673828125 80 m 2
 12.314453125 79.74609375 13.421875 78.724609375 13.83984375 77.30859375 c 0
 14.42578125 75.798828125 14.484375 74.048828125 13.9912109375 72.4931640625 c 0
 13.732421875 71.5888671875 13.416015625 70.681640625 13 69.8681640625 c 0
 9.7158203125 66.0166015625 6.4326171875 62.1650390625 3.1494140625 58.3134765625 c 1
 3.974609375 60.24609375 4.7919921875 62.46875 4.2275390625 64.6552734375 c 0
 3.828125 66.94921875 1.8271484375 67.8681640625 1 68.3681640625 c 1
 4.1875 72.1064453125 7.8798828125 76.26171875 11.0673828125 80 c 2
26.744140625 80 m 2
 27.990234375 79.74609375 29.09765625 78.724609375 29.515625 77.30859375 c 0
 30.1015625 75.798828125 30.1611328125 74.048828125 29.6669921875 72.4931640625 c 0
 29.408203125 71.5888671875 29.091796875 70.681640625 28.67578125 69.8681640625 c 0
 25.392578125 66.0166015625 22.1083984375 62.1650390625 18.8251953125 58.3134765625 c 1
 19.650390625 60.24609375 20.4677734375 62.46875 19.9033203125 64.6552734375 c 0
 19.50390625 66.94921875 17.50390625 67.8681640625 16.67578125 68.3681640625 c 1
 19.86328125 72.1064453125 23.556640625 76.26171875 26.7431640625 80 c 2
 26.744140625 80 l 2
EndSplineSet
Validated: 33
EndChar

StartChar: quoteleft
Encoding: 96 8216 95
Width: 14
VWidth: 0
Flags: HW
LayerCount: 2
UndoRedoHistory
Layer: 1
Undoes
UndoOperation
Index: 0
Type: 7
WasModified: 1
WasOrder2: 0
Layer: 2
Width: 111
EndUndoOperation
EndUndoes
Redoes
EndRedoes
EndUndoRedoHistory
Fore
SplineSet
4.255859375 58.3134765625 m 2
 3.009765625 58.5673828125 1.90234375 59.58984375 1.484375 61.0048828125 c 0
 0.8984375 62.5146484375 0.8388671875 64.2646484375 1.3330078125 65.8203125 c 0
 1.591796875 66.724609375 1.908203125 67.6318359375 2.32421875 68.4453125 c 0
 5.607421875 72.296875 8.8916015625 76.1484375 12.1748046875 80 c 1
 11.349609375 78.0673828125 10.5322265625 75.8447265625 11.0966796875 73.658203125 c 0
 11.49609375 71.3642578125 13.49609375 70.4453125 14.32421875 69.9453125 c 1
 11.13671875 66.20703125 7.443359375 62.0517578125 4.2568359375 58.3134765625 c 2
 4.255859375 58.3134765625 l 2
EndSplineSet
Validated: 33
EndChar

StartChar: quoteright
Encoding: 39 8217 96
Width: 14
VWidth: 0
Flags: HW
LayerCount: 2
UndoRedoHistory
Layer: 1
Undoes
UndoOperation
Index: 0
Type: 7
WasModified: 1
WasOrder2: 0
Layer: 2
Width: 111
EndUndoOperation
EndUndoes
Redoes
EndRedoes
EndUndoRedoHistory
Fore
SplineSet
11.0673828125 80 m 2
 12.314453125 79.74609375 13.421875 78.724609375 13.83984375 77.30859375 c 0
 14.42578125 75.798828125 14.484375 74.048828125 13.9912109375 72.4931640625 c 0
 13.732421875 71.5888671875 13.416015625 70.681640625 13 69.8681640625 c 0
 9.7158203125 66.0166015625 6.4326171875 62.1650390625 3.1494140625 58.3134765625 c 1
 3.974609375 60.24609375 4.7919921875 62.46875 4.2275390625 64.6552734375 c 0
 3.828125 66.94921875 1.8271484375 67.8681640625 1 68.3681640625 c 1
 4.1875 72.1064453125 7.8798828125 76.26171875 11.0673828125 80 c 2
EndSplineSet
Validated: 33
EndChar

StartChar: asterisk
Encoding: 42 42 97
Width: 46
VWidth: 0
Flags: HW
LayerCount: 2
UndoRedoHistory
Layer: 1
Undoes
UndoOperation
Index: 0
Type: 7
WasModified: 1
WasOrder2: 0
Layer: 2
Width: 35
EndUndoOperation
EndUndoes
Redoes
EndRedoes
EndUndoRedoHistory
Fore
SplineSet
28.5 61 m 5
 28.5 46 l 5
 41 58.5 l 5
 43.5 56 l 5
 31 43.5 l 5
 46 43.5 l 5
 36 33.5 l 5
 28.5 33.5 l 5
 28.5 26 l 5
 18.5 16 l 5
 18.5 19.9833984375 18.5 24.435546875 18.5 31 c 5
 6 18.5 l 5
 3.5 21 l 5
 16 33.5 l 5
 1 33.5 l 5
 11 43.5 l 5
 18.5 43.5 l 5
 18.5 51 l 5
 28.5 61 l 5
EndSplineSet
Validated: 1
EndChar

StartChar: NameMe.141
Encoding: 298 -1 141
Width: 16
VWidth: 0
Flags: HW
LayerCount: 2
UndoRedoHistory
Layer: 1
Undoes
UndoOperation
Index: 0
Type: 1
WasModified: 1
WasOrder2: 0
Layer: 2
Width: 110
VWidth: 0
LBearingChange: 0
UnicodeEnc: 0
InstructionsLength: 0
SplineSet
8 53.880859375 m 1
 16 45.880859375 l 1
 12.96875 42.849609375 l 1
 12.96875 11.11328125 l 1
 12.912109375 11.087890625 l 1
 16 8 l 1
 8 0 l 1
 0 8 l 1
 2.96875 10.96875 l 1
 2.96875 42.912109375 l 1
 0 45.880859375 l 1
 8 53.880859375 l 1
EndSplineSet
EndUndoOperation
EndUndoes
Redoes
EndRedoes
EndUndoRedoHistory
Fore
SplineSet
8 53.880859375 m 1
 16 45.880859375 l 1
 12.96875 42.849609375 l 1
 12.96875 11.11328125 l 1
 12.912109375 11.087890625 l 1
 16 8 l 1
 8 0 l 1
 0 8 l 1
 2.96875 10.96875 l 1
 2.96875 42.912109375 l 1
 0 45.880859375 l 1
 8 53.880859375 l 1
EndSplineSet
Validated: 1
EndChar

StartChar: NameMe.143
Encoding: 303 -1 146
Width: 37
VWidth: 0
Flags: HW
LayerCount: 2
UndoRedoHistory
Layer: 1
Undoes
UndoOperation
Index: 0
Type: 1
WasModified: 1
WasOrder2: 0
Layer: 2
Width: 110
VWidth: 0
LBearingChange: 0
UnicodeEnc: 0
InstructionsLength: 0
SplineSet
9.8994140625 67.65234375 m 0
 13.15234375 68.794921875 16.30859375 70.2041015625 19.5166015625 71.46875 c 0
 25.6767578125 73.9501953125 31.6787109375 76.8251953125 37.5107421875 80 c 1
 34.2109375 76.7001953125 30.9111328125 73.400390625 27.611328125 70.1005859375 c 0
 20.4072265625 66.1318359375 12.8798828125 62.787109375 5.2265625 59.787109375 c 0
 3.4755859375 59.130859375 1.7900390625 58.3017578125 0 57.7529296875 c 1
 3.2998046875 61.052734375 6.599609375 64.3525390625 9.8994140625 67.65234375 c 0
EndSplineSet
EndUndoOperation
EndUndoes
Redoes
EndRedoes
EndUndoRedoHistory
Fore
SplineSet
9.8994140625 67.65234375 m 0
 13.15234375 68.794921875 16.30859375 70.2041015625 19.5166015625 71.46875 c 0
 25.6767578125 73.9501953125 31.6787109375 76.8251953125 37.5107421875 80 c 1
 34.2109375 76.7001953125 30.9111328125 73.400390625 27.611328125 70.1005859375 c 0
 20.4072265625 66.1318359375 12.8798828125 62.787109375 5.2265625 59.787109375 c 0
 3.4755859375 59.130859375 1.7900390625 58.3017578125 0 57.7529296875 c 1
 3.2998046875 61.052734375 6.599609375 64.3525390625 9.8994140625 67.65234375 c 0
EndSplineSet
Validated: 1
EndChar

StartChar: NameMe.129
Encoding: 304 -1 147
Width: 29
VWidth: 0
Flags: HW
LayerCount: 2
UndoRedoHistory
Layer: 1
Undoes
UndoOperation
Index: 0
Type: 1
WasModified: 1
WasOrder2: 0
Layer: 2
Width: 110
VWidth: 0
LBearingChange: 0
UnicodeEnc: 0
InstructionsLength: 0
SplineSet
9.8349609375 80 m 1
 13.4013671875 75.033203125 18.7294921875 71.51953125 24.4404296875 69.4716796875 c 0
 25.8349609375 68.958984375 27.265625 68.5517578125 28.708984375 68.201171875 c 1
 25.4091796875 64.9013671875 22.109375 61.6015625 18.8095703125 58.3017578125 c 0
 11.625 59.98828125 4.72265625 63.75 0.2099609375 69.69921875 c 0
 -0.4169921875 70.197265625 0.5341796875 70.55078125 0.8017578125 70.966796875 c 0
 3.8125 73.9775390625 6.82421875 76.9892578125 9.8349609375 80 c 1
EndSplineSet
EndUndoOperation
EndUndoes
Redoes
EndRedoes
EndUndoRedoHistory
Fore
SplineSet
9.8349609375 80 m 1
 13.4013671875 75.033203125 18.7294921875 71.51953125 24.4404296875 69.4716796875 c 0
 25.8349609375 68.958984375 27.265625 68.5517578125 28.708984375 68.201171875 c 1
 25.4091796875 64.9013671875 22.109375 61.6015625 18.8095703125 58.3017578125 c 0
 11.625 59.98828125 4.72265625 63.75 0.2099609375 69.69921875 c 0
 -0.4169921875 70.197265625 0.5341796875 70.55078125 0.8017578125 70.966796875 c 0
 3.8125 73.9775390625 6.82421875 76.9892578125 9.8349609375 80 c 1
EndSplineSet
Validated: 1
EndChar

StartChar: NameMe.144
Encoding: 309 -1 152
Width: 37
VWidth: 0
Flags: HW
LayerCount: 2
UndoRedoHistory
Layer: 1
Undoes
UndoOperation
Index: 0
Type: 1
WasModified: 1
WasOrder2: 0
Layer: 2
Width: 42
VWidth: 0
LBearingChange: 0
UnicodeEnc: 0
InstructionsLength: 0
SplineSet
8 80 m 1
 16 72 l 1
 8 64 l 1
 0 72 l 1
 8 80 l 1
28 80 m 1
 36 72 l 1
 28 64 l 1
 20 72 l 1
 28 80 l 1
EndSplineSet
EndUndoOperation
EndUndoes
Redoes
EndRedoes
EndUndoRedoHistory
Fore
SplineSet
8 80 m 1
 16 72 l 1
 8 64 l 1
 0 72 l 1
 8 80 l 1
28 80 m 1
 36 72 l 1
 28 64 l 1
 20 72 l 1
 28 80 l 1
EndSplineSet
EndChar

StartChar: divide
Encoding: 311 247 154
Width: 45
VWidth: 0
Flags: HW
LayerCount: 2
UndoRedoHistory
Layer: 1
Undoes
UndoOperation
Index: 0
Type: 1
WasModified: 1
WasOrder2: 0
Layer: 2
Width: 110
VWidth: 0
LBearingChange: 0
UnicodeEnc: 0
InstructionsLength: 0
SplineSet
21 53 m 1
 29 45 l 1
 21 37 l 1
 13 45 l 1
 21 53 l 1
9.095703125 33.365234375 m 1
 44.095703125 33.365234375 l 1
 34.095703125 23.365234375 l 1
 -0.904296875 23.365234375 l 1
 9.095703125 33.365234375 l 1
21 19 m 1
 29 11 l 1
 21 3 l 1
 13 11 l 1
 21 19 l 1
EndSplineSet
EndUndoOperation
EndUndoes
Redoes
EndRedoes
EndUndoRedoHistory
Fore
SplineSet
21 53 m 1
 29 45 l 1
 21 37 l 1
 13 45 l 1
 21 53 l 1
9.095703125 33.365234375 m 1
 44.095703125 33.365234375 l 1
 34.095703125 23.365234375 l 1
 -0.904296875 23.365234375 l 1
 9.095703125 33.365234375 l 1
21 19 m 1
 29 11 l 1
 21 3 l 1
 13 11 l 1
 21 19 l 1
EndSplineSet
EndChar

